<?xml version="1.0" encoding="UTF-8" standalone="no"?>
<!-- Created with Inkscape (http://www.inkscape.org/) -->

<svg
   width="40.079941mm"
   height="40.079941mm"
   viewBox="0 0 40.07994 40.079941"
   version="1.1"
   id="svg5"
   xml:space="preserve"
   inkscape:version="1.2.2 (732a01da63, 2022-12-09)"
   sodipodi:docname="shrine-colour.svg"
   xmlns:inkscape="http://www.inkscape.org/namespaces/inkscape"
   xmlns:sodipodi="http://sodipodi.sourceforge.net/DTD/sodipodi-0.dtd"
   xmlns="http://www.w3.org/2000/svg"
   xmlns:svg="http://www.w3.org/2000/svg"><sodipodi:namedview
     id="namedview7"
     pagecolor="#ffffff"
     bordercolor="#000000"
     borderopacity="0.25"
     inkscape:showpageshadow="2"
     inkscape:pageopacity="0.0"
     inkscape:pagecheckerboard="0"
     inkscape:deskcolor="#d1d1d1"
     inkscape:document-units="mm"
     showgrid="false"
     inkscape:zoom="2.587745"
     inkscape:cx="83.083922"
     inkscape:cy="164.42888"
     inkscape:window-width="1794"
     inkscape:window-height="1328"
     inkscape:window-x="1546"
     inkscape:window-y="16"
     inkscape:window-maximized="0"
     inkscape:current-layer="layer1" /><defs
     id="defs2" /><g
     inkscape:groupmode="layer"
     id="layer2"
     inkscape:label="Layer 2"
     transform="translate(-1.1246922,-0.10226237)" /><g
     inkscape:label="Layer 1"
     inkscape:groupmode="layer"
     id="layer1"
     transform="translate(-31.398052,-126.03124)"><g
       id="g3209"><circle
         style="fill:#f24f13;stroke-width:1.3539"
         id="path3122"
         cx="51.438023"
         cy="146.07121"
         r="20.03997" /><g
         id="g3126"
         transform="matrix(0.88572373,0,0,0.88572373,10.65522,-24.469799)"><path
           style="fill:#faf1e2;stroke-width:0.352778"
           d="m 41.726313,214.089 -1.897439,-0.33702 -2.206956,-1.05329 -2.206956,-1.05328 -2.157831,-1.5885 -2.157831,-1.58851 -1.628349,-2.20528 -1.628349,-2.20528 -0.807778,-1.76389 -0.807778,-1.76389 -0.646294,-2.11667 -0.646294,-2.11666 0.01668,-4.05695 0.01668,-4.05694 0.97209,-2.80877 0.972091,-2.80877 1.564407,-2.3532 1.564406,-2.35321 1.400395,-1.26517 1.400394,-1.26517 1.905333,-1.26507 1.905333,-1.26507 2.53356,-0.88109 2.53356,-0.88108 2.922688,-0.20626 2.922689,-0.20626 2.705061,0.60182 2.705061,0.60182 2.556376,1.27002 2.556376,1.27002 2.675911,2.67439 2.675915,2.67438 1.440977,2.89483 1.440981,2.89484 0.416669,2.00708 0.416669,2.00709 -0.149719,4.09391 -0.149718,4.09392 -0.820692,2.29305 -0.820688,2.29306 -1.076872,1.94028 -1.076872,1.94027 -1.978614,1.94028 -1.978615,1.94028 -2.271555,1.33226 -2.271555,1.33225 -2.293055,0.73183 -2.293056,0.73182 -3.175,0.1214 -3.175,0.12141 z"
           id="path3178" /><path
           style="fill:#fcf0dd;stroke-width:0.352778"
           d="m 41.749247,214.0923 -1.874505,-0.33372 -2.539417,-1.23828 -2.539417,-1.23827 -1.992124,-1.56355 -1.992123,-1.56355 -1.637672,-2.29499 -1.637673,-2.29499 -1.091937,-2.92856 -1.091938,-2.92855 -0.165535,-4.06921 -0.165535,-4.06921 0.421798,-2.03179 0.421798,-2.03179 1.437529,-2.89484 1.437528,-2.89483 2.682362,-2.64583 2.682362,-2.64583 2.644136,-1.28807 2.644137,-1.28807 2.208734,-0.43454 2.208733,-0.43454 3.434409,0.17661 3.43441,0.17661 2.092732,0.74814 2.092733,0.74813 1.914994,1.15064 1.914994,1.15064 2.218824,2.22093 2.218824,2.22093 1.226538,2.36518 1.226541,2.36518 0.660724,1.94028 0.660721,1.94028 -0.01012,4.40972 -0.01012,4.40972 -0.838172,2.64584 -0.838172,2.64583 -1.075062,1.94028 -1.075062,1.94027 -1.978614,1.94028 -1.978614,1.94028 -2.271556,1.33226 -2.271555,1.33225 -2.293055,0.73183 -2.293056,0.73182 -3.174999,0.1214 -3.175,0.12141 -1.874505,-0.33373 z m 7.952572,-9.71843 -0.213137,-0.21314 -0.463021,0.18529 -0.463021,0.18528 0.676158,0.0279 0.676157,0.0279 z m 0.705309,-3.57923 -0.138382,-1.32291 v 2.64583 2.64583 l 0.138382,-1.32291 0.138381,-1.32292 z m 3.161191,0.35278 -0.161333,-0.61736 v 1.23472 1.23472 l 0.161333,-0.61736 0.161333,-0.61736 z m -16.823734,-2.10734 v -0.52578 l -0.617361,0.24027 -0.617361,0.24027 -0.352778,0.062 -0.352778,0.0621 0.102905,-0.70556 0.102904,-0.70555 -0.335112,0.4976 -0.335111,0.4976 0.368918,0.59073 0.368918,0.59073 0.833428,-0.15932 0.833428,-0.15932 z m 0.946543,-0.16367 -0.185286,-0.46302 -0.02785,0.67616 -0.02785,0.67616 0.213136,-0.21314 0.213137,-0.21313 z m -2.145987,-1.55663 -0.228275,-0.59487 -0.176389,0.17639 -0.176388,0.17639 0.228274,0.59487 0.228274,0.59487 0.176389,-0.17638 0.176389,-0.17639 z m 2.963333,-2.80776 v -2.62501 h -0.529167 -0.529166 v -0.88195 -0.88194 h 0.529166 0.529167 v -0.35278 -0.35278 h -0.147536 -0.147536 l -0.55802,0.21413 -0.558019,0.21414 v 1.03166 1.03166 l 0.54023,0.2073 0.54023,0.20731 -0.125268,2.58623 -0.125268,2.58624 0.290594,-0.1796 0.290593,-0.1796 z m 2.54,2.5961 -0.423334,-0.42334 v -1.97555 -1.97556 l 0.423334,-0.42333 0.423333,-0.42333 h -0.599722 -0.599722 v 2.61643 2.61644 l 0.440972,0.17793 0.440972,0.17794 0.15875,0.0279 0.15875,0.0279 z m 9.735629,-1.55865 -0.119726,-1.36941 -0.170162,1.65929 -0.170161,1.6593 0.289888,-0.28989 0.289888,-0.28989 z m 2.686113,1.57854 -0.249342,-0.40345 -0.162733,-1.44864 -0.162734,-1.44864 -0.137911,-0.14699 -0.137911,-0.14699 v 1.57574 1.57574 l 0.423333,0.42334 0.423333,0.42333 h 0.126653 0.126654 z m -16.603895,-1.55205 -0.208899,-0.54438 -0.168133,0.16813 -0.168133,0.16813 0.232534,0.37625 0.232535,0.37625 h 0.144497 0.144497 z m 23.042457,-3.77715 -0.177936,-0.44097 v 0.88194 0.88195 l 0.177936,-0.44097 0.177937,-0.44098 z m -9.558817,-1.67569 h 0.505735 v -0.28178 -0.28177 l -1.334831,0.0172 -1.33483,0.0172 0.717469,1.09271 0.71747,1.0927 0.111626,-0.82812 0.111627,-0.82812 z m 10.912679,1.41111 -0.218027,-0.35278 -0.420155,0.005 -0.420151,0.005 0.529166,0.34198 0.529167,0.34197 0.109015,0.005 0.109012,0.005 z m -19.484258,-1.64251 -0.434258,-0.1757 -0.624075,0.16262 -0.624075,0.16263 1.058333,0.0131 1.058333,0.0131 -0.434258,-0.1757 z m 12.732665,-0.29777 0.20306,-0.52917 h -0.480351 -0.480351 l -0.203061,0.52917 -0.20306,0.52917 h 0.480351 0.480352 z m -9.395339,-0.0368 -0.213137,-0.21313 -0.463021,0.18528 -0.463021,0.18529 0.676158,0.0279 0.676157,0.0279 z m -9.69404,-1.10039 -1.146527,-0.14229 v -0.6619 -0.66191 l 1.322916,-0.13838 1.322917,-0.13838 -1.499306,-0.0593 -1.499305,-0.0593 v 0.82315 0.82315 l 0.235185,0.23518 0.235185,0.23519 1.087732,-0.0565 1.087731,-0.0565 z m 20.990278,0.012 -0.617362,-0.16134 -0.617361,0.16134 -0.617361,0.16133 h 1.234722 1.234723 z m 1.024792,-1.32911 -0.208899,-0.54438 h -0.82559 -0.82559 l -0.684787,-0.51795 -0.684787,-0.51795 0.332009,-0.0112 0.33201,-0.0112 -0.684361,-0.50042 -0.684362,-0.50042 0.969713,-0.24338 0.969713,-0.24338 v -0.30572 -0.30571 l -1.146528,0.21422 -1.146528,0.21422 -0.335139,0.30613 -0.335139,0.30612 0.423334,0.42334 0.423333,0.42333 v 0.635 0.635 h -0.352778 -0.352777 v 0.27891 0.27891 l 2.293055,-0.13902 2.293056,-0.13902 v 0.62446 0.62446 l 0.21997,-0.21997 0.219971,-0.21997 z m -19.104653,-0.1916 -0.218029,-0.35278 h -0.331958 -0.331957 v 0.35278 0.35277 h 0.549986 0.549987 z m 3.608623,0.13964 -0.213137,-0.21314 -0.463021,0.18529 -0.463021,0.18528 0.676158,0.0279 0.676157,0.0279 z m 2.653182,-0.0205 -0.440972,-0.17794 -0.440972,0.17794 -0.440972,0.17793 h 0.881944 0.881945 z m -6.085416,-2.58859 v -0.70555 h -0.676703 -0.676703 l -0.646214,-0.19885 -0.646213,-0.19884 0.970139,0.56289 0.970138,0.56289 v 0.34151 0.34151 h 0.352778 0.352778 z m -4.649195,-2.73403 -1.264608,-1.32291 -0.394487,-0.77056 -0.394488,-0.77056 v -0.42213 -0.42212 l 1.234723,0.20036 1.234722,0.20037 v -0.43615 -0.43615 l -1.261819,0.14731 -1.261819,0.14731 -0.16369,0.42657 -0.163691,0.42658 0.335626,0.85458 0.335626,0.85459 1.2655,1.32291 1.265501,1.32292 h 0.248756 0.248756 z m 6.413084,-2.69398 v -0.13635 l -1.073866,-0.15761 -1.073865,-0.15761 -0.181677,0.29396 -0.181676,0.29396 h 1.255542 1.255542 z m 13.140972,-0.0973 -0.440973,-0.17794 -0.440972,0.17794 -0.440972,0.17793 h 0.881944 0.881945 z m 6.166261,-1.03783 -0.213137,-0.21314 -0.46302,0.18529 -0.463021,0.18528 0.676157,0.0279 0.676157,0.0279 z m -21.294895,-1.46796 -0.400163,-0.25918 -0.176276,-0.70556 -0.176276,-0.70556 -0.04092,0.97014 -0.04092,0.97014 0.617361,-0.005 0.617361,-0.005 -0.400162,-0.25918 z m 1.523094,-1.20727 -0.185286,-0.46303 -0.02785,0.67616 -0.02785,0.67616 0.213137,-0.21314 0.213136,-0.21313 z m -0.689309,-0.49977 -0.213137,-0.21314 -0.463021,0.18529 -0.463021,0.18528 0.676158,0.0279 0.676157,0.0279 z"
           id="path3176" /><path
           style="fill:#f9ecda;stroke-width:0.352778"
           d="m 41.749247,214.0923 -1.874505,-0.33372 -2.539417,-1.23828 -2.539417,-1.23827 -2.011872,-1.57905 -2.011872,-1.57905 -1.801755,-2.56221 -1.801755,-2.56222 0.151962,-0.88194 0.151961,-0.88194 0.258644,-0.60334 0.258644,-0.60334 -0.665422,0.12815 -0.665423,0.12815 -0.05688,-0.75509 -0.05688,-0.75508 0.324404,0.52472 0.324404,0.52472 0.617519,-0.61737 0.61752,-0.61736 h -0.95754 -0.957539 v -0.35176 -0.35176 l 1.238531,-1.37091 1.238531,-1.3709 1.054524,-0.4368 1.054525,-0.4368 v -0.24046 -0.24046 l -1.675695,-0.90561 -1.675694,-0.90562 v -0.66321 -0.66321 l 1.235019,0.0325 1.235019,0.0324 1.279658,0.24007 1.279659,0.24006 1.0131,0.9597 1.0131,0.95969 0.705556,0.36413 0.705555,0.36413 0.121997,0.87311 0.121997,0.87311 0.325062,0.39626 0.325062,0.39626 -0.198035,0.51607 -0.198035,0.51607 0.809309,-0.0586 0.80931,-0.0586 0.103034,-2.70577 0.103034,-2.70577 h -0.544007 -0.544005 v -0.88195 -0.88194 h 0.529166 0.529167 v -0.35278 -0.35278 h -0.893016 -0.893017 l -0.20306,-0.52917 -0.20306,-0.52916 h -1.02059 -1.02059 v -0.6685 -0.6685 l 1.437482,-0.13709 1.437483,-0.13709 0.170837,0.27642 0.170837,0.27642 h 0.578903 0.578902 l -0.423333,-0.42333 -0.423334,-0.42333 v -0.635 -0.635 h 0.352778 0.352778 v -0.66047 -0.66047 l -1.42612,-0.22804 -1.426119,-0.22805 -1.533364,-1.4134 -1.533363,-1.41341 -0.43939,-1.06078 -0.439391,-1.06078 0.203127,-0.20313 0.203128,-0.20313 3.327637,0.56722 3.327638,0.56722 7.011858,-4.9e-4 7.011858,-4.8e-4 2.998611,-0.5282 2.998611,-0.5282 0.440973,-4.8e-4 0.440972,-4.9e-4 v 0.55969 0.55969 l -1.115362,1.55312 -1.115362,1.55311 -1.465463,0.70942 -1.465463,0.70942 H 53.763744 53.014 l -0.237026,0.38351 -0.237026,0.38352 0.392595,0.39259 0.392595,0.3926 v 0.635 0.635 H 52.97236 52.619583 v 0.31215 0.31216 l 2.293055,-0.18407 2.293056,-0.18406 v 0.75385 0.75386 h -1.234723 -1.234722 v 0.31453 0.31454 l -0.881944,0.22135 -0.881945,0.22135 v 0.34606 0.34606 h 0.529167 0.529167 v 0.88194 0.88195 h -0.483009 -0.483008 l -0.218665,1.32291 -0.218664,1.32292 -0.0039,1.12571 -0.0039,1.1257 0.352777,0.21803 0.352778,0.21803 0.0039,2.36043 0.0039,2.36043 0.218665,1.32292 0.218665,1.32291 h 0.45361 0.45361 l 0.205787,-0.44097 0.205784,-0.44097 0.217368,0.47572 0.217368,0.47571 0.634585,-1.41739 0.634585,-1.41739 0.778645,-0.41672 0.778645,-0.41672 0.967574,0.19352 0.967572,0.19351 0.767197,-0.88235 0.767193,-0.88235 1.625582,0.10695 1.625579,0.10696 0.364581,0.58164 0.364582,0.58165 -1.210387,2.40479 -1.210392,2.4048 -2.129013,2.12883 -2.129016,2.12884 -2.280708,1.33226 -2.280707,1.33225 -2.293055,0.73183 -2.293056,0.73182 -3.175,0.1214 -3.174999,0.12141 z m 8.755275,-11.88655 0.0016,-2.38124 0.228685,-3.96875 0.228686,-3.96875 H 50.38043 49.797362 v -0.88195 -0.88194 h 0.529167 0.529167 l -5.65e-4,-0.26459 -5.64e-4,-0.26458 -3.615409,-0.0898 -3.615406,-0.0898 -1.763889,0.3129 -1.763889,0.31291 0.79375,0.0415 0.79375,0.0415 v 0.88194 0.88195 h -0.705556 -0.705555 v 2.64583 2.64583 h 0.352777 0.352778 v 3.70417 3.70416 h 4.7625 4.7625 l 0.0016,-2.38125 z m -13.759937,-3.1517 v -0.51181 l -0.703336,0.22323 -0.703336,0.22323 0.211913,-0.55224 0.211912,-0.55223 -0.256395,-0.61736 -0.256395,-0.61736 -0.445457,1.04129 -0.445456,1.04129 0.359847,0.57621 0.359847,0.5762 0.833428,-0.15932 0.833428,-0.15932 z m 0.950027,-0.72214 -0.162626,-0.62407 -0.01307,1.05833 -0.01307,1.05834 0.175698,-0.43426 0.175699,-0.43426 -0.162627,-0.62408 z m -4.125027,-0.62407 v -0.52917 H 33.43094 33.292294 l -0.20306,0.52917 -0.203061,0.52917 h 0.341706 0.341706 z m -1.522901,-3.77031 -0.185286,-0.46302 -0.02785,0.67615 -0.02785,0.67616 0.213137,-0.21314 0.213136,-0.21313 z m 9.731698,-6.86804 -0.434258,-0.17569 -0.624075,0.16262 -0.624075,0.16263 1.058333,0.0131 1.058333,0.0131 -0.434258,-0.1757 z m 2.815508,-0.002 -0.440972,-0.17794 -0.440972,0.17794 -0.440972,0.17793 h 0.881944 0.881945 z m 3.34404,0.0205 -0.213137,-0.21314 -0.463021,0.18529 -0.463021,0.18528 0.676158,0.0279 0.676157,0.0279 -0.213136,-0.21313 z m 2.822222,0 -0.213137,-0.21314 -0.463021,0.18529 -0.46302,0.18528 0.676157,0.0279 0.676157,0.0279 -0.213136,-0.21313 z m -5.901678,-2.60909 v -0.35278 h -2.293056 -2.293055 v 0.35278 0.35278 h 2.293055 2.293056 z m 5.997222,0.0743 v -0.27849 l -2.116667,-0.0836 -2.116666,-0.0836 v 0.36208 0.36208 h 2.116666 2.116667 z m 9.172222,7.68682 v -0.75729 l 0.617361,0.1189 0.617361,0.11889 v 0.5195 0.51951 l -0.617361,0.11889 -0.617361,0.11889 z m -21.867424,-15.87203 -0.460387,-0.28454 0.216723,-0.56477 0.216722,-0.56477 h 0.716628 0.716627 v 0.66782 0.66781 l -0.472963,0.18149 -0.472964,0.18149 z"
           id="path3174" /><path
           style="fill:#ecdac7;stroke-width:0.352778"
           d="m 41.419065,213.92976 -2.204686,-0.47893 -2.220178,-1.09299 -2.220178,-1.09299 -2.000929,-1.57046 -2.00093,-1.57046 -1.776289,-2.52934 -1.77629,-2.52935 v -0.63006 -0.63007 l 0.733551,-1.24327 0.733552,-1.24328 -0.225205,-0.36439 -0.225204,-0.36439 h -0.684736 -0.684735 v -0.58379 -0.58379 l 1.425965,-1.35648 1.425966,-1.35649 h 0.652957 0.652958 l 0.210544,-0.54867 0.210543,-0.54867 -1.319328,-0.54479 -1.319328,-0.5448 -0.617361,-0.54871 -0.617361,-0.54871 v -0.29811 -0.2981 h 1.77522 1.775219 l 1.177286,0.4919 1.177286,0.49191 0.492446,0.65462 0.492446,0.65463 0.676611,0.37635 0.676611,0.37636 0.233329,0.50559 0.233329,0.50559 0.407608,0.78896 0.407609,0.78896 v 0.15883 0.15882 l -1.11936,0.11055 -1.11936,0.11054 -0.332698,1.00479 -0.332699,1.00479 0.484009,0.48401 0.484009,0.484 0.79166,-0.20702 0.791661,-0.20702 v -0.48803 -0.48802 h -0.529167 -0.529166 v -0.52916 -0.52917 h 0.881944 0.881945 l 0.01073,1.14653 0.01073,1.14653 0.394469,-0.67971 0.39447,-0.67971 0.172038,-3.28904 0.172037,-3.28904 H 38.02738 37.450145 v -0.88195 -0.88194 h 0.529166 0.529167 v -0.52917 -0.52917 h -1.058333 -1.058334 v -0.35277 -0.35278 h -1.058333 -1.058333 v -0.70556 -0.70555 h 1.5875 1.5875 v 0.35277 0.35278 h 0.452329 0.45233 l 0.02751,-1.90308 0.02751,-1.90307 -1.289685,-0.20623 -1.289685,-0.20623 -1.407614,-1.20487 -1.407615,-1.20486 -0.677484,-1.25801 -0.677484,-1.25802 0.230404,-0.2304 0.230404,-0.2304 3.105513,0.56997 3.105514,0.56997 h 7.408333 7.408333 l 3.105514,-0.56997 3.105513,-0.56997 0.189892,0.18989 0.189891,0.18989 -0.239729,0.75532 -0.23973,0.75532 -1.081996,1.23233 -1.081997,1.23232 -1.342264,0.68478 -1.342266,0.68477 H 53.515588 52.61959 v 0.70555 0.70556 h 0.352777 0.352778 v 0.67616 0.67615 l -0.440972,0.17893 -0.440972,0.17893 0.529166,0.36833 0.529167,0.36833 0.117592,-0.34147 0.117593,-0.34147 h 1.734491 1.734491 v 0.70555 0.70556 h -1.234723 -1.234722 v 0.32934 0.32935 l -0.942933,0.11163 -0.942933,0.11162 -0.144798,0.44097 -0.144799,0.44098 h 0.520822 0.520821 l 0.215277,0.561 0.215277,0.561 -0.198354,0.32094 -0.198353,0.32095 H 53.127936 52.61959 v 2.64583 2.64583 h 0.352777 0.352778 v 2.60174 2.60173 l 0.215544,1.07773 0.215545,1.07772 0.967187,-0.0275 0.967188,-0.0275 0.439334,-1.21496 0.439335,-1.21496 1.180437,-0.49321 1.180436,-0.49322 0.543676,0.20863 0.543675,0.20862 1.090612,-0.91768 1.090609,-0.91769 h 1.140231 1.140227 l 0.649908,0.47522 0.649909,0.47522 -0.39738,1.13992 -0.397376,1.13992 -1.645694,2.47548 -1.645698,2.47548 -1.972783,1.54837 -1.972786,1.54837 -2.012118,1.07245 -2.012118,1.07245 -2.724826,0.69689 -2.724825,0.69689 -2.324819,-0.028 -2.324818,-0.028 z m 9.085457,-11.72401 0.0016,-2.38124 0.228685,-3.96875 0.228686,-3.96875 H 50.38043 49.797362 v -0.88195 -0.88194 h 0.529167 0.529167 v -0.29105 -0.29105 l -1.146528,-0.0767 -1.146528,-0.0767 h -2.998611 -2.998611 l -1.146528,0.0767 -1.146527,0.0767 v 0.2499 0.24991 l 0.705555,0.1845 0.705556,0.18451 v 0.59522 0.59522 l -0.705556,0.18451 -0.705555,0.18451 v 2.60468 2.60469 h 0.27849 0.27849 l 0.0065,0.79375 0.0065,0.79375 0.06776,2.91042 0.06776,2.91041 h 4.7625 4.7625 l 0.0016,-2.38125 z M 29.68903,198.01742 v -0.57236 l -0.529167,0.43917 -0.529167,0.43917 v 0.13319 0.13319 h 0.529167 0.529167 z m 1.533193,-1.72069 0.207661,-1.41111 -0.210905,0.52916 -0.210905,0.52917 -0.491639,0.56634 -0.491639,0.56635 0.231737,0.60389 0.231738,0.6039 0.263146,-0.2883 0.263146,-0.28829 z m 2.450413,1.47501 0.178537,-0.46525 -1.022738,-0.38605 -1.022739,-0.38604 v 0.64552 0.64551 l 0.440973,0.17794 0.440972,0.17793 0.403229,0.0279 0.403228,0.0279 z m -1.161384,-3.78889 v -0.33196 h -0.352778 -0.352778 v 0.54999 0.54999 l 0.352778,-0.21803 0.352778,-0.21803 z m 9.525,-7.03473 v -0.35278 h -0.881945 -0.881944 v 0.35278 0.35277 h 0.881944 0.881945 z m 2.822222,0 v -0.35278 h -0.705556 -0.705555 v 0.35278 0.35277 h 0.705555 0.705556 z m 3.175,0 v -0.35278 h -0.705556 -0.705555 v 0.35278 0.35277 h 0.705555 0.705556 z m 2.822222,0 v -0.35278 l -0.264584,0.005 -0.264583,0.005 -0.529167,0.34198 -0.529166,0.34197 0.79375,0.005 0.79375,0.005 z m -5.997222,-2.46945 v -0.70555 h -2.293056 -2.293055 v 0.70555 0.70556 h 2.293055 2.293056 z m 5.997222,-0.0176 v -0.72316 l -2.025044,0.1058 -2.025044,0.1058 -0.11749,0.61736 -0.11749,0.61736 h 2.142534 2.142534 z m 9.172222,7.77871 v -0.75729 l 0.617361,0.1189 0.617361,0.11889 v 0.5195 0.51951 l -0.617361,0.11889 -0.617361,0.11889 z m -22.055536,-16.23898 -0.249098,-0.40305 0.368882,-0.36888 0.368882,-0.36888 0.582216,0.22341 0.582216,0.22342 -0.146764,0.44079 -0.146765,0.44079 -0.555235,0.10772 -0.555236,0.10773 z"
           id="path3172" /><path
           style="fill:#d9d3c5;stroke-width:0.352778"
           d="m 41.419065,213.95186 -2.204686,-0.50103 -2.220178,-1.09299 -2.220178,-1.09299 -2.000929,-1.57046 -2.00093,-1.57046 -1.776289,-2.52934 -1.77629,-2.52935 v -0.43881 -0.43881 l 0.842021,-1.81742 0.842021,-1.81741 0.304507,0.0371 0.304507,0.0371 0.129195,-0.63599 0.129196,-0.636 -0.68614,0.61736 -0.68614,0.61736 H 27.63278 26.866808 v -0.38651 -0.38651 l 0.680359,-0.95548 0.680358,-0.95548 1.245992,-0.67101 1.245992,-0.67101 0.263039,0.26304 0.263039,0.26304 -0.662694,1.23055 -0.662693,1.23054 0.407702,0.40771 0.407702,0.4077 0.248489,-0.24849 0.248489,-0.24849 0.14943,-2.06584 0.14943,-2.06585 -1.868333,-1.01354 -1.868331,-1.01353 -0.140606,-0.44098 -0.140605,-0.44097 1.528704,0.002 1.528703,0.002 1.30687,0.36297 1.306871,0.36296 0.647589,0.7816 0.647589,0.78159 0.667797,0.37636 0.667798,0.37635 0.233329,0.50559 0.233329,0.50558 0.407608,0.78896 0.407609,0.78896 v 0.18118 0.18117 h -1.032495 -1.032495 l -0.517585,1.03753 -0.517584,1.03752 0.583212,0.5278 0.583211,0.5278 1.451693,-0.19472 1.451692,-0.19471 0.217665,-1.81158 0.217664,-1.81158 0.0031,-2.02847 0.0031,-2.02847 h -0.529167 -0.529166 v -0.88195 -0.88194 h 0.529166 0.529167 v -0.52917 -0.52917 h -1.058333 -1.058334 v -0.35277 -0.35278 h -1.058333 -1.058333 v -0.70556 -0.70555 h 1.5875 1.5875 v 0.35277 0.35278 h 0.452329 0.45233 l 0.02718,-1.88039 0.02718,-1.88039 -1.620779,-0.43349 -1.620779,-0.43349 -1.492083,-1.60225 -1.492083,-1.60225 -0.221081,-0.69656 -0.221081,-0.69657 0.191214,-0.19121 0.191214,-0.19122 3.104191,0.62811 3.104191,0.62811 7.408333,-0.0117 7.408333,-0.0117 3.126743,-0.59382 3.126744,-0.59383 0.193756,0.19375 0.193756,0.19376 -0.366691,0.8048 -0.366692,0.8048 -0.998936,1.18717 -0.998936,1.18717 -1.425705,0.64761 -1.425707,0.6476 -0.79375,0.008 -0.79375,0.008 v 0.70555 0.70556 h 0.352777 0.352778 v 0.70555 0.70556 h -0.352778 -0.352777 v 0.52917 0.52916 h 0.529166 0.529167 v -0.3721 -0.37211 l 1.675694,0.10752 1.675695,0.10753 v 0.52916 0.52917 l -1.146528,0.11054 -1.146528,0.11055 v 0.33043 0.33042 h -1.058333 -1.058333 v 0.52917 0.52917 h 0.529166 0.529167 v 0.88194 0.88195 h -0.529167 -0.529166 v 2.64583 2.64583 h 0.306267 0.306267 l 0.06203,2.91042 0.06203,2.91041 0.190259,0.75848 0.190259,0.75847 h 1.20435 1.204349 l -0.169447,-0.27417 -0.169448,-0.27417 0.803944,-1.18986 0.803943,-1.18986 1.409532,-0.0306 1.409533,-0.0306 0.939528,-0.93953 0.939532,-0.93953 h 0.88138 0.88138 l 0.898546,0.4094 0.898543,0.4094 v 0.33276 0.33276 l -1.269111,2.41512 -1.269111,2.41512 -2.032533,2.04619 -2.032533,2.04619 -2.254606,1.33226 -2.254606,1.33225 -2.293055,0.73183 -2.293056,0.73182 -3.175,0.13483 -3.174999,0.13484 z m 9.083853,-13.0482 v -3.68335 l 0.352778,-0.21803 0.352777,-0.21803 v -2.40748 -2.40747 l -0.705555,-0.18451 -0.705556,-0.18451 v -0.59522 -0.59522 l 0.705556,-0.18451 0.705555,-0.1845 v -0.29082 -0.29081 l -0.420152,-0.25967 -0.420152,-0.25967 -0.138413,0.41524 -0.138412,0.41524 h -0.655337 -0.655338 l -0.218029,-0.35278 -0.218028,-0.35278 h -1.867709 -1.867708 l -2.168416,0.22665 -2.168416,0.22664 v 0.30252 0.30253 h 0.529166 0.529167 v 0.88194 0.88195 h -0.529167 -0.529166 l -0.0059,1.4993 -0.0059,1.49931 0.428033,4.85069 0.428035,4.85069 h 4.693152 4.693153 z m -16.68035,-3.24392 0.131859,-0.40087 -1.074366,-0.37453 -1.074365,-0.37452 v 0.62841 0.6284 l 0.250067,0.25007 0.250066,0.25007 0.69244,-0.10308 0.69244,-0.10307 z m -1.344685,-3.39148 0.472538,-0.61737 h -0.572362 -0.572363 v 0.76436 0.76435 l 0.09982,-0.14699 0.09983,-0.14699 z m 9.558369,-7.14375 v -0.52917 h -0.881945 -0.881944 v 0.52917 0.52916 h 0.881944 0.881945 z m 2.822222,-0.17639 v -0.35278 h -0.684736 -0.684736 l -0.218028,0.35278 -0.218029,0.35277 h 0.902764 0.902765 z m 3.175,0 v -0.35278 h -0.881945 -0.881944 v 0.35278 0.35277 h 0.881944 0.881945 z m 2.822222,0 v -0.35278 h -0.881945 -0.881944 v 0.35278 0.35277 h 0.881944 0.881945 z m -5.997222,-2.46945 v -0.70555 h -2.293056 -2.293055 v 0.70555 0.70556 h 2.293055 2.293056 z m 6.099439,0 0.184507,-0.70555 h -2.260029 -2.260028 v 0.70555 0.70556 h 2.075521 2.075522 z m -13.86055,14.15444 v -0.42703 l -0.580763,0.10365 -0.580763,0.10366 -0.154191,-0.44097 -0.154191,-0.44097 h 0.746026 0.746026 l 0.208898,0.54438 0.208899,0.54438 -0.21997,0.21997 -0.219971,0.21997 z m 23.165741,-5.92296 -0.235186,-0.23518 v -0.47037 -0.47037 h 0.529166 0.529167 v 0.70555 0.70556 h -0.29398 -0.293984 z m -22.227627,-16.60726 -0.186004,-0.30096 0.293896,-0.47553 0.293897,-0.47554 0.594107,0.22798 0.594107,0.22798 -0.146764,0.44079 -0.146765,0.44079 -0.555235,0.10772 -0.555236,0.10773 z"
           id="path3170" /><path
           style="fill:#f1ccb1;stroke-width:0.352778"
           d="m 41.462822,213.96079 -2.160931,-0.49211 -1.972994,-0.93337 -1.972995,-0.93338 -2.100913,-1.5466 -2.100913,-1.54661 -1.388144,-1.87266 -1.388144,-1.87267 -0.617197,-1.08225 -0.617197,-1.08226 0.787294,-1.73997 0.787293,-1.73996 0.485525,-0.28211 0.485524,-0.28212 v -0.55221 -0.55221 l -0.869533,0.56974 -0.869532,0.56974 h -0.541579 -0.541578 v -0.48423 -0.48424 l 1.579617,-1.45604 1.579618,-1.45604 h 0.537049 0.537049 v 0.46174 0.46174 l -0.517947,0.68479 -0.517947,0.68478 -0.01122,0.64323 -0.01122,0.64323 0.617362,-0.11771 0.617361,-0.11771 0.09194,-2.28941 0.09194,-2.2894 -1.767632,-0.77127 -1.767632,-0.77127 v -0.55165 -0.55165 l 1.499305,0.008 1.499306,0.008 1.499305,0.68056 1.499306,0.68056 v 0.33518 0.33518 l 1.26922,0.74885 1.269221,0.74886 -0.219393,0.57173 -0.219393,0.57173 0.592349,0.65454 0.592348,0.65453 h -0.919091 -0.919091 l -0.396944,-0.61736 -0.396944,-0.61736 0.191954,0.61736 0.191953,0.61736 h -0.362525 -0.362526 l 0.213523,0.34549 0.213523,0.34549 -0.335744,0.62734 -0.335744,0.62734 0.614756,0.7592 0.614756,0.75919 0.498424,-0.31551 0.498423,-0.31551 0.921001,-0.005 0.921,-0.005 0.222461,-1.85209 0.222461,-1.85208 0.0031,-2.02847 0.0031,-2.02847 h -0.529167 -0.529166 v -0.88195 -0.88194 h 0.529166 0.529167 v -0.52917 -0.52917 h -1.058333 -1.058334 v -0.35277 -0.35278 h -1.058333 -1.058333 v -0.70556 -0.70555 h 1.5875 1.5875 v 0.35277 0.35278 h 0.452329 0.45233 l 0.02718,-1.88039 0.02718,-1.88039 -1.620779,-0.43349 -1.620779,-0.43349 -1.492083,-1.60225 -1.492083,-1.60225 -0.221081,-0.69656 -0.221081,-0.69657 0.168661,-0.16866 0.168662,-0.16866 3.126743,0.60954 3.126744,0.60954 7.408333,-0.008 7.408333,-0.008 2.116667,-0.38492 2.116666,-0.38491 1.146528,-0.24188 1.146526,-0.24189 v 0.52033 0.52034 l -1.069002,1.47571 -1.069003,1.47572 -1.135858,0.69822 -1.135859,0.69823 -1.322917,0.21713 -1.322916,0.21713 v 0.66047 0.66047 h 0.352777 0.352778 v 0.70555 0.70556 h -0.352778 -0.352777 v 0.52917 0.52916 h 0.529166 0.529167 v -0.3721 -0.37211 l 1.675694,0.10752 1.675695,0.10753 v 0.52916 0.52917 l -1.146528,0.11054 -1.146528,0.11055 v 0.33043 0.33042 h -1.058333 -1.058333 v 0.52917 0.52917 h 0.529166 0.529167 v 0.88194 0.88195 H 53.11262 52.547252 l 0.201835,2.91041 0.201835,2.91042 0.202367,2.64583 0.202367,2.64583 0.159033,0.75848 0.159032,0.75847 h 1.235872 1.235872 l -0.169447,-0.27417 -0.169448,-0.27417 0.803944,-1.18986 0.803943,-1.18986 1.409532,-0.0306 1.409533,-0.0306 0.939528,-0.93953 0.939532,-0.93953 h 0.88138 0.88138 l 0.898546,0.4094 0.898543,0.4094 v 0.33276 0.33276 l -1.269111,2.41512 -1.269111,2.41512 -2.032533,2.04619 -2.032533,2.04619 -2.254606,1.33226 -2.254606,1.33225 -2.293055,0.73183 -2.293056,0.73182 -3.175,0.13483 -3.174999,0.13484 z m 9.040096,-13.05713 v -3.68335 l 0.352778,-0.21803 0.352777,-0.21803 v -2.40748 -2.40747 l -0.705555,-0.18451 -0.705556,-0.18451 v -0.59522 -0.59522 l 0.705556,-0.18451 0.705555,-0.1845 v -0.29082 -0.29081 l -0.420152,-0.25967 -0.420152,-0.25967 -0.138413,0.41524 -0.138412,0.41524 h -0.655337 -0.655338 l -0.218029,-0.35278 -0.218028,-0.35278 h -1.867709 -1.867708 l -2.168416,0.22665 -2.168416,0.22664 v 0.30252 0.30253 h 0.529166 0.529167 v 0.88194 0.88195 h -0.582098 -0.582097 l 0.244089,4.32152 0.244088,4.32153 0.211876,2.02847 0.211875,2.02847 h 4.712244 4.712245 z m -16.580555,-3.22537 v -0.51708 l -0.90491,-0.34405 -0.90491,-0.34404 h -0.153424 -0.153423 v 0.8574 0.85741 l 0.79375,0.13082 0.79375,0.13082 0.264584,-0.1271 0.264583,-0.1271 z m -1.411111,-3.32184 0.377602,-0.70556 h -0.541579 -0.541579 v 0.70556 0.70556 h 0.163977 0.163977 z m 9.525,-7.23194 v -0.52917 h -0.881945 -0.881944 v 0.52917 0.52916 h 0.881944 0.881945 z m 2.822222,-0.17639 v -0.35278 h -0.684736 -0.684736 l -0.218028,0.35278 -0.218029,0.35277 h 0.902764 0.902765 z m 3.175,0 v -0.35278 h -0.881945 -0.881944 v 0.35278 0.35277 h 0.881944 0.881945 z m 2.822222,0 v -0.35278 h -0.881945 -0.881944 v 0.35278 0.35277 h 0.881944 0.881945 z m -5.997222,-2.46945 v -0.70555 h -2.293056 -2.293055 v 0.70555 0.70556 h 2.293055 2.293056 z m 6.099439,0 0.184507,-0.70555 h -2.260029 -2.260028 v 0.70555 0.70556 h 2.075521 2.075522 z m -15.271661,13.40556 v -0.35278 h 0.705555 0.705556 v 0.35278 0.35278 h -0.705556 -0.705555 z m 24.576852,-5.17408 -0.235186,-0.23518 v -0.47037 -0.47037 h 0.529166 0.529167 v 0.70555 0.70556 h -0.29398 -0.293984 z m -22.227627,-16.60726 -0.186004,-0.30096 0.293896,-0.47553 0.293897,-0.47554 0.594107,0.22798 0.594107,0.22798 -0.146764,0.44079 -0.146765,0.44079 -0.555235,0.10772 -0.555236,0.10773 z"
           id="path3168" /><path
           style="fill:#ccc7b9;stroke-width:0.352778"
           d="m 43.270974,214.24121 -1.058334,-0.16288 -1.92521,-0.54344 -1.92521,-0.54345 -1.778956,-0.89023 -1.778957,-0.89023 -1.827865,-1.39593 -1.827866,-1.39593 -1.384776,-1.82786 -1.384776,-1.82787 -0.617815,-1.08225 -0.617815,-1.08226 0.787294,-1.73997 0.787293,-1.73996 0.485525,-0.28211 0.485524,-0.28212 v -0.55221 -0.55221 l -0.869533,0.56974 -0.869532,0.56974 h -0.541579 -0.541578 v -0.48423 -0.48424 l 1.579617,-1.45604 1.579618,-1.45604 h 0.537049 0.537049 v 0.46174 0.46174 l -0.517947,0.68479 -0.517947,0.68478 -0.01122,0.64323 -0.01122,0.64323 0.617362,-0.11771 0.617361,-0.11771 0.09194,-2.28941 0.09194,-2.2894 -1.767632,-0.77127 -1.767632,-0.77127 v -0.55165 -0.55165 l 1.499305,0.008 1.499306,0.008 1.499305,0.68056 1.499306,0.68056 v 0.33518 0.33518 l 1.26922,0.74885 1.269221,0.74886 -0.219393,0.57173 -0.219393,0.57173 0.592349,0.65454 0.592348,0.65453 h -0.919091 -0.919091 l -0.396944,-0.61736 -0.396944,-0.61736 0.191954,0.61736 0.191953,0.61736 h -0.362525 -0.362526 l 0.213523,0.34549 0.213523,0.34549 -0.335744,0.62734 -0.335744,0.62734 0.609099,0.75221 0.609099,0.7522 0.562839,-0.31498 0.562839,-0.31498 0.814458,0.0893 0.814457,0.0893 0.247163,-1.5875 0.247163,-1.5875 0.02615,-2.34351 0.02615,-2.34351 -0.529167,-0.20306 -0.529166,-0.20306 v -0.71663 -0.71662 h 0.529166 0.529167 v -0.52917 -0.52917 h -0.881945 -0.881944 v -0.35277 -0.35278 H 35.50987 34.275148 v -0.70556 -0.70555 h 1.5875 1.5875 v 0.35277 0.35278 h 0.508346 0.508347 l 0.242405,-0.39222 0.242405,-0.39222 -0.423625,-0.26181 -0.423625,-0.26182 0.232028,-1.23681 0.232027,-1.23681 -1.624276,-0.409 -1.624276,-0.409 -1.316128,-1.32684 -1.316128,-1.32685 -0.5003,-0.95889 -0.5003,-0.95889 0.195779,-0.19578 0.195778,-0.19577 3.126744,0.60954 3.126743,0.60954 7.408333,-0.008 7.408333,-0.008 2.116667,-0.38492 2.116666,-0.38491 1.146528,-0.24188 1.146528,-0.24189 v 0.50376 0.50377 l -1.075491,1.46244 -1.075491,1.46244 -1.12937,0.69411 -1.12937,0.6941 -1.322917,0.24527 -1.322916,0.24527 v 0.66629 0.6663 h 0.352777 0.352778 v 0.70555 0.70556 h -0.352778 -0.352777 v 0.52917 0.52916 h 0.508346 0.508347 l 0.218029,-0.35278 0.218028,-0.35277 h 1.390292 1.390291 v 0.70555 0.70556 h -1.037514 -1.037513 l -0.218029,0.35278 -0.218028,0.35277 h -0.861125 -0.861124 v 0.52917 0.52917 h 0.529166 0.529167 v 0.91968 0.91969 l -0.564358,-0.21656 -0.564358,-0.21657 0.199208,3.08924 0.199209,3.08924 0.203984,2.64583 0.203984,2.64583 0.167887,0.79375 0.167886,0.79375 h 1.199971 1.199971 l 0.235074,-1.07028 0.235075,-1.07029 0.83289,-0.54573 0.83289,-0.54573 1.054775,0.11064 1.054776,0.11064 0.913546,-0.85823 0.913546,-0.85824 H 63.394 64.624114 l 0.563905,0.56391 0.563905,0.5639 -1.186304,2.23501 -1.186307,2.23501 -2.170433,2.29872 -2.170432,2.29873 -1.944747,1.17143 -1.944747,1.17143 -2.535258,0.85774 -2.535259,0.85774 -2.874561,0.14535 -2.874562,0.14535 z m 7.231944,-13.35837 v -3.70417 h 0.352778 0.352777 v -2.60469 -2.60468 l -0.705555,-0.18451 -0.705556,-0.18451 v -0.59522 -0.59522 l 0.705556,-0.18451 0.705555,-0.1845 v -0.43395 -0.43394 l -5.468055,-0.02 -5.468055,-0.02 v 0.49508 0.49509 h 0.529166 0.529167 v 0.70555 0.70556 h -0.582931 -0.582931 l 0.235931,4.41325 0.235931,4.41325 0.220866,2.11314 0.220867,2.11313 h 4.712244 4.712245 z m -16.580555,-3.20455 v -0.51708 l -0.90491,-0.34405 -0.90491,-0.34404 h -0.153424 -0.153423 v 0.8574 0.85741 l 0.79375,0.13082 0.79375,0.13082 0.264584,-0.1271 0.264583,-0.1271 z m -1.411111,-3.32184 0.377602,-0.70556 h -0.541579 -0.541579 v 0.70556 0.70556 h 0.163977 0.163977 z m 9.791775,-7.32014 0.144799,-0.44097 h -1.087732 -1.087731 v 0.5526 0.5526 l 0.942933,-0.11163 0.942933,-0.11163 z m 2.654609,0.0882 -0.07723,-0.35278 -0.892912,-0.11163 -0.892912,-0.11163 v 0.31742 0.31741 l 0.250066,0.25007 0.250066,0.25006 0.720073,-0.10307 0.720073,-0.10308 z m 3.075838,0 v -0.52917 h -0.881945 -0.881944 v 0.29398 0.29398 l 0.235185,0.23519 0.235185,0.23518 h 0.646759 0.64676 z m 3.174999,0 v -0.52917 H 50.15014 49.091807 v 0.52917 0.52916 h 1.058333 1.058333 z m -6.349999,-2.64584 v -0.70555 h -2.293056 -2.293055 v 0.70555 0.70556 h 2.293055 2.293056 z m 6.349999,0 v -0.70555 h -2.469444 -2.469444 v 0.70555 0.70556 h 2.469444 2.469444 z m -15.522221,13.40556 v -0.35278 h 0.705555 0.705556 v 0.35278 0.35278 h -0.705556 -0.705555 z m 24.521611,-5.28591 -0.221585,-0.35854 0.218029,-0.35277 0.218027,-0.35278 h 0.33196 0.331957 v 0.50834 0.50835 l -0.328401,0.20296 -0.328401,0.20297 z m -21.98984,-16.78134 0.114062,-0.5478 0.347946,-0.0696 0.347947,-0.0696 0.118893,0.61736 0.118893,0.61736 h -0.580901 -0.580901 z"
           id="path3166" /><path
           style="fill:#f2b28f;stroke-width:0.352778"
           d="m 43.270974,214.24121 -1.058334,-0.16288 -1.940277,-0.54397 -1.940278,-0.54397 -2.410418,-1.26211 -2.410418,-1.2621 -2.00506,-1.97418 -2.005061,-1.97416 -0.964382,-1.6456 -0.964383,-1.6456 v -0.66466 -0.66467 l 0.677815,-1.40292 0.677814,-1.40291 0.89917,-0.48122 0.899171,-0.48122 1.157043,0.0812 1.157043,0.0813 0.592162,0.0483 0.592163,0.0483 -0.04975,0.18898 -0.04975,0.18899 0.442538,0.79824 0.442539,0.79823 0.683504,-0.3658 0.683505,-0.3658 0.836317,0.2099 0.836317,0.2099 0.229255,-2.19339 0.229255,-2.19339 v -1.85078 -1.85079 l -0.529167,-0.20306 -0.529166,-0.20306 v -0.71663 -0.71662 h 0.529166 0.529167 v -0.52917 -0.52917 h -0.881945 -0.881944 v -0.35277 -0.35278 h -1.234722 -1.234722 v -0.70556 -0.70555 h 1.5875 1.5875 v 0.35277 0.35278 h 0.508346 0.508347 l 0.242405,-0.39222 0.242405,-0.39222 -0.423625,-0.26181 -0.423625,-0.26182 0.232028,-1.23681 0.232027,-1.23681 -1.624276,-0.409 -1.624276,-0.409 -1.316128,-1.32684 -1.316128,-1.32685 -0.5003,-0.95889 -0.5003,-0.95889 0.195755,-0.19575 0.195756,-0.19576 2.950377,0.63258 2.950378,0.63257 8.113889,-0.0228 8.113889,-0.0228 2.40314,-0.59094 2.403141,-0.59094 h 0.330887 0.330887 v 0.45967 0.45967 l -1.075491,1.46244 -1.075491,1.46244 -1.12937,0.69411 -1.12937,0.6941 -1.322917,0.24527 -1.322916,0.24527 v 0.66629 0.6663 h 0.352777 0.352778 v 0.70555 0.70556 h -0.352778 -0.352777 v 0.52917 0.52916 h 0.508346 0.508347 l 0.218029,-0.35278 0.218028,-0.35277 h 1.390292 1.390291 v 0.70555 0.70556 h -1.037514 -1.037513 l -0.218029,0.35278 -0.218028,0.35277 h -0.861125 -0.861124 v 0.52917 0.52917 h 0.529166 0.529167 v 0.91968 0.91969 l -0.580266,-0.22267 -0.580266,-0.22267 0.263314,3.8009 0.263314,3.8009 0.228757,2.64583 0.228758,2.64584 1.290632,0.10756 1.290632,0.10757 0.239329,-1.08966 0.239329,-1.08966 0.83289,-0.54573 0.83289,-0.54573 1.054775,0.11064 1.054776,0.11064 0.913546,-0.85823 0.913546,-0.85824 h 1.230119 1.230114 l 0.563905,0.56391 0.563905,0.5639 -1.186304,2.23501 -1.186307,2.23501 -2.170433,2.29872 -2.170432,2.29873 -1.944747,1.17143 -1.944747,1.17143 -2.535258,0.85774 -2.535259,0.85774 -2.874561,0.14535 -2.874562,0.14535 z m 7.296568,-12.56462 0.06462,-2.91042 -0.04284,-0.79375 -0.04284,-0.79375 h 0.330999 0.330998 v -2.60469 -2.60468 l -0.705555,-0.18451 -0.705556,-0.18451 v -0.59522 -0.59522 l 0.705556,-0.18451 0.705555,-0.1845 v -0.43395 -0.43394 l -5.468055,-0.02 -5.468055,-0.02 v 0.49508 0.49509 h 0.529166 0.529167 v 0.70555 0.70556 h -0.57868 -0.578681 l 0.236532,5.02708 0.236532,5.02708 0.205815,1.49931 0.205816,1.4993 h 4.722444 4.722444 z m -8.264515,-14.64028 0.144799,-0.44097 h -1.087732 -1.087731 v 0.5526 0.5526 l 0.942933,-0.11163 0.942933,-0.11163 z m 2.654609,0.0882 -0.07723,-0.35278 -0.892912,-0.11163 -0.892912,-0.11163 v 0.31742 0.31741 l 0.250066,0.25007 0.250066,0.25006 0.720073,-0.10307 0.720073,-0.10308 z m 3.075838,0 v -0.52917 h -0.881945 -0.881944 v 0.29398 0.29398 l 0.235185,0.23519 0.235185,0.23518 h 0.646759 0.64676 z m 3.174999,0 v -0.52917 H 50.15014 49.091807 v 0.52917 0.52916 h 1.058333 1.058333 z m -6.349999,-2.64584 v -0.70555 h -2.293056 -2.293055 v 0.70555 0.70556 h 2.293055 2.293056 z m 6.349999,0 v -0.70555 h -2.469444 -2.469444 v 0.70555 0.70556 h 2.469444 2.469444 z m -24.156338,13.7728 -0.190045,-0.3075 0.926325,-1.10088 0.926324,-1.10087 1.049096,-0.54251 1.049096,-0.54251 0.191391,0.19139 0.191392,0.1914 -0.576953,0.88054 -0.576954,0.88054 v 0.5624 0.5624 l -0.368231,-0.22758 -0.368231,-0.22758 -0.425519,0.32838 -0.425518,0.32839 -0.606064,0.21574 -0.606063,0.21575 z m 8.810506,-0.36724 0.218028,-0.35278 h 0.508347 0.508347 v 0.35278 0.35278 h -0.726376 -0.726375 z m -4.374558,-1.35457 -0.03516,-1.17817 0.79375,-0.66674 0.79375,-0.66674 -0.529167,-0.34864 -0.529167,-0.34864 -0.114147,0.33113 -0.114148,0.33114 -0.415019,-0.36899 -0.415019,-0.369 -1.383686,-0.7672 -1.383685,-0.76719 -0.163279,-0.49576 -0.16328,-0.49575 1.811353,0.21452 1.811352,0.21453 1.234918,0.58601 1.234918,0.58601 v 0.44617 0.44617 l 1.058333,0.43837 1.058334,0.43838 v 0.76859 0.76859 l 0.417453,0.41745 0.417454,0.41746 -0.214479,0.21448 -0.21448,0.21448 -0.732141,-0.23238 -0.732141,-0.23237 -0.02236,-0.59359 -0.02236,-0.59359 -0.319049,0.79375 -0.319048,0.79375 H 33.42539 32.552898 l -0.270338,-0.43741 -0.270338,-0.43742 -0.244484,0.87839 -0.244484,0.87839 z m 28.71978,-3.93134 -0.221585,-0.35854 0.218029,-0.35277 0.218027,-0.35278 h 0.33196 0.331957 v 0.50834 0.50835 l -0.328401,0.20296 -0.328401,0.20297 z m -21.98984,-16.78134 0.114062,-0.5478 0.347946,-0.0696 0.347947,-0.0696 0.118893,0.61736 0.118893,0.61736 h -0.580901 -0.580901 z"
           id="path3164" /><path
           style="fill:#eea778;stroke-width:0.352778"
           d="m 43.258329,214.1004 -2.129312,-0.28187 -2.044907,-0.71873 -2.044906,-0.71872 -1.646615,-0.96192 -1.646615,-0.96192 -2.022501,-1.92479 -2.022501,-1.92479 -1.064304,-1.65857 -1.064305,-1.65858 v -0.6966 -0.6966 l 0.677815,-1.40292 0.677814,-1.40291 0.89917,-0.48122 0.899171,-0.48122 1.157043,0.0812 1.157043,0.0813 0.592162,0.0483 0.592163,0.0483 -0.04975,0.18898 -0.04975,0.18899 0.434157,0.78258 0.434156,0.78257 0.837654,-0.31848 0.837653,-0.31847 0.690311,0.18052 0.690312,0.18052 0.229494,-2.19567 0.229493,-2.19568 v -2.06492 -2.06491 h -0.529167 -0.529166 v -0.52917 -0.52917 h 0.529166 0.529167 v -0.70555 -0.70556 h -0.881945 -0.881944 v -0.33042 -0.33043 l -1.146528,-0.11055 -1.146527,-0.11054 v -0.52917 -0.52916 l 1.499305,-0.10848 1.499306,-0.10848 v 0.37306 0.37306 h 0.705555 0.705556 v -0.49977 -0.49976 l -0.43103,-0.14368 -0.431029,-0.14368 0.381441,-1.24285 0.381441,-1.24285 -1.742324,-0.44654 -1.742325,-0.44654 -1.20053,-1.20053 -1.20053,-1.20054 -0.561347,-1.08552 -0.561348,-1.08553 0.162441,-0.16244 0.16244,-0.16244 2.950377,0.63071 2.950378,0.63071 7.9375,-0.004 7.9375,-0.004 2.762439,-0.63847 2.76244,-0.63848 0.207305,0.20731 0.207305,0.2073 -0.500301,0.95889 -0.5003,0.95889 -1.276625,1.28734 -1.276625,1.28735 -1.81018,0.43425 -1.81018,0.43426 v 0.67037 0.67037 h 0.352777 0.352778 v 0.70555 0.70556 h -0.352778 -0.352777 v 0.52917 0.52916 h 0.705555 0.705556 v -0.35278 -0.35277 h 1.411111 1.411111 v 0.70555 0.70556 h -1.234722 -1.234723 v 0.35278 0.35277 h -0.881944 -0.881944 v 0.70556 0.70555 h 0.529166 0.529167 v 0.52917 0.52917 h -0.57983 -0.57983 l 0.249323,3.61597 0.249324,3.61597 0.242312,2.88172 0.242312,2.88171 0.176389,0.16328 0.176389,0.16328 1.086977,-0.16588 1.086977,-0.16587 0.435077,-1.20319 0.435078,-1.20319 0.723319,-0.3871 0.72332,-0.38711 1.079509,0.15844 1.079508,0.15843 0.774538,-0.90045 0.774541,-0.90046 h 1.285477 1.285479 l 0.563905,0.56391 0.563905,0.5639 -1.186304,2.24068 -1.186307,2.24068 -2.469444,2.51242 -2.469444,2.51243 -2.490514,1.25056 -2.490514,1.25057 -1.919208,0.52952 -1.919208,0.52953 -2.116667,0.16415 -2.116667,0.16415 z m 7.309213,-12.42381 0.06462,-2.91042 -0.04284,-0.79375 -0.04284,-0.79375 h 0.330999 0.330998 v -2.82222 -2.82222 H 50.679307 50.15014 v -0.49143 -0.49142 l 0.529167,-0.20306 0.529166,-0.20306 v -0.5492 -0.54919 l -5.527241,0.0971 -5.527241,0.0971 -0.154371,0.46428 -0.15437,0.46428 0.742723,0.19423 0.742723,0.19422 v 0.44688 0.44688 l -0.705556,0.1845 -0.705555,0.18451 v 2.48165 2.48165 l 0.352778,0.21803 0.352777,0.21803 0.0039,2.36043 0.0039,2.36043 0.218665,1.32292 0.218665,1.32291 h 4.716341 4.716342 z m -8.178513,-14.55208 v -0.52917 h -1.058333 -1.058333 v 0.52917 0.52916 h 1.058333 1.058333 z m 2.822222,0 v -0.52917 h -1.058333 -1.058333 v 0.52917 0.52916 h 1.058333 1.058333 z m 3.175,0 v -0.52917 h -1.058333 -1.058333 v 0.52917 0.52916 h 1.058333 1.058333 z m 2.822222,0 v -0.52917 H 50.15014 49.091807 v 0.52917 0.52916 h 1.058333 1.058333 z m -5.997222,-2.64584 v -0.70555 h -2.469444 -2.469444 v 0.70555 0.70556 h 2.469444 2.469444 z m 5.997222,0 v -0.70555 h -2.469444 -2.469444 v 0.70555 0.70556 h 2.469444 2.469444 z m -24.156338,13.7728 -0.190045,-0.3075 0.926325,-1.10088 0.926324,-1.10087 1.049096,-0.54251 1.049096,-0.54251 0.191391,0.19139 0.191392,0.1914 -0.576953,0.88054 -0.576954,0.88054 v 0.5624 0.5624 l -0.368231,-0.22758 -0.368231,-0.22758 -0.425519,0.32838 -0.425518,0.32839 -0.606064,0.21574 -0.606063,0.21575 z m 8.810506,-0.36724 0.218028,-0.35278 h 0.508347 0.508347 v 0.35278 0.35278 h -0.726376 -0.726375 z m -4.374558,-1.35457 -0.03516,-1.17817 0.79375,-0.66674 0.79375,-0.66674 -0.529167,-0.34864 -0.529167,-0.34864 -0.114147,0.33113 -0.114148,0.33114 -0.415019,-0.36899 -0.415019,-0.369 -1.383686,-0.7672 -1.383685,-0.76719 -0.163279,-0.49576 -0.16328,-0.49575 1.811353,0.21452 1.811352,0.21453 1.234918,0.58601 1.234918,0.58601 v 0.44617 0.44617 l 1.058333,0.43837 1.058334,0.43838 v 0.76859 0.76859 l 0.417453,0.41745 0.417454,0.41746 -0.214479,0.21448 -0.21448,0.21448 -0.732141,-0.23238 -0.732141,-0.23237 -0.02236,-0.59359 -0.02236,-0.59359 -0.319049,0.79375 -0.319048,0.79375 H 33.42539 32.552898 l -0.270338,-0.43741 -0.270338,-0.43742 -0.244484,0.87839 -0.244484,0.87839 z m 28.607452,-4.31634 0.12641,-0.37923 h 0.335139 0.335139 l 0.126411,0.37923 0.126414,0.37924 h -0.587964 -0.587963 z m -21.939839,-16.3777 v -0.52917 h 0.529167 0.529166 v 0.52917 0.52916 h -0.529166 -0.529167 z"
           id="path3162" /><path
           style="fill:#aeb0a6;stroke-width:0.352778"
           d="m 40.448752,213.45244 -2.116667,-0.60929 -2.293055,-1.20824 -2.293056,-1.20823 -2.38125,-2.35418 -2.38125,-2.35417 v -0.37167 -0.37167 l 2.028472,-0.12729 2.028473,-0.12729 -2.368838,-0.0667 -2.368838,-0.0667 -0.36519,-0.68236 -0.36519,-0.68236 v -0.66249 -0.66248 l 0.677815,-1.40292 0.677814,-1.40291 0.89917,-0.48122 0.899171,-0.48122 1.157043,0.0812 1.157043,0.0813 0.592162,0.0483 0.592163,0.0483 -0.04975,0.18898 -0.04975,0.18899 0.434157,0.78258 0.434156,0.78257 0.837654,-0.31848 0.837653,-0.31847 0.743416,0.19441 0.743416,0.1944 v -1.43143 -1.43144 l 0.352778,-0.21803 0.352778,-0.21803 v -2.48165 -2.48165 l -0.705556,-0.18451 -0.705555,-0.1845 v -0.44688 -0.44688 l 0.705555,-0.1845 0.705556,-0.18451 v -0.56219 -0.5622 h -1.058334 -1.058333 v -0.33042 -0.33043 l -1.11936,-0.11055 -1.11936,-0.11054 -0.130713,-0.39883 -0.130714,-0.39883 1.296023,-0.24314 1.296024,-0.24313 0.377383,0.37738 0.377384,0.37738 h 0.635 0.635 v -0.52916 -0.52917 h -0.352778 -0.352778 v -0.70556 -0.70555 h 0.352778 0.352778 v -0.67753 -0.67752 l -1.146528,-0.24747 -1.146528,-0.24747 -1.279878,-0.64772 -1.279877,-0.64772 -1.101372,-1.66277 -1.101373,-1.66277 v -0.29229 -0.2923 l 0.264584,2.9e-4 0.264583,2.9e-4 2.645833,0.59615 2.645833,0.59615 8.290278,-0.003 8.290278,-0.003 2.40314,-0.59311 2.403141,-0.59313 h 0.330887 0.330887 v 0.36034 0.36035 l -0.942447,1.42413 -0.942447,1.42413 -1.438803,0.82677 -1.438803,0.82678 -1.146528,0.239 -1.146527,0.23901 v 0.67752 0.67753 h 0.352777 0.352778 v 0.70555 0.70556 h -0.352778 -0.352777 v 0.52917 0.52916 h 0.705555 0.705556 v -0.35278 -0.35277 h 1.411111 1.411111 v 0.49142 0.49142 l -0.55802,0.21414 -0.558019,0.21413 h -0.676703 -0.676703 v 0.35278 0.35277 h -0.881944 -0.881944 v 0.70556 0.70555 h 0.529166 0.529167 v 0.52917 0.52917 h -0.576332 -0.576332 l 0.227467,3.43958 0.227467,3.43958 0.188674,2.46945 0.188674,2.46944 0.166912,0.79375 0.166912,0.79375 1.668973,-0.005 1.668974,-0.005 -0.516253,-0.32653 -0.516253,-0.32652 0.594323,-1.24631 0.594323,-1.24631 0.897729,-0.22532 0.89773,-0.22531 0.7369,0.1927 0.736902,0.19271 0.799222,-0.92915 0.799221,-0.92916 h 1.285477 1.285479 l 0.554412,0.55442 0.554415,0.55441 -0.785834,1.54461 -0.78583,1.54462 -1.544126,2.01028 -1.544129,2.01027 -1.492687,1.21028 -1.492688,1.21028 -1.940278,1.07104 -1.940277,1.07105 -2.41841,0.73548 -2.41841,0.73548 -3.402423,-0.0251 -3.402424,-0.0251 z m -3.615972,-8.76786 -1.146528,-0.14228 -1.146528,0.14228 -1.146528,0.14229 h 2.293056 2.293055 z m 13.734762,-2.8316 0.06462,-3.08681 -0.04284,-0.79375 -0.04284,-0.79375 h 0.330999 0.330998 v -2.82222 -2.82222 H 50.679307 50.15014 v -0.52917 -0.52917 h 0.529167 0.529166 v -0.70555 -0.70556 h -5.644444 -5.644444 v 0.5622 0.56219 l 0.705555,0.18451 0.705556,0.1845 v 0.48803 0.48802 H 40.62514 39.919585 v 2.82222 2.82222 h 0.352778 0.352777 v 2.24382 2.24382 l 0.22434,1.63674 0.22434,1.63673 h 4.714549 4.714549 z m -8.178513,-14.72847 v -0.52917 h -1.234722 -1.234722 v 0.52917 0.52916 h 1.234722 1.234722 z m 2.822222,0 v -0.52917 h -1.058333 -1.058333 v 0.52917 0.52916 h 1.058333 1.058333 z m 3.175,0 v -0.52917 h -1.058333 -1.058333 v 0.52917 0.52916 h 1.058333 1.058333 z m 2.822222,0 v -0.52917 H 50.15014 49.091807 v 0.52917 0.52916 h 1.058333 1.058333 z m -5.997222,-2.64584 v -0.70555 h -2.645833 -2.645833 v 0.70555 0.70556 h 2.645833 2.645833 z m 5.997222,0 v -0.70555 h -2.469444 -2.469444 v 0.70555 0.70556 h 2.469444 2.469444 z m -24.156338,13.7728 -0.190045,-0.3075 0.926325,-1.10088 0.926324,-1.10087 1.049096,-0.54251 1.049096,-0.54251 0.191391,0.19139 0.191392,0.1914 -0.576953,0.88054 -0.576954,0.88054 v 0.5624 0.5624 l -0.368231,-0.22758 -0.368231,-0.22758 -0.425519,0.32838 -0.425518,0.32839 -0.606064,0.21574 -0.606063,0.21575 z m 8.810506,-0.36724 0.218028,-0.35278 h 0.508347 0.508347 v 0.35278 0.35278 h -0.726376 -0.726375 z m -4.374558,-1.35457 -0.03516,-1.17817 0.79375,-0.66674 0.79375,-0.66674 -0.529167,-0.34864 -0.529167,-0.34864 -0.114147,0.33113 -0.114148,0.33114 -0.415019,-0.36899 -0.415019,-0.369 -1.383686,-0.7672 -1.383685,-0.76719 -0.163279,-0.49576 -0.16328,-0.49575 1.811353,0.21452 1.811352,0.21453 1.234918,0.58601 1.234918,0.58601 v 0.44617 0.44617 l 1.058333,0.43837 1.058334,0.43838 v 0.76859 0.76859 l 0.417453,0.41745 0.417454,0.41746 -0.214479,0.21448 -0.21448,0.21448 -0.732141,-0.23238 -0.732141,-0.23237 -0.02236,-0.59359 -0.02236,-0.59359 -0.319049,0.79375 -0.319048,0.79375 H 33.42539 32.552898 l -0.270338,-0.43741 -0.270338,-0.43742 -0.244484,0.87839 -0.244484,0.87839 z m 28.607452,-4.31634 0.12641,-0.37923 h 0.335139 0.335139 l 0.126411,0.37923 0.126414,0.37924 h -0.587964 -0.587963 z m -21.714245,-16.09331 -0.225594,-0.2256 v -0.29398 -0.29398 h 0.529167 0.529166 v 0.33196 0.33196 l -0.303572,0.18761 -0.303572,0.18762 z"
           id="path3160" /><path
           style="fill:#d2aa87;stroke-width:0.352778"
           d="m 40.448752,213.45244 -2.116667,-0.60929 -2.293055,-1.20824 -2.293056,-1.20823 -2.38125,-2.35418 -2.38125,-2.35417 v -0.38928 -0.38927 l 2.028472,-0.0391 2.028473,-0.0391 2.381249,0.0708 2.38125,0.0708 v -0.36067 -0.36067 l -0.649757,-0.20622 -0.649758,-0.20623 -0.722624,-0.78768 -0.722624,-0.78769 0.177699,-1.14653 0.1777,-1.14653 0.577321,-0.0549 0.577321,-0.0549 0.79375,0.0682 0.79375,0.0682 v -1.40364 -1.40365 l 0.352778,-0.21803 0.352778,-0.21803 v -2.48165 -2.48165 l -0.705556,-0.18451 -0.705555,-0.1845 v -0.44688 -0.44688 l 0.705555,-0.1845 0.705556,-0.18451 v -0.56219 -0.5622 h -1.058334 -1.058333 v -0.33042 -0.33043 l -1.11936,-0.11055 -1.11936,-0.11054 -0.130713,-0.39883 -0.130714,-0.39883 1.296023,-0.24314 1.296024,-0.24313 0.377383,0.37738 0.377384,0.37738 h 0.635 0.635 v -0.52916 -0.52917 h -0.352778 -0.352778 v -0.70556 -0.70555 h 0.352778 0.352778 v -0.67753 -0.67752 l -1.146528,-0.24747 -1.146528,-0.24747 -1.279878,-0.64772 -1.279877,-0.64772 -1.101372,-1.66277 -1.101373,-1.66277 v -0.29229 -0.2923 h 0.330887 0.330887 l 2.403141,0.60347 2.403141,0.60347 8.466666,-0.0136 8.466667,-0.0136 2.580702,-0.5899 2.580702,-0.58991 h 0.153325 0.153326 v 0.36034 0.36035 l -0.942447,1.42413 -0.942447,1.42413 -1.438803,0.82677 -1.438803,0.82678 -1.146528,0.239 -1.146527,0.23901 v 0.67752 0.67753 h 0.352777 0.352778 v 0.70555 0.70556 h -0.352778 -0.352777 v 0.52917 0.52916 h 0.705555 0.705556 v -0.35278 -0.35277 h 1.411111 1.411111 v 0.49142 0.49142 l -0.55802,0.21414 -0.558019,0.21413 h -0.676703 -0.676703 v 0.35278 0.35277 h -0.881944 -0.881944 v 0.70556 0.70555 h 0.529166 0.529167 v 0.52917 0.52917 h -0.582017 -0.582017 l 0.271885,3.96875 0.271886,3.96875 0.221937,2.64583 0.221937,2.64583 1.763889,0.0961 1.763889,0.0961 -0.516253,-0.33982 -0.516253,-0.33982 0.594323,-1.2463 0.594323,-1.24631 0.897729,-0.22532 0.89773,-0.22531 0.7369,0.1927 0.736902,0.1927 0.799222,-0.92915 0.799221,-0.92915 h 1.285477 1.285479 l 0.554412,0.55441 0.554415,0.55442 -0.785834,1.54461 -0.78583,1.54462 -1.544126,2.01027 -1.544129,2.01028 -1.492687,1.21028 -1.492688,1.21028 -1.940278,1.07104 -1.940277,1.07105 -2.41841,0.73548 -2.41841,0.73548 -3.402423,-0.0251 -3.402424,-0.0251 z m 10.190977,-11.77585 0.234676,-3.2632 0.2142,-3.43958 0.214199,-3.43958 H 50.726472 50.15014 v -0.52917 -0.52917 h 0.529167 0.529166 v -0.70555 -0.70556 h -5.644444 -5.644444 v 0.5622 0.56219 l 0.705555,0.18451 0.705556,0.1845 v 0.48803 0.48802 H 40.62514 39.919585 v 2.82222 2.82222 h 0.352778 0.352777 l 0.0048,3.08681 0.0048,3.0868 0.212717,0.79375 0.212717,0.79375 h 4.672423 4.672422 l 0.234676,-3.26319 z m -8.2507,-14.55208 v -0.52917 h -1.234722 -1.234722 v 0.52917 0.52916 h 1.234722 1.234722 z m 2.822222,0 v -0.52917 h -1.058333 -1.058333 v 0.52917 0.52916 h 1.058333 1.058333 z m 3.175,0 v -0.52917 h -1.058333 -1.058333 v 0.52917 0.52916 h 1.058333 1.058333 z m 2.822222,0 v -0.52917 H 50.15014 49.091807 v 0.52917 0.52916 h 1.058333 1.058333 z m -5.997222,-2.64584 v -0.70555 h -2.645833 -2.645833 v 0.70555 0.70556 h 2.645833 2.645833 z m 5.997222,0 v -0.70555 h -2.469444 -2.469444 v 0.70555 0.70556 h 2.469444 2.469444 z m -23.628726,12.76546 0.734063,-0.99287 1.064812,-0.629 1.064811,-0.629 0.200835,0.20084 0.200836,0.20083 -0.570005,1.15645 -0.570004,1.15646 -0.008,-0.30516 -0.008,-0.30515 -0.869533,0.56974 -0.869532,0.56974 h -0.55214 -0.55214 z m 8.282894,0.6401 0.218028,-0.35278 h 0.508347 0.508347 v 0.35278 0.35278 h -0.726376 -0.726375 z m -3.880556,-1.76389 -0.218028,-0.35278 0.228615,-0.36991 0.228616,-0.36991 0.493875,0.40989 0.493876,0.40988 -0.193324,0.3128 -0.193325,0.31281 h -0.311138 -0.311138 z m -1.411111,-3.20738 -1.058333,-0.32152 -0.876674,-0.68087 -0.876674,-0.68086 0.243016,-0.24302 0.243016,-0.24302 1.610625,0.24153 1.610624,0.24153 -0.204037,0.33014 -0.204036,0.33014 h 0.411341 0.411341 l -0.194314,0.50637 -0.194314,0.50637 0.421154,0.17133 0.421154,0.17133 -0.352778,-0.004 -0.352778,-0.004 -1.058333,-0.32152 z m 29.524561,-0.69964 0.12641,-0.37923 h 0.335139 0.335139 l 0.126411,0.37923 0.126414,0.37924 h -0.587964 -0.587963 z m -21.714245,-16.09331 -0.225594,-0.2256 v -0.29398 -0.29398 h 0.529167 0.529166 v 0.33196 0.33196 l -0.303572,0.18761 -0.303572,0.18762 z"
           id="path3158" /><path
           style="fill:#acaea6;stroke-width:0.352778"
           d="m 40.448752,213.45244 -2.116667,-0.60929 -2.293055,-1.20824 -2.293056,-1.20823 -2.38125,-2.35418 -2.38125,-2.35417 v -0.38928 -0.38927 l 2.028472,-0.0391 2.028473,-0.0391 2.327511,0.0683 2.327511,0.0683 0.22762,-2.41043 0.227619,-2.41044 0.0025,-1.47848 0.0025,-1.47849 0.352778,-0.21803 0.352778,-0.21803 v -2.48165 -2.48165 l -0.705556,-0.18451 -0.705555,-0.1845 v -0.44688 -0.44688 l 0.705555,-0.1845 0.705556,-0.18451 v -0.56219 -0.5622 h -1.058334 -1.058333 v -0.33042 -0.33043 l -1.11936,-0.11055 -1.11936,-0.11054 -0.130713,-0.39883 -0.130714,-0.39883 1.296023,-0.24314 1.296024,-0.24313 0.377383,0.37738 0.377384,0.37738 h 0.635 0.635 v -0.52916 -0.52917 H 38.508458 38.15568 v -0.70556 -0.70555 h 0.352778 0.352778 v -0.67753 -0.67752 l -1.146528,-0.24691 -1.146528,-0.24691 -0.958849,-0.4899 -0.958849,-0.4899 -0.916324,-0.96691 -0.916325,-0.96692 -0.504783,-0.95012 -0.504782,-0.95012 0.321015,-0.1984 0.321016,-0.1984 2.411718,0.60546 2.411719,0.60546 8.466666,-0.0139 8.466667,-0.0139 2.469444,-0.56738 2.469444,-0.56738 0.268597,0.26403 0.268598,0.26403 -1.046761,1.58032 -1.046762,1.58032 -1.338502,0.74093 -1.338503,0.74092 -1.146528,0.24277 -1.146527,0.24278 v 0.67752 0.67753 h 0.352777 0.352778 v 0.70555 0.70556 h -0.352778 -0.352777 v 0.52917 0.52916 h 0.705555 0.705556 v -0.35278 -0.35277 h 1.411111 1.411111 v 0.49142 0.49142 l -0.55802,0.21414 -0.558019,0.21413 H 55.06016 54.383457 v 0.35278 0.35277 h -0.881944 -0.881944 v 0.70556 0.70555 h 0.529166 0.529167 v 0.52917 0.52917 h -0.582017 -0.582017 l 0.271885,3.96875 0.271886,3.96875 0.221937,2.64583 0.221937,2.64583 5.064668,-0.13523 5.064668,-0.13523 -0.449562,0.84002 -0.449559,0.84001 -1.969272,1.96528 -1.969277,1.96528 -2.293055,1.26749 -2.293055,1.26748 -2.41841,0.73676 -2.41841,0.73675 -3.402423,-0.0251 -3.402424,-0.0251 z m 10.190977,-11.77585 0.234676,-3.2632 0.2142,-3.43958 0.214199,-3.43958 H 50.726472 50.15014 v -0.52917 -0.52917 h 0.529167 0.529166 v -0.70555 -0.70556 h -5.644444 -5.644444 v 0.5622 0.56219 l 0.705555,0.18451 0.705556,0.1845 v 0.48803 0.48802 H 40.62514 39.919585 v 2.82222 2.82222 h 0.352778 0.352777 l 0.0048,3.08681 0.0048,3.0868 0.212717,0.79375 0.212717,0.79375 h 4.672423 4.672422 l 0.234676,-3.26319 z m -8.2507,-14.55208 v -0.52917 h -1.234722 -1.234722 v 0.52917 0.52916 h 1.234722 1.234722 z m 2.822222,0 v -0.52917 h -1.058333 -1.058333 v 0.52917 0.52916 h 1.058333 1.058333 z m 3.175,0 v -0.52917 h -1.058333 -1.058333 v 0.52917 0.52916 h 1.058333 1.058333 z m 2.822222,0 v -0.52917 H 50.15014 49.091807 v 0.52917 0.52916 h 1.058333 1.058333 z m -5.997222,-2.64584 v -0.70555 h -2.645833 -2.645833 v 0.70555 0.70556 h 2.645833 2.645833 z m 5.997222,0 v -0.70555 h -2.469444 -2.469444 v 0.70555 0.70556 h 2.469444 2.469444 z m -23.628726,12.76546 0.734063,-0.99287 1.064812,-0.629 1.064811,-0.629 0.200835,0.20084 0.200836,0.20083 -0.570005,1.15645 -0.570004,1.15646 -0.008,-0.30516 -0.008,-0.30515 -0.869533,0.56974 -0.869532,0.56974 h -0.55214 -0.55214 z m 8.282894,0.6401 0.218028,-0.35278 h 0.508347 0.508347 v 0.35278 0.35278 h -0.726376 -0.726375 z m -3.880556,-1.76389 -0.218028,-0.35278 0.228615,-0.36991 0.228616,-0.36991 0.493875,0.40989 0.493876,0.40988 -0.193324,0.3128 -0.193325,0.31281 h -0.311138 -0.311138 z m -1.411111,-3.20738 -1.058333,-0.32152 -0.876674,-0.68087 -0.876674,-0.68086 0.243016,-0.24302 0.243016,-0.24302 1.610625,0.24153 1.610624,0.24153 -0.204037,0.33014 -0.204036,0.33014 h 0.411341 0.411341 l -0.194314,0.50637 -0.194314,0.50637 0.421154,0.17133 0.421154,0.17133 -0.352778,-0.004 -0.352778,-0.004 -1.058333,-0.32152 z m 29.524561,-0.69964 0.12641,-0.37923 h 0.335139 0.335139 l 0.126411,0.37923 0.126414,0.37924 h -0.587964 -0.587963 z m -21.714245,-16.09331 -0.225594,-0.2256 v -0.29398 -0.29398 h 0.529167 0.529166 v 0.33196 0.33196 l -0.303572,0.18761 -0.303572,0.18762 z"
           id="path3156" /><path
           style="fill:#ec9861;stroke-width:0.352778"
           d="m 40.448752,213.45244 -2.116667,-0.60929 -2.293055,-1.20824 -2.293056,-1.20823 -2.38125,-2.35418 -2.38125,-2.35417 v -0.38928 -0.38927 l 2.028472,-0.0391 2.028473,-0.0391 2.327511,0.0683 2.327511,0.0683 0.22762,-2.41043 0.227619,-2.41044 0.0025,-1.47848 0.0025,-1.47849 0.352778,-0.21803 0.352778,-0.21803 v -2.48165 -2.48165 l -0.705556,-0.18451 -0.705555,-0.1845 v -0.44688 -0.44688 l 0.705555,-0.1845 0.705556,-0.18451 v -0.56219 -0.5622 h -1.058334 -1.058333 v -0.33042 -0.33043 l -1.11936,-0.11055 -1.11936,-0.11054 -0.130713,-0.39883 -0.130714,-0.39883 1.296023,-0.24314 1.296024,-0.24313 0.377383,0.37738 0.377384,0.37738 h 0.635 0.635 v -0.52916 -0.52917 H 38.508458 38.15568 v -0.70556 -0.70555 h 0.352778 0.352778 v -0.67753 -0.67752 l -1.146528,-0.24691 -1.146528,-0.24691 -0.958849,-0.4899 -0.958849,-0.4899 -0.916324,-0.96691 -0.916325,-0.96692 -0.504783,-0.95012 -0.504782,-0.95012 0.27134,-0.1677 0.27134,-0.16769 2.285005,0.57749 2.285005,0.57749 h 8.819444 8.819444 l 2.293056,-0.58253 2.293055,-0.58253 0.268597,0.26256 0.268598,0.26257 -1.046761,1.58032 -1.046762,1.58032 -1.338502,0.74092 -1.338503,0.74092 -1.146528,0.24277 -1.146527,0.24278 v 0.67752 0.67753 h 0.352777 0.352778 v 0.70555 0.70556 h -0.352778 -0.352777 v 0.52917 0.52916 h 0.705555 0.705556 v -0.35278 -0.35277 h 1.411111 1.411111 v 0.49142 0.49142 l -0.55802,0.21414 -0.558019,0.21413 H 55.06016 54.383457 v 0.35278 0.35277 h -0.881944 -0.881944 v 0.70556 0.70555 h 0.529166 0.529167 v 0.52917 0.52917 h -0.58338 -0.583381 l 0.270623,4.14514 0.270622,4.14514 0.224564,2.46944 0.224563,2.46944 5.064668,-0.13523 5.064668,-0.13523 -0.449562,0.84002 -0.449559,0.84001 -1.969272,1.96528 -1.969277,1.96528 -2.293055,1.26749 -2.293055,1.26748 -2.41841,0.73676 -2.41841,0.73675 -3.402423,-0.0251 -3.402424,-0.0251 z m 10.351765,-13.38178 0.407956,-4.86912 v -1.83366 -1.83365 H 50.679307 50.15014 v -0.52917 -0.52917 h 0.529167 0.529166 v -0.70555 -0.70556 h -5.644444 -5.644444 v 0.5622 0.56219 l 0.705555,0.18451 0.705556,0.1845 v 0.48803 0.48802 H 40.62514 39.919585 v 2.82222 2.82222 h 0.352778 0.352777 v 3.64537 3.64537 l 0.235186,0.23519 0.235185,0.23518 h 4.648524 4.648525 z m -8.411488,-12.94615 v -0.52917 h -1.234722 -1.234722 v 0.52917 0.52916 h 1.234722 1.234722 z m 2.822222,0 v -0.52917 h -1.058333 -1.058333 v 0.52917 0.52916 h 1.058333 1.058333 z m 3.175,0 v -0.52917 h -1.058333 -1.058333 v 0.52917 0.52916 h 1.058333 1.058333 z m 2.822222,0 v -0.52917 H 50.15014 49.091807 v 0.52917 0.52916 h 1.058333 1.058333 z m -5.997222,-2.64584 v -0.70555 h -2.645833 -2.645833 v 0.70555 0.70556 h 2.645833 2.645833 z m 5.997222,0 v -0.70555 h -2.469444 -2.469444 v 0.70555 0.70556 h 2.469444 2.469444 z m 8.887062,7.73465 0.12641,-0.37923 h 0.335139 0.335139 l 0.126411,0.37923 0.126414,0.37924 h -0.587964 -0.587963 z m -21.714245,-16.09331 -0.225594,-0.2256 v -0.29398 -0.29398 h 0.529167 0.529166 v 0.33196 0.33196 l -0.303572,0.18761 -0.303572,0.18762 z"
           id="path3154" /><path
           style="fill:#eb975e;stroke-width:0.352778"
           d="m 57.240231,210.05506 0.563702,-0.70556 0.24837,-0.43693 0.248371,-0.43693 -0.605361,0.2323 -0.60536,0.2323 0.25508,-0.41273 0.25508,-0.41273 h -5.115278 -5.115277 l -0.218029,-0.35278 -0.218028,-0.35277 h -0.684736 -0.684736 v 0.35277 0.35278 l -0.617361,0.005 -0.617361,0.005 0.529167,0.34198 0.529166,0.34197 -1.234722,-0.0194 -1.234722,-0.0194 0.705556,-0.28126 0.705555,-0.28126 -5.903559,-0.26569 -5.903559,-0.26569 -0.698964,0.18279 -0.698964,0.18278 0.07614,-0.38876 0.07613,-0.38875 -0.434179,-0.0161 -0.434178,-0.0161 -0.596948,-0.85227 -0.596948,-0.85226 0.376202,0.23251 0.376201,0.2325 1.360481,-0.47592 1.36048,-0.47592 0.529166,0.0808 0.529167,0.0808 1.804166,0.2476 1.804166,0.2476 0.21316,-0.55548 0.213161,-0.55549 0.239492,-3.70431 0.239493,-3.70436 h 0.30082 0.30082 v -2.82222 -2.82222 h -0.705556 -0.705555 v -0.48802 -0.48803 l 0.705555,-0.1845 0.705556,-0.18451 v -0.56219 -0.5622 h -1.02059 -1.02059 l -0.203061,-0.52916 -0.20306,-0.52917 h -0.893016 -0.893017 v -0.39834 -0.39835 l 2.116667,0.23947 2.116667,0.23948 v -0.54669 -0.54668 h -0.352778 -0.352778 v -0.70556 -0.70555 h 0.352778 0.352778 v -0.69884 -0.69883 l -0.970139,-0.21179 -0.970139,-0.21178 -0.970112,-0.36689 -0.970113,-0.36689 -1.088696,-1.10374 -1.088695,-1.10374 -0.497537,-0.95012 -0.497537,-0.95012 0.27134,-0.1677 0.27134,-0.16769 2.285005,0.57749 2.285005,0.57749 h 8.819444 8.819444 l 2.293056,-0.58253 2.293055,-0.58253 0.268597,0.26256 0.268598,0.26257 -1.06354,1.60565 -1.063539,1.60565 -1.498114,0.73944 -1.498113,0.73944 -0.998796,0.20481 -0.998797,0.2048 0.236055,1.3972 0.236055,1.3972 h -0.383786 -0.383786 v 0.53899 0.53899 l 2.293055,-0.23493 2.293056,-0.23493 v 0.4015 0.40149 h -1.069405 -1.069406 l -0.20306,0.52917 -0.20306,0.52916 h -0.844201 -0.844201 v 0.70556 0.70555 h 0.529166 0.529167 v 0.52917 0.52917 h -0.529167 -0.529166 l -0.0029,1.85208 -0.0029,1.85208 0.388536,4.40973 0.388535,4.40972 0.23916,0.47996 0.239161,0.47996 4.738056,-0.0572 4.738056,-0.0572 -0.667318,0.81197 -0.667314,0.81196 -1.608706,1.49606 -1.608705,1.49604 -0.325,0.003 -0.325,0.003 -0.733333,0.61737 -0.733334,0.61736 0.563702,-0.70556 z m -7.349823,-2.54139 -0.7889,-0.15224 -0.974989,0.14743 -0.97499,0.14743 1.763889,0.005 1.763889,0.005 -0.788899,-0.15225 z m 4.056206,0.006 -0.613248,-0.16055 -0.797863,0.15343 -0.797863,0.15342 1.411111,0.007 1.411111,0.007 -0.613248,-0.16054 z m -3.8857,-2.31527 0.349944,-0.44098 0.399841,-4.7625 0.39984,-4.7625 -10e-4,-1.85208 -10e-4,-1.85208 H 50.679307 50.15014 v -0.52917 -0.52917 h 0.529167 0.529166 v -0.70555 -0.70556 h -5.644444 -5.644444 v 0.70556 0.70555 h 0.705555 0.705556 v 0.52917 0.52917 H 40.62514 39.919585 v 2.82222 2.82222 h 0.352778 0.352777 l 0.0054,3.61597 0.0054,3.61598 0.298396,0.47073 0.298396,0.47074 3.375308,-0.11362 3.375309,-0.11362 0.260245,0.26024 0.260247,0.26025 h 0.603563 0.603564 z m -7.671885,-18.07986 v -0.52917 h -1.234722 -1.234722 v 0.52917 0.52916 h 1.234722 1.234722 z m 2.822222,0 v -0.52917 h -1.058333 -1.058333 v 0.52917 0.52916 h 1.058333 1.058333 z m 3.175,0 v -0.52917 h -1.058333 -1.058333 v 0.52917 0.52916 h 1.058333 1.058333 z m 2.822222,0 v -0.52917 H 50.15014 49.091807 v 0.52917 0.52916 h 1.058333 1.058333 z m -5.997222,-2.64584 v -0.70555 h -2.645833 -2.645833 v 0.70555 0.70556 h 2.645833 2.645833 z m 5.997222,0 v -0.70555 h -2.469444 -2.469444 v 0.70555 0.70556 h 2.469444 2.469444 z m 8.887062,7.73465 0.12641,-0.37923 h 0.335139 0.335139 l 0.126411,0.37923 0.126414,0.37924 h -0.587964 -0.587963 z"
           id="path3152" /><path
           style="fill:#dc8c5c;stroke-width:0.352778"
           d="m 35.169147,207.03029 -4.574049,-0.27415 -0.276645,0.17097 -0.276646,0.17098 v -0.3736 -0.3736 h 0.861125 0.861125 l 0.23196,-0.37532 0.231961,-0.37532 2.346498,0.0493 2.346498,0.0493 0.410022,-0.0268 0.410023,-0.0268 0.252666,-4.23334 0.252667,-4.23333 h 0.30745 0.30745 v -2.82222 -2.82222 h -0.529167 -0.529167 v -0.52917 -0.52917 h 0.529167 0.529167 v -0.70555 -0.70556 h -1.02059 -1.02059 l -0.203061,-0.52916 -0.20306,-0.52917 h -0.893016 -0.893017 v -0.39834 -0.39835 l 2.116667,0.23947 2.116667,0.23948 v -0.54669 -0.54668 h -0.352778 -0.352778 v -0.70556 -0.70555 h 0.352778 0.352778 v -0.69884 -0.69883 l -0.970139,-0.21179 -0.970139,-0.21178 -0.970112,-0.36689 -0.970113,-0.36689 -1.088696,-1.10374 -1.088695,-1.10374 -0.497537,-0.95012 -0.497537,-0.95012 0.27134,-0.1677 0.27134,-0.16769 2.285005,0.57749 2.285005,0.57749 h 8.819444 8.819444 l 2.293056,-0.58253 2.293055,-0.58253 0.268597,0.26256 0.268598,0.26257 -1.06354,1.60565 -1.063539,1.60565 -1.498114,0.73944 -1.498113,0.73944 -0.931227,0.18785 -0.931227,0.18785 -0.23549,0.61367 -0.235489,0.61368 0.372966,0.12432 0.372967,0.12432 v 0.67616 0.67616 h -0.352777 -0.352778 v 0.53899 0.53899 l 2.293055,-0.23493 2.293056,-0.23493 v 0.4015 0.40149 H 55.83778 54.822643 l -0.43917,0.52917 -0.439169,0.52916 h -0.66236 -0.662359 v 0.70556 0.70555 h 0.529166 0.529167 v 0.52917 0.52917 h -0.529167 -0.529166 l -4.94e-4,2.02847 -4.94e-4,2.02847 0.375983,3.88056 0.375983,3.88055 0.169678,1.14653 0.169678,1.14653 h 1.550695 1.550695 l 0.218028,0.35278 0.218029,0.35277 1.654875,0.0107 1.654874,0.0107 -0.705556,0.41475 -0.705555,0.41476 -5.502854,0.14447 -5.502854,0.14448 -0.218713,-0.56996 -0.218743,-0.56995 h 1.004462 1.004462 l 0.372445,-0.97014 0.372445,-0.97013 0.37591,-4.50458 0.375909,-4.50458 v -1.93362 -1.93361 H 50.679307 50.15014 v -0.52917 -0.52917 h 0.529167 0.529166 v -0.70555 -0.70556 h -5.644444 -5.644444 v 0.70556 0.70555 h 0.705555 0.705556 v 0.52917 0.52917 H 40.62514 39.919585 v 2.82222 2.82222 h 0.352778 0.352777 v 3.55097 3.55097 l 0.36519,0.68236 0.36519,0.68237 h 1.621903 1.621903 l 0.658741,0.75953 0.65874,0.75954 v 0.12241 0.12241 l -3.086805,-0.0524 -3.086806,-0.0524 z m 7.219882,-19.90578 v -0.52917 h -1.234722 -1.234722 v 0.52917 0.52916 h 1.234722 1.234722 z m 2.822222,0 v -0.52917 h -1.058333 -1.058333 v 0.52917 0.52916 h 1.058333 1.058333 z m 3.175,0 v -0.52917 h -1.058333 -1.058333 v 0.52917 0.52916 h 1.058333 1.058333 z m 2.822222,0 v -0.52917 H 50.15014 49.091807 v 0.52917 0.52916 h 1.058333 1.058333 z m -5.997222,-2.64584 v -0.70555 h -2.645833 -2.645833 v 0.70555 0.70556 h 2.645833 2.645833 z m 5.997222,0 v -0.70555 h -2.469444 -2.469444 v 0.70555 0.70556 h 2.469444 2.469444 z m 8.887062,7.73465 0.12641,-0.37923 h 0.335139 0.335139 l 0.126411,0.37923 0.126414,0.37924 h -0.587964 -0.587963 z"
           id="path3150" /><path
           style="fill:#f57246;stroke-width:0.352778"
           d="m 37.573789,205.83196 0.199135,-0.51894 0.243159,-4.06718 0.243158,-4.06717 h 0.301005 0.301006 v -2.82222 -2.82222 h -0.529167 -0.529167 v -0.52917 -0.52917 h 0.529167 0.529167 v -0.70555 -0.70556 h -1.02059 -1.02059 l -0.203061,-0.52916 -0.20306,-0.52917 h -0.893016 -0.893017 v -0.39834 -0.39835 l 2.116667,0.23947 2.116667,0.23948 v -0.54669 -0.54668 h -0.352778 -0.352778 v -0.70556 -0.70555 h 0.352778 0.352778 v -0.69884 -0.69883 l -0.970139,-0.21179 -0.970139,-0.21178 -0.96633,-0.36532 -0.96633,-0.36533 -1.209415,-1.33868 -1.209415,-1.33867 -0.382848,-0.71536 -0.382848,-0.71536 0.273588,-0.16909 0.273588,-0.16908 2.285005,0.57749 2.285005,0.57749 h 8.819444 8.819444 l 2.285005,-0.57749 2.285005,-0.57749 0.273588,0.16908 0.273588,0.16909 -0.382848,0.71536 -0.382848,0.71536 -1.209415,1.33867 -1.209415,1.33868 -0.96633,0.36533 -0.96633,0.36532 -0.931227,0.20202 -0.931227,0.20202 -0.23549,0.61367 -0.235489,0.61368 0.372966,0.12432 0.372967,0.12432 v 0.67616 0.67616 h -0.352777 -0.352778 v 0.53899 0.53899 l 2.293055,-0.23493 2.293056,-0.23493 v 0.4015 0.40149 H 55.83778 54.822643 l -0.43917,0.52917 -0.439169,0.52916 h -0.66236 -0.662359 v 0.70556 0.70555 h 0.529166 0.529167 v 0.52917 0.52917 h -0.583132 -0.583133 l 0.243731,3.96875 0.24373,3.96875 0.296771,2.82222 0.296772,2.82222 0.256762,0.61736 0.256763,0.61736 H 52.15034 50.194499 l 0.150282,-1.14652 0.150283,-1.14653 0.356705,-4.29404 0.356704,-4.29405 v -1.96776 -1.96776 H 50.679307 50.15014 v -0.52917 -0.52917 h 0.529167 0.529166 v -0.70555 -0.70556 h -5.644444 -5.644444 v 0.70556 0.70555 h 0.705555 0.705556 v 0.52917 0.52917 H 40.62514 39.919585 v 2.82222 2.82222 h 0.32242 0.32242 l 0.137831,3.96875 0.13783,3.96875 0.283048,0.61736 0.283049,0.61736 h -2.015765 -2.015764 z m 4.81524,-18.70745 v -0.52917 h -1.234722 -1.234722 v 0.52917 0.52916 h 1.234722 1.234722 z m 2.822222,0 v -0.52917 h -1.058333 -1.058333 v 0.52917 0.52916 h 1.058333 1.058333 z m 3.175,0 v -0.52917 h -1.058333 -1.058333 v 0.52917 0.52916 h 1.058333 1.058333 z m 2.822222,0 v -0.52917 H 50.15014 49.091807 v 0.52917 0.52916 h 1.058333 1.058333 z m -5.997222,-2.64584 v -0.70555 h -2.645833 -2.645833 v 0.70555 0.70556 h 2.645833 2.645833 z m 5.997222,0 v -0.70555 h -2.469444 -2.469444 v 0.70555 0.70556 h 2.469444 2.469444 z m 8.995834,7.76111 -0.218029,-0.35277 h 0.549985 0.549988 v 0.35277 0.35278 h -0.331957 -0.33196 z"
           id="path3148" /><path
           style="fill:#f8693b;stroke-width:0.352778"
           d="m 37.568279,205.84631 0.193625,-0.50457 0.247885,-3.99334 0.247885,-3.99334 0.389983,-0.25213 0.389984,-0.25212 v -2.65671 -2.65672 l -0.617362,-0.002 -0.617361,-0.002 v -0.52917 -0.52917 h 0.488022 0.488022 l 0.178549,-0.68277 0.178549,-0.68277 -0.519035,-0.19917 -0.519034,-0.19917 H 37.43236 36.766729 l 0.183671,-0.47864 0.183672,-0.47864 0.854562,0.0938 0.854563,0.0938 -0.01579,-1.46725 -0.01579,-1.46725 0.113009,-0.68731 0.113009,-0.6873 -1.586968,-0.2794 -1.586968,-0.27941 -0.882477,-0.65357 -0.882476,-0.65356 -1.165191,-1.51843 -1.16519,-1.51842 0.283246,-0.27721 0.283246,-0.27721 2.293055,0.58253 2.293056,0.58253 h 8.819444 8.819444 l 2.293056,-0.58253 2.293055,-0.58253 0.283246,0.27721 0.283246,0.27721 -1.16519,1.51842 -1.165191,1.51843 -0.912486,0.67597 -0.912486,0.67597 -1.499228,0.20109 -1.499228,0.20109 -0.2016,0.52536 -0.2016,0.52536 0.437417,0.70042 0.437417,0.70042 -0.381742,0.38174 -0.381741,0.38174 v 0.45861 0.45861 h 0.684735 0.684736 l 0.218437,0.35344 0.218437,0.35344 -0.903173,0.34338 -0.903172,0.34339 v 0.56955 0.56954 l 0.79375,0.66217 0.79375,0.66217 -0.79375,0.0117 -0.79375,0.0117 v 2.79282 2.79283 l 0.312771,0.11759 0.312772,0.11759 0.348549,3.88056 0.34855,3.88055 0.258366,0.61736 0.258367,0.61736 H 52.15034 50.194499 l 0.150282,-1.14652 0.150283,-1.14653 0.356705,-4.29404 0.356704,-4.29405 v -1.96776 -1.96776 H 50.679307 50.15014 v -0.52917 -0.52917 h 0.529167 0.529166 v -0.88194 -0.88194 h -5.644444 -5.644444 v 0.88194 0.88194 h 0.491423 0.491424 l 0.20306,0.52917 0.20306,0.52917 h -0.694483 -0.694484 v 2.82222 2.82222 h 0.32242 0.32242 l 0.137831,3.96875 0.13783,3.96875 0.283048,0.61736 0.283049,0.61736 h -2.015765 -2.015764 z m 4.82075,-18.89819 v -0.70556 h -1.234722 -1.234722 v 0.70556 0.70555 h 1.234722 1.234722 z m 2.936457,0.21115 0.189721,-0.49441 -0.769339,-0.20633 -0.769339,-0.20633 -0.440972,-0.005 -0.440972,-0.005 v 0.70556 0.70555 h 1.02059 1.02059 z m 2.995422,-0.12296 -0.117078,-0.61736 -0.967123,-0.11163 -0.967122,-0.11162 v 0.72898 0.72899 h 1.0842 1.084201 z m 2.887565,-0.0882 v -0.70556 h -1.017188 -1.017188 l -0.184507,0.70556 -0.184507,0.70555 h 1.201695 1.201695 z m -6.028789,-2.20486 0.298474,-0.79375 -0.485043,-0.28145 -0.485042,-0.28145 -2.20605,0.10506 -2.206049,0.10506 -0.111627,0.97014 -0.111627,0.97014 h 2.504245 2.504245 z m 6.10997,-0.0612 0.163433,-0.85494 -0.57557,-0.15051 -0.575571,-0.15052 -2.016181,0.1672 -2.01618,0.1672 v 0.83826 0.83826 h 2.428318 2.428319 z m -0.394939,-3.00116 3.390409,-0.30316 1.019314,-0.58866 1.019313,-0.58865 -0.705555,0.23277 -0.705556,0.23277 -6.702778,0.17755 -6.702777,0.17755 -2.816736,-0.36395 -2.816736,-0.36396 -0.123895,0.1239 -0.123895,0.12389 0.822725,0.44031 0.822724,0.44031 2.999851,0.24187 2.999851,0.24186 2.116666,0.0394 2.116667,0.0394 z m 9.48598,10.55888 V 191.887 h 0.352778 0.352778 v 0.35277 0.35278 h -0.352778 -0.352778 z"
           id="path3146" /><path
           style="fill:#e65133;stroke-width:0.352778"
           d="m 37.573789,205.83196 0.199135,-0.51894 0.243159,-4.06718 0.243158,-4.06717 h 1.152592 1.152592 l 0.137831,3.96875 0.13783,3.96875 0.283048,0.61736 0.283049,0.61736 h -2.015765 -2.015764 z m 12.708416,-0.0984 0.179612,-0.61736 0.242325,-3.96875 0.242326,-3.96875 h 1.012947 1.012947 l 0.0222,1.14653 0.0222,1.14653 0.28795,2.82222 0.28795,2.82222 0.256763,0.61736 0.256763,0.61736 H 52.104394 50.1026 l 0.179611,-0.61736 z m 10.09849,-13.49375 v -0.35277 h 0.352778 0.352778 v 0.35277 0.35278 h -0.352778 -0.352778 z m -24.578097,-9.36095 -0.998291,-0.4309 -0.92447,-1.0131 -0.924471,-1.0131 -0.594004,-0.93747 -0.594003,-0.93748 0.291802,-0.18034 0.291803,-0.18034 2.285005,0.57749 2.285005,0.57749 h 8.819444 8.819444 l 2.293056,-0.58253 2.293055,-0.58253 0.283246,0.27721 0.283246,0.27721 -1.16519,1.51842 -1.165191,1.51843 -0.995116,0.73766 -0.995116,0.73767 -9.295482,0.0336 -9.295482,0.0336 z m 19.076013,-1.69463 1.377082,-0.59534 -0.157585,-0.15759 -0.157586,-0.15759 -3.159774,0.33234 -3.159774,0.33234 -3.880556,0.003 -3.880555,0.003 -3.136195,-0.35929 -3.136194,-0.35929 -0.157214,0.15722 -0.157214,0.15721 0.778694,0.41675 0.778695,0.41674 1.632769,0.29609 1.63277,0.29609 6.702777,-0.0935 6.702778,-0.0935 1.377082,-0.59534 z"
           id="path3144" /><path
           style="fill:#906b5e;stroke-width:0.352778"
           d="m 37.573789,205.83196 0.199135,-0.51894 0.243159,-4.06718 0.243158,-4.06717 h 1.152592 1.152592 l 0.137831,3.96875 0.13783,3.96875 0.283048,0.61736 0.283049,0.61736 h -2.015765 -2.015764 z m 12.708416,-0.0984 0.179612,-0.61736 0.242325,-3.96875 0.242326,-3.96875 h 1.012947 1.012947 l 0.0222,1.14653 0.0222,1.14653 0.28795,2.82222 0.28795,2.82222 0.256763,0.61736 0.256763,0.61736 H 52.104394 50.1026 l 0.179611,-0.61736 z m 6.836578,-24.09982 0.792468,-0.90468 v -0.20882 -0.20882 l -0.76072,0.19894 -0.76072,0.19893 0.218059,-0.35283 0.218058,-0.35282 -2.014977,0.3224 -2.014978,0.32241 -8.290277,-0.15249 -8.290278,-0.15248 -0.848914,-0.28101 -0.848915,-0.28102 0.284172,0.4598 0.284171,0.4598 -1.013177,-0.25429 -1.013178,-0.2543 0.662458,0.73201 0.662458,0.73201 h -0.228852 -0.228852 l -1.067951,-1.47426 -1.06795,-1.47426 0.271988,-0.26596 0.271987,-0.26595 2.293055,0.58253 2.293056,0.58253 h 8.819444 8.819444 l 2.285005,-0.57749 2.285005,-0.57749 0.278235,0.17196 0.278235,0.17195 -0.620178,1.04988 -0.620179,1.04988 -1.059835,0.95431 -1.059835,0.95431 z"
           id="path3142" /><path
           style="fill:#d64a31;stroke-width:0.352778"
           d="m 37.831654,205.02798 0.30721,-1.32292 0.01382,-2.82222 0.01382,-2.82222 0.299077,-0.47184 0.299076,-0.47184 0.842049,0.11906 0.842049,0.11906 0.189379,3.88056 0.189379,3.88055 0.289336,0.61736 0.289337,0.61736 h -1.94087 -1.94087 z m 12.509273,0.70555 0.266273,-0.61736 0.212442,-3.88055 0.212443,-3.88056 h 0.881944 0.881944 l 0.356264,4.05694 0.356263,4.05695 0.281918,0.44097 0.281917,0.44097 h -1.998841 -1.99884 z m 6.952963,-24.25356 0.617361,-0.75094 v -0.20882 -0.20882 l -0.76072,0.19894 -0.76072,0.19893 0.218059,-0.35283 0.218058,-0.35282 -2.014977,0.3224 -2.014978,0.32241 -8.290277,-0.15249 -8.290278,-0.15248 -0.848914,-0.28101 -0.848915,-0.28102 0.284172,0.4598 0.284171,0.4598 -1.013177,-0.25429 -1.013178,-0.2543 0.519587,0.66322 0.519588,0.66322 -0.970139,-1.06441 -0.970139,-1.06441 v -0.58438 -0.58437 l 2.028472,0.52377 2.028472,0.52377 7.9375,0.17068 7.9375,0.17067 3.263351,-0.56437 3.263352,-0.56437 h 0.35262 0.352621 v 0.4838 0.48379 l -1.322916,1.39094 -1.322917,1.39094 z"
           id="path3140" /><path
           style="fill:#c73a2e;stroke-width:0.352778"
           d="m 37.831654,205.02798 0.30721,-1.32292 0.01382,-2.82222 0.01382,-2.82222 0.299077,-0.47184 0.299076,-0.47184 0.842049,0.11906 0.842049,0.11906 0.189379,3.88056 0.189379,3.88055 0.289336,0.61736 0.289337,0.61736 h -1.94087 -1.94087 z m 2.182839,-2.08349 -0.434258,-0.17569 -0.624075,0.16262 -0.624075,0.16263 1.058333,0.0131 1.058334,0.0131 -0.434259,-0.1757 z m 10.326434,2.78904 0.266273,-0.61736 0.212442,-3.88055 0.212443,-3.88056 h 0.881944 0.881944 l 0.356264,4.05694 0.356263,4.05695 0.281918,0.44097 0.281917,0.44097 h -1.998841 -1.99884 z m 2.373566,-2.78904 -0.434258,-0.17569 -0.624075,0.16262 -0.624075,0.16263 1.058333,0.0131 1.058333,0.0131 -0.434258,-0.1757 z m -16.499075,-22.91455 -2.469444,-0.50187 -0.617848,0.14935 -0.617848,0.14934 0.197696,-0.31988 0.197695,-0.31987 h -0.373597 -0.373598 v -0.48286 -0.48285 l 2.028472,0.52377 2.028472,0.52377 7.9375,0.17068 7.9375,0.17067 3.263351,-0.56437 3.263352,-0.56437 h 0.378487 0.378488 l -0.114061,0.57163 -0.114062,0.57163 -1.234722,0.10579 -1.234722,0.10578 -2.116667,0.37888 -2.116666,0.37887 -6.879167,-0.0311 -6.879166,-0.0311 -2.469445,-0.50187 z"
           id="path3138" /><path
           style="fill:#a44434;stroke-width:0.352778"
           d="m 37.831654,205.02798 0.30721,-1.32292 0.01382,-2.82222 0.01382,-2.82222 0.299077,-0.47184 0.299076,-0.47184 0.842049,0.11906 0.842049,0.11906 0.189379,3.88056 0.189379,3.88055 0.289336,0.61736 0.289337,0.61736 h -1.94087 -1.94087 z m 2.182839,-2.08349 -0.434258,-0.17569 -0.624075,0.16262 -0.624075,0.16263 1.058333,0.0131 1.058334,0.0131 -0.434259,-0.1757 z m 10.326434,2.78904 0.266273,-0.61736 0.212442,-3.88055 0.212443,-3.88056 h 0.881944 0.881944 l 0.356264,4.05694 0.356263,4.05695 0.281918,0.44097 0.281917,0.44097 h -1.998841 -1.99884 z m 2.014074,-1.73294 -0.440972,-0.17794 -0.440972,0.17794 -0.440972,0.17794 h 0.881944 0.881944 z m 0.359492,-1.0561 -0.434258,-0.17569 -0.624075,0.16262 -0.624075,0.16263 1.058333,0.0131 1.058333,0.0131 -0.434258,-0.1757 z m -16.893781,-23.21381 -2.86415,-0.44485 -0.399044,-0.24662 -0.399044,-0.24662 v -0.28565 -0.28564 l 2.028472,0.52377 2.028472,0.52377 7.9375,0.17068 7.9375,0.17067 3.263351,-0.56437 3.263352,-0.56437 h 0.423176 0.423176 l -0.371075,0.37108 -0.371074,0.37107 -3.139064,0.50953 -3.139064,0.50952 -6.879167,-0.0336 -6.879166,-0.0336 z"
           id="path3136" /><path
           style="fill:#73504c;stroke-width:0.352778"
           d="m 37.727668,205.29256 0.155331,-1.05833 h 1.194681 1.194683 v -0.39282 -0.39282 l -1.058334,0.15533 -1.058333,0.15533 v -0.29168 -0.29168 h 1.058333 1.058334 v -0.29168 -0.29167 l -1.058334,0.15533 -1.058333,0.15533 0.0054,-2.42129 0.0054,-2.42129 0.299077,-0.47184 0.299077,-0.47184 0.842049,0.11906 0.842049,0.11906 0.189379,3.88056 0.189379,3.88055 0.289336,0.61736 0.289337,0.61736 H 39.48926 37.572338 Z m 12.561118,0.50031 0.214132,-0.55802 v -0.50031 -0.50031 h 1.234722 1.234722 v -0.39282 -0.39282 l -1.058333,0.15533 -1.058333,0.15533 v -0.29168 -0.29168 h 1.058333 1.058333 v -0.39687 -0.39688 l -1.073067,0.21462 -1.073066,0.21461 0.102927,-2.72815 0.102929,-2.72816 h 0.881944 0.881944 l 0.356264,4.05694 0.356263,4.05695 0.281918,0.44097 0.281917,0.44097 h -1.998841 -1.99884 z m -13.367812,-25.95 -2.469444,-0.31321 -1.146528,-0.37507 -1.146528,-0.37508 v -0.2791 -0.27911 l 2.028472,0.52299 2.028472,0.52299 7.85291,0.17459 7.85291,0.17459 3.555885,-0.59459 3.555886,-0.59459 0.168313,0.16832 0.168314,0.16831 -1.170165,0.37559 -1.170164,0.37559 -2.989357,0.36512 -2.989355,0.36513 -5.830089,-0.0446 -5.830088,-0.0446 z"
           id="path3134" /><path
           style="fill:#983831;stroke-width:0.352778"
           d="m 37.802918,205.85058 v -0.50031 l 0.214133,-0.55802 0.214132,-0.55802 h 1.02059 1.02059 v -0.39282 -0.39282 l -1.058334,0.15533 -1.058333,0.15533 v -0.29168 -0.29168 h 1.058333 1.058334 v -0.29168 -0.29167 l -1.113536,0.16343 -1.113535,0.16343 0.215901,-2.57526 0.215901,-2.57527 0.424671,-0.26246 0.424671,-0.26246 0.445411,0.17092 0.44541,0.17092 0.210602,2.70686 0.210603,2.70685 0.117943,1.6757 0.117943,1.67569 h -1.535715 -1.535715 z m 12.347222,0.34052 v -0.15978 l 0.409404,-0.89855 0.409404,-0.89854 h 1.001707 1.001707 v -0.39282 -0.39282 l -1.058333,0.15533 -1.058333,0.15533 v -0.29168 -0.29168 h 1.058333 1.058333 v -0.39687 -0.39688 l -1.058333,0.21167 -1.058333,0.21167 v -2.63702 -2.63701 h 1.008123 1.008124 l 0.247106,3.90514 0.247105,3.90515 0.193625,0.50457 0.193626,0.50458 H 51.951772 50.15014 Z m -13.366852,-26.36324 -2.607131,-0.32644 -1.097036,-0.48121 -1.097036,-0.4812 0.705556,-0.0162 0.705555,-0.0162 2.116667,0.51108 2.116666,0.51109 7.761111,0.003 7.761111,0.003 1.940278,-0.32982 1.940278,-0.32982 1.234722,-0.20056 1.234722,-0.20055 -1.058333,0.49604 -1.058334,0.49605 -3.174999,0.38816 -3.175,0.38815 -5.820834,-0.0445 -5.820833,-0.0445 z"
           id="path3132" /><path
           style="fill:#663231;stroke-width:0.352778"
           d="m 37.802918,205.85058 v -0.50031 l 0.214133,-0.55802 0.214132,-0.55802 h 1.02059 1.02059 v -0.33043 -0.33043 l -1.146528,-0.14228 -1.146528,-0.14228 1.146528,-0.0565 1.146528,-0.0565 v -0.35277 -0.35278 h -1.109347 -1.109347 l 0.219993,-2.35585 0.219993,-2.35585 0.41639,-0.25735 0.416391,-0.25734 0.445411,0.17092 0.44541,0.17092 0.210602,2.70686 0.210603,2.70685 0.117943,1.6757 0.117943,1.67569 h -1.535715 -1.535715 z m 12.347222,0.34052 v -0.15978 l 0.409404,-0.89855 0.409404,-0.89854 h 1.178096 1.178096 v 0.50031 0.50031 l 0.214132,0.55802 0.214133,0.55802 H 51.951772 50.15014 Z m 1.32703,-2.91193 0.797863,-0.15343 0.613248,0.16054 0.613248,0.16055 -1.411111,-0.007 -1.411111,-0.007 z m 0.525053,-0.73998 -1.146527,-0.11355 v -2.4471 -2.44709 h 1.029384 1.029385 l 0.125516,2.55764 0.125516,2.55764 -0.0084,0.003 -0.0084,0.003 -1.146528,-0.11355 z m -12.800332,-22.65045 -3.716305,-0.2808 -1.522777,-0.41004 -1.522777,-0.41004 0.187134,-0.18714 0.187135,-0.18713 2.475754,0.5631 2.475755,0.56309 7.69147,-0.002 7.691471,-0.002 1.940278,-0.31985 1.940278,-0.31985 1.058333,-0.22954 1.058333,-0.22954 -0.529987,0.34367 -0.529986,0.34368 -2.115847,0.35783 -2.115846,0.35782 -5.468056,0.16482 -5.468055,0.16481 z"
           id="path3130" /><path
           style="fill:#573231;stroke-width:0.352778"
           d="m 37.933345,205.55714 0.212717,-0.79375 0.0048,-0.26458 0.0048,-0.26458 h 1.234722 1.234722 v 0.50031 0.50031 l 0.214133,0.55802 0.214132,0.55802 h -1.666389 -1.666388 z m 12.783799,0.5022 -0.180192,-0.29156 0.200517,-0.76678 0.200517,-0.76677 h 1.152451 1.152452 l 0.167009,0.87365 0.167009,0.87365 -0.18468,0.18468 -0.184679,0.18468 h -1.155107 -1.155105 z m 2.159674,-1.33269 -0.213136,-0.21314 -0.463021,0.18529 -0.463021,0.18528 0.676158,0.0279 0.676157,0.0279 z m -14.099648,-1.44748 0.797863,-0.15343 0.613248,0.16054 0.613248,0.16055 -1.411111,-0.007 -1.411111,-0.007 z m 12.7,0 0.797863,-0.15343 0.613248,0.16054 0.613248,0.16055 -1.411111,-0.007 -1.411111,-0.007 z m 0.370713,-5.63593 0.463021,-0.18529 0.213137,0.21314 0.213136,0.21314 -0.676157,-0.0279 -0.676158,-0.0279 z m -3.538,-18.01117 1.863909,-0.12998 1.663868,0.13165 1.663869,0.13165 -3.527778,-0.002 -3.527777,-0.002 1.863909,-0.12998 z m -12.359048,-0.32592 0.440972,-0.17794 0.440973,0.17794 0.440972,0.17793 h -0.881945 -0.881944 z m 18.880325,-0.0108 0.624075,-0.16262 0.434258,0.17569 0.434258,0.1757 -1.058333,-0.0131 -1.058333,-0.0131 0.624075,-0.16263 z m 1.955612,-0.34929 0.463021,-0.18529 0.213136,0.21314 0.213137,0.21314 -0.676157,-0.0278 -0.676158,-0.0279 z"
           id="path3128" /></g></g></g></svg>
