<?xml version="1.0" encoding="UTF-8" standalone="no"?>
<!-- Created with Inkscape (http://www.inkscape.org/) -->

<svg
   width="40.079941mm"
   height="40.079941mm"
   viewBox="0 0 40.079941 40.079942"
   version="1.1"
   id="svg1529"
   inkscape:version="1.2.2 (732a01da63, 2022-12-09)"
   sodipodi:docname="shrine-mono.svg"
   xmlns:inkscape="http://www.inkscape.org/namespaces/inkscape"
   xmlns:sodipodi="http://sodipodi.sourceforge.net/DTD/sodipodi-0.dtd"
   xmlns="http://www.w3.org/2000/svg"
   xmlns:svg="http://www.w3.org/2000/svg">
  <sodipodi:namedview
     id="namedview1531"
     pagecolor="#ffffff"
     bordercolor="#000000"
     borderopacity="0.25"
     inkscape:showpageshadow="2"
     inkscape:pageopacity="0.0"
     inkscape:pagecheckerboard="0"
     inkscape:deskcolor="#d1d1d1"
     inkscape:document-units="mm"
     showgrid="false"
     inkscape:zoom="0.914906"
     inkscape:cx="-18.03464"
     inkscape:cy="308.77489"
     inkscape:window-width="1684"
     inkscape:window-height="1328"
     inkscape:window-x="3411"
     inkscape:window-y="16"
     inkscape:window-maximized="0"
     inkscape:current-layer="layer1" />
  <defs
     id="defs1526" />
  <g
     inkscape:label="Layer 1"
     inkscape:groupmode="layer"
     id="layer1"
     transform="translate(-87.907245,-66.814571)">
    <path
       style="fill:#f24f13;stroke-width:1.309"
       d="M 89.728132,76.732828 114.88782,83.38424"
       id="path4159" />
    <g
       id="g4057"
       transform="translate(56.509193,-59.216671)">
      <circle
         style="fill:#787878;fill-opacity:1;stroke-width:1.3539"
         id="path3122"
         cx="51.438023"
         cy="146.07121"
         r="20.03997" />
      <g
         id="g3257"
         transform="matrix(0.87872722,0,0,0.87872722,36.403576,-26.908566)">
        <path
           style="fill:#efefef;stroke-width:0.352778"
           d="m 12.791048,218.28104 -1.897439,-0.33702 -2.2069559,-1.05329 -2.2069559,-1.05328 -2.1578308,-1.5885 -2.1578308,-1.58851 -1.62834916,-2.20528 -1.62834954,-2.20528 -0.8077781,-1.76389 -0.8077781,-1.76389 -0.646294,-2.11667 -0.646294,-2.11666 0.016681,-4.05695 0.016681,-4.05694 0.9720909,-2.80877 0.9720909,-2.80877 1.56440659,-2.3532 1.56440641,-2.35321 1.4003944,-1.26517 1.4003944,-1.26517 1.9053329,-1.26507 1.9053334,-1.26507 2.5335594,-0.88109 2.53356,-0.88108 2.922688,-0.20626 2.922689,-0.20626 2.705061,0.60182 2.705061,0.60182 2.556376,1.27002 2.556376,1.27002 2.675911,2.67439 2.675915,2.67438 1.440977,2.89483 1.440981,2.89484 0.416669,2.00708 0.416669,2.00709 -0.149718,4.09391 -0.149719,4.09392 -0.820692,2.29305 -0.820688,2.29306 -1.076872,1.94028 -1.076872,1.94027 -1.978614,1.94028 -1.978614,1.94028 -2.271556,1.33226 -2.271555,1.33225 -2.293055,0.73183 -2.293056,0.73182 -3.175,0.1214 -3.174999,0.12141 z"
           id="path3309" />
        <path
           style="fill:#ededed;stroke-width:0.352778"
           d="m 12.813982,218.28434 -1.874505,-0.33372 -2.5394171,-1.23828 -2.5394171,-1.23827 -1.9921233,-1.56355 -1.9921234,-1.56355 -1.63767234,-2.29499 -1.63767256,-2.29499 -1.0919374,-2.92856 -1.0919374,-2.92855 -0.1655352,-4.06921 -0.1655354,-4.06921 0.4217984,-2.03179 0.4217984,-2.03179 1.437528,-2.89484 1.43752817,-2.89483 2.68236203,-2.64583 2.6823623,-2.64583 2.6441364,-1.28807 2.6441365,-1.28807 2.208734,-0.43454 2.208734,-0.43454 3.434409,0.17661 3.434409,0.17661 2.092732,0.74814 2.092733,0.74813 1.914994,1.15064 1.914994,1.15064 2.218824,2.22093 2.218824,2.22093 1.226538,2.36518 1.226541,2.36518 0.660725,1.94028 0.660721,1.94028 -0.01013,4.40972 -0.01013,4.40972 -0.838172,2.64584 -0.838171,2.64583 -1.075062,1.94028 -1.075062,1.94027 -1.978615,1.94028 -1.978614,1.94028 -2.271555,1.33226 -2.271556,1.33225 -2.293055,0.73183 -2.293055,0.73182 -3.175,0.1214 -3.175,0.12141 -1.874505,-0.33373 z m 7.952572,-9.71843 -0.213137,-0.21314 -0.463021,0.18529 -0.463021,0.18528 0.676158,0.0279 0.676157,0.0279 z m 0.705309,-3.57923 -0.138382,-1.32291 v 2.64583 2.64583 l 0.138382,-1.32291 0.138381,-1.32292 z m 3.161191,0.35278 -0.161333,-0.61736 v 1.23472 1.23472 l 0.161333,-0.61736 0.161333,-0.61736 z M 7.8093202,203.23212 v -0.52578 l -0.6173611,0.24027 -0.6173611,0.24027 -0.3527778,0.062 -0.3527778,0.0621 0.1029046,-0.70556 0.1029046,-0.70555 -0.3351121,0.4976 -0.3351117,0.4976 0.3689181,0.59073 0.368918,0.59073 0.833428,-0.15932 0.8334283,-0.15932 z m 0.9465429,-0.16367 -0.1852856,-0.46302 -0.027851,0.67616 -0.027851,0.67616 0.2131367,-0.21314 0.2131363,-0.21313 z m -2.1459873,-1.55663 -0.2282744,-0.59487 -0.1763889,0.17639 -0.1763889,0.17639 0.2282744,0.59487 0.2282744,0.59487 0.1763889,-0.17638 0.1763888,-0.17639 z m 2.9633332,-2.80776 v -2.62501 H 9.0440424 8.5148757 v -0.88195 -0.88194 H 9.0440424 9.573209 v -0.35278 -0.35278 H 9.4256728 9.2781369 l -0.5580197,0.21413 -0.5580193,0.21414 v 1.03166 1.03166 l 0.5402301,0.2073 0.5402298,0.20731 -0.1252678,2.58623 -0.1252679,2.58624 0.2905936,-0.1796 0.2905933,-0.1796 z m 2.54,2.5961 -0.423333,-0.42334 v -1.97555 -1.97556 l 0.423333,-0.42333 0.423333,-0.42333 H 11.93682 11.337098 v 2.61643 2.61644 l 0.440972,0.17793 0.440972,0.17794 0.15875,0.0279 0.15875,0.0279 z m 9.735629,-1.55865 -0.119726,-1.36941 -0.170162,1.65929 -0.170161,1.6593 0.289888,-0.28989 0.289888,-0.28989 z m 2.686113,1.57854 -0.249342,-0.40345 -0.162733,-1.44864 -0.162734,-1.44864 -0.137911,-0.14699 -0.137911,-0.14699 v 1.57574 1.57574 l 0.423333,0.42334 0.423333,0.42333 h 0.126654 0.126653 z M 7.9310557,199.768 l -0.2088988,-0.54438 -0.1681328,0.16813 -0.1681329,0.16813 0.2325342,0.37625 0.2325345,0.37625 H 7.995457 8.1399541 Z m 23.0424573,-3.77715 -0.177936,-0.44097 v 0.88194 0.88195 l 0.177936,-0.44097 0.177937,-0.44098 z m -9.558817,-1.67569 h 0.505735 v -0.28178 -0.28177 l -1.33483,0.0172 -1.334831,0.0172 0.717469,1.09271 0.71747,1.0927 0.111626,-0.82812 0.111627,-0.82812 z m 10.912679,1.41111 -0.218027,-0.35278 -0.420155,0.005 -0.420151,0.005 0.529166,0.34198 0.529167,0.34197 0.109015,0.005 0.109012,0.005 z m -19.484258,-1.64251 -0.434258,-0.1757 -0.624075,0.16262 -0.624075,0.16263 1.058333,0.0131 1.058334,0.0131 -0.434259,-0.1757 z m 12.732665,-0.29777 0.20306,-0.52917 H 25.298491 24.81814 l -0.203061,0.52917 -0.20306,0.52917 h 0.480351 0.480352 z m -9.395339,-0.0368 -0.213137,-0.21313 -0.463021,0.18528 -0.463021,0.18529 0.676158,0.0279 0.676157,0.0279 z M 6.4864035,192.6488 5.3398758,192.50651 v -0.6619 -0.66191 l 1.3229166,-0.13838 1.3229166,-0.13838 -1.4993055,-0.0593 -1.4993055,-0.0593 v 0.82315 0.82315 l 0.2351853,0.23518 0.235185,0.23519 1.0877317,-0.0565 1.0877313,-0.0565 z m 20.9902775,0.012 -0.617361,-0.16134 -0.617362,0.16134 -0.617361,0.16133 h 1.234723 1.234722 z m 1.024792,-1.32911 -0.208899,-0.54438 h -0.82559 -0.82559 l -0.684787,-0.51795 -0.684787,-0.51795 0.332009,-0.0112 0.33201,-0.0112 -0.684361,-0.50042 -0.684362,-0.50042 0.969713,-0.24338 0.969713,-0.24338 v -0.30572 -0.30571 l -1.146528,0.21422 -1.146528,0.21422 -0.335139,0.30613 -0.335138,0.30612 0.423333,0.42334 0.423333,0.42333 v 0.635 0.635 H 24.037097 23.68432 v 0.27891 0.27891 l 2.293055,-0.13902 2.293056,-0.13902 v 0.62446 0.62446 l 0.21997,-0.21997 0.219971,-0.21997 z M 9.3968201,191.14016 9.1787915,190.78738 H 8.8468336 8.5148757 v 0.35278 0.35277 h 0.5499865 0.5499866 z m 3.6086229,0.13964 -0.213137,-0.21314 -0.463021,0.18529 -0.463021,0.18528 0.676158,0.0279 0.676157,0.0279 z m 2.653182,-0.0205 -0.440972,-0.17794 -0.440972,0.17794 -0.440972,0.17793 h 0.881944 0.881945 z m -6.085416,-2.58859 v -0.70555 H 8.8965061 8.2198036 l -0.6462141,-0.19885 -0.6462137,-0.19884 0.9701388,0.56289 0.9701389,0.56289 v 0.34151 0.34151 H 9.2204312 9.573209 Z m -4.6491947,-2.73403 -1.2646077,-1.32291 -0.3944874,-0.77056 -0.3944878,-0.77056 v -0.42213 -0.42212 l 1.2347222,0.20036 1.2347222,0.20037 v -0.43615 -0.43615 l -1.2618187,0.14731 -1.2618187,0.14731 -0.1636906,0.42657 -0.1636907,0.42658 0.3356261,0.85458 0.3356257,0.85459 1.2655006,1.32291 1.2655003,1.32292 h 0.2487563 0.2487563 z m 6.4130837,-2.69398 v -0.13635 l -1.073866,-0.15761 -1.0738653,-0.15761 -0.1816763,0.29396 -0.1816767,0.29396 h 1.2555423 1.255542 z m 13.140972,-0.0973 -0.440973,-0.17794 -0.440972,0.17794 -0.440972,0.17793 h 0.881944 0.881945 z m 6.166261,-1.03783 -0.213137,-0.21314 -0.46302,0.18529 -0.463021,0.18528 0.676157,0.0279 0.676157,0.0279 z m -21.2948953,-1.46796 -0.4001622,-0.25918 -0.176276,-0.70556 -0.1762763,-0.70556 -0.040923,0.97014 -0.040923,0.97014 0.6173611,-0.005 0.6173611,-0.005 -0.4001622,-0.25918 z m 1.5230943,-1.20727 -0.185286,-0.46303 -0.02785,0.67616 -0.02785,0.67616 0.213137,-0.21314 0.213136,-0.21313 z m -0.689309,-0.49977 -0.213137,-0.21314 -0.4630208,0.18529 -0.4630208,0.18528 0.6761575,0.0279 0.6761571,0.0279 z"
           id="path3307" />
        <path
           style="fill:#eaeaea;stroke-width:0.352778"
           d="m 12.813982,218.28434 -1.874505,-0.33372 -2.5394171,-1.23828 -2.5394171,-1.23827 -2.0118718,-1.57905 -2.0118719,-1.57905 -1.80175492,-2.56221 -1.80175498,-2.56222 0.1519614,-0.88194 0.1519614,-0.88194 0.258644,-0.60334 0.25864407,-0.60334 -0.66542247,0.12815 -0.6654224,0.12815 -0.056879,-0.75509 -0.056879,-0.75508 0.3244037,0.52472 0.3244037,0.52472 0.6175197,-0.61737 0.61751949,-0.61736 H -1.4636954 -2.4212351 v -0.35176 -0.35176 l 1.2385312,-1.37091 1.23853108,-1.3709 1.05452432,-0.4368 1.0545244,-0.4368 v -0.24046 -0.24046 l -1.67569439,-0.90561 -1.67569441,-0.90562 v -0.66321 -0.66321 l 1.23501889,0.0324 1.23501891,0.0324 1.2796583,0.24007 1.2796586,0.24006 1.0131002,0.9597 1.0131004,0.95969 0.7055556,0.36413 0.7055555,0.36413 0.1219969,0.87311 0.1219969,0.87311 0.3250618,0.39626 0.3250618,0.39626 -0.198035,0.51607 -0.198035,0.51607 0.8093096,-0.0586 0.8093096,-0.0586 0.1030337,-2.70577 0.103034,-2.70577 H 9.0588816 8.5148757 v -0.88195 -0.88194 H 9.0440424 9.573209 v -0.35278 -0.35278 H 8.6801927 7.7871763 L 7.584116,193.08043 7.3810557,192.55127 h -1.0205899 -1.02059 v -0.6685 -0.6685 l 1.4374826,-0.13709 1.4374823,-0.13709 0.1708376,0.27642 0.1708372,0.27642 H 9.1354178 9.7143201 L 9.2909868,191.0696 8.8676535,190.64627 v -0.635 -0.635 H 9.2204312 9.573209 v -0.66047 -0.66047 l -1.4261196,-0.22804 -1.4261197,-0.22805 -1.5333634,-1.4134 -1.5333633,-1.41341 -0.4393904,-1.06078 -0.4393904,-1.06078 0.2031274,-0.20313 0.2031273,-0.20313 3.3276377,0.56722 3.3276373,0.56722 7.0118581,-4.9e-4 7.011859,-4.8e-4 2.998611,-0.5282 2.998611,-0.5282 0.440972,-4.8e-4 0.440972,-4.9e-4 v 0.55969 0.55969 l -1.115362,1.55312 -1.115362,1.55311 -1.465463,0.70942 -1.465463,0.70942 h -0.749744 -0.749744 l -0.237026,0.38351 -0.237026,0.38352 0.392595,0.39259 0.392595,0.3926 v 0.635 0.635 H 24.037097 23.68432 v 0.31215 0.31216 l 2.293055,-0.18407 2.293056,-0.18406 v 0.75385 0.75386 h -1.234723 -1.234722 v 0.31453 0.31454 l -0.881944,0.22135 -0.881945,0.22135 v 0.34606 0.34606 h 0.529167 0.529167 v 0.88194 0.88195 h -0.483009 -0.483008 l -0.218665,1.32291 -0.218664,1.32292 -0.0039,1.12571 -0.0039,1.1257 0.352777,0.21803 0.352778,0.21803 0.0039,2.36043 0.0039,2.36043 0.218665,1.32292 0.218665,1.32291 h 0.45361 0.45361 l 0.205787,-0.44097 0.205784,-0.44097 0.217368,0.47572 0.217368,0.47571 0.634585,-1.41739 0.634585,-1.41739 0.778646,-0.41672 0.778645,-0.41672 0.967573,0.19352 0.967572,0.19351 0.767197,-0.88235 0.767193,-0.88235 1.625582,0.10695 1.625579,0.10696 0.364582,0.58164 0.364581,0.58165 -1.210387,2.40479 -1.210391,2.4048 -2.129014,2.12883 -2.129016,2.12884 -2.280707,1.33226 -2.280708,1.33225 -2.293055,0.73183 -2.293056,0.73182 -3.174999,0.1214 -3.175,0.12141 z m 8.755275,-11.88655 0.0016,-2.38124 0.228685,-3.96875 0.228685,-3.96875 H 21.44516 20.862093 v -0.88195 -0.88194 h 0.529166 0.529167 l -5.65e-4,-0.26459 -5.64e-4,-0.26458 -3.615409,-0.0898 -3.615406,-0.0898 -1.763889,0.3129 -1.763889,0.31291 0.79375,0.0415 0.79375,0.0415 v 0.88194 0.88195 h -0.705556 -0.705555 v 2.64583 2.64583 h 0.352778 0.352777 v 3.70417 3.70416 h 4.7625 4.7625 l 0.0016,-2.38125 z m -13.7599368,-3.1517 v -0.51181 l -0.7033359,0.22323 -0.7033358,0.22323 0.2119125,-0.55224 0.2119125,-0.55223 -0.2563953,-0.61736 -0.2563954,-0.61736 -0.4454563,1.04129 -0.4454567,1.04129 0.359847,0.57621 0.3598471,0.5762 0.833428,-0.15932 0.8334283,-0.15932 z m 0.9500273,-0.72214 -0.1626263,-0.62407 -0.01307,1.05833 -0.01307,1.05834 0.1756981,-0.43426 0.1756982,-0.43426 -0.1626264,-0.62408 z m -4.1250272,-0.62407 v -0.52917 H 4.4956747 4.3570292 l -0.2030603,0.52917 -0.2030603,0.52917 h 0.3417058 0.3417059 z m -1.5229014,-3.77031 -0.1852856,-0.46302 -0.027851,0.67615 -0.027851,0.67616 0.2131367,-0.21314 0.2131364,-0.21313 z m 9.7316981,-6.86804 -0.434258,-0.17569 -0.624075,0.16262 -0.624075,0.16263 1.058333,0.0131 1.058334,0.0131 -0.434259,-0.1757 z m 2.815508,-0.002 -0.440972,-0.17794 -0.440972,0.17794 -0.440972,0.17793 h 0.881944 0.881945 z m 3.34404,0.0205 -0.213137,-0.21314 -0.463021,0.18529 -0.46302,0.18528 0.676157,0.0279 0.676157,0.0279 -0.213136,-0.21313 z m 2.822222,0 -0.213137,-0.21314 -0.463021,0.18529 -0.46302,0.18528 0.676157,0.0279 0.676157,0.0279 -0.213136,-0.21313 z m -5.901678,-2.60909 v -0.35278 h -2.293056 -2.293055 v 0.35278 0.35278 h 2.293055 2.293056 z m 5.997222,0.0743 v -0.27849 l -2.116667,-0.0836 -2.116666,-0.0836 v 0.36208 0.36208 h 2.116666 2.116667 z m 9.172222,7.68682 v -0.75729 l 0.617361,0.1189 0.617361,0.11889 v 0.5195 0.51951 l -0.617361,0.11889 -0.617361,0.11889 z m -21.8674243,-15.87203 -0.460387,-0.28454 0.216723,-0.56477 0.2167227,-0.56477 h 0.7166274 0.7166272 v 0.66782 0.66781 l -0.472963,0.18149 -0.4729637,0.18149 z"
           id="path3305" />
        <path
           style="fill:#d9d9d9;stroke-width:0.352778"
           d="m 12.483801,218.1218 -2.204687,-0.47893 -2.2201775,-1.09299 -2.2201779,-1.09299 -2.0009297,-1.57046 -2.0009298,-1.57046 -1.77628931,-2.52934 -1.77628929,-2.52935 v -0.63006 -0.63007 l 0.73355106,-1.24327 0.7335511,-1.24328 -0.22520416,-0.36439 -0.2252045,-0.36439 h -0.6847357 -0.6847356 v -0.58379 -0.58379 l 1.42596548,-1.35648 1.42596548,-1.35649 H 1.4364314 2.0893892 l 0.2105434,-0.54867 0.2105435,-0.54867 -1.3193279,-0.54479 -1.31932778,-0.5448 -0.61736109,-0.54871 -0.61736113,-0.54871 v -0.29811 -0.2981 H 0.41231794 2.1875373 l 1.1772861,0.4919 1.1772861,0.49191 0.4924456,0.65462 0.4924457,0.65463 0.6766111,0.37635 0.6766112,0.37636 0.2333286,0.50559 0.233329,0.50559 0.4076086,0.78896 0.4076086,0.78896 v 0.15883 0.15882 l -1.1193596,0.11055 -1.11936,0.11054 -0.3326987,1.00479 -0.3326987,1.00479 0.484009,0.48401 0.484009,0.484 0.7916604,-0.20702 0.7916609,-0.20702 v -0.48803 -0.48802 H 7.2801535 6.7509869 v -0.52916 -0.52917 h 0.8819444 0.8819444 l 0.010728,1.14653 0.010728,1.14653 0.3944698,-0.67971 0.3944694,-0.67971 0.1720384,-3.28904 0.172037,-3.28904 H 9.0921111 8.5148757 v -0.88195 -0.88194 H 9.0440424 9.573209 v -0.52917 -0.52917 H 8.5148757 7.4565424 v -0.35277 -0.35278 H 6.3982091 5.3398758 v -0.70556 -0.70555 h 1.5875 1.5874999 v 0.35277 0.35278 h 0.4523295 0.4523296 l 0.02751,-1.90308 0.02751,-1.90307 -1.289685,-0.20623 -1.2896846,-0.20623 -1.4076143,-1.20487 -1.4076147,-1.20486 -0.6774839,-1.25801 -0.6774843,-1.25802 0.2304037,-0.2304 0.2304037,-0.2304 3.1055137,0.56997 3.1055136,0.56997 h 7.4083333 7.408333 l 3.105514,-0.56997 3.105513,-0.56997 0.189892,0.18989 0.189891,0.18989 -0.239729,0.75532 -0.23973,0.75532 -1.081996,1.23233 -1.081997,1.23232 -1.342264,0.68478 -1.342266,0.68477 H 24.580318 23.68432 v 0.70555 0.70556 h 0.352777 0.352778 v 0.67616 0.67615 l -0.440972,0.17893 -0.440972,0.17893 0.529166,0.36833 0.529167,0.36833 0.117593,-0.34147 0.117592,-0.34147 h 1.734491 1.734491 v 0.70555 0.70556 h -1.234723 -1.234722 v 0.32934 0.32935 l -0.942933,0.11163 -0.942933,0.11162 -0.144798,0.44097 -0.144799,0.44098 h 0.520822 0.520821 l 0.215277,0.561 0.215277,0.561 -0.198354,0.32094 -0.198353,0.32095 H 24.192666 23.68432 v 2.64583 2.64583 h 0.352777 0.352778 v 2.60174 2.60173 l 0.215545,1.07773 0.215544,1.07772 0.967188,-0.0275 0.967187,-0.0275 0.439334,-1.21496 0.439335,-1.21496 1.180437,-0.49321 1.180436,-0.49322 0.543676,0.20863 0.543675,0.20862 1.090612,-0.91768 1.090609,-0.91769 h 1.140231 1.140227 l 0.649908,0.47522 0.649909,0.47522 -0.39738,1.13992 -0.397376,1.13992 -1.645694,2.47548 -1.645698,2.47548 -1.972783,1.54837 -1.972785,1.54837 -2.012119,1.07245 -2.012118,1.07245 -2.724826,0.69689 -2.724825,0.69689 -2.324819,-0.028 -2.324818,-0.0281 z m 9.085456,-11.72401 0.0016,-2.38124 0.228685,-3.96875 0.228685,-3.96875 H 21.44516 20.862093 v -0.88195 -0.88194 h 0.529166 0.529167 v -0.29105 -0.29105 l -1.146528,-0.0767 -1.146528,-0.0767 h -2.998611 -2.998611 l -1.146527,0.0767 -1.146528,0.0767 v 0.2499 0.24991 l 0.705555,0.1845 0.705556,0.18451 v 0.59522 0.59522 l -0.705556,0.18451 -0.705555,0.18451 v 2.60468 2.60469 h 0.27849 0.27849 l 0.0065,0.79375 0.0065,0.79375 0.06776,2.91042 0.06776,2.91041 h 4.7625 4.7625 l 0.0016,-2.38125 z M 0.75376483,202.20946 v -0.57236 l -0.52916665,0.43917 -0.52916665,0.43917 v 0.13319 0.13319 h 0.52916665 0.52916665 z m 1.53319367,-1.72069 0.2076602,-1.41111 -0.2109047,0.52916 -0.2109046,0.52917 -0.4916389,0.56634 -0.4916392,0.56635 0.2317372,0.60389 0.2317373,0.6039 0.2631461,-0.2883 0.2631465,-0.28829 z m 2.4504124,1.47501 0.1785369,-0.46525 -1.022738,-0.38605 -1.0227384,-0.38604 v 0.64552 0.64551 l 0.4409722,0.17794 0.4409723,0.17793 0.4032288,0.0279 0.4032289,0.0279 z M 3.575987,198.17489 v -0.33196 H 3.2232092 2.8704314 v 0.54999 0.54999 l 0.3527778,-0.21803 0.3527778,-0.21803 z m 9.525,-7.03473 v -0.35278 h -0.881945 -0.881944 v 0.35278 0.35277 h 0.881944 0.881945 z m 2.822222,0 v -0.35278 h -0.705556 -0.705555 v 0.35278 0.35277 h 0.705555 0.705556 z m 3.175,0 v -0.35278 h -0.705556 -0.705555 v 0.35278 0.35277 h 0.705555 0.705556 z m 2.822222,0 v -0.35278 l -0.264583,0.005 -0.264584,0.005 -0.529166,0.34198 -0.529167,0.34197 0.79375,0.005 0.79375,0.005 z m -5.997222,-2.46945 v -0.70555 h -2.293056 -2.293055 v 0.70555 0.70556 h 2.293055 2.293056 z m 5.997222,-0.0176 v -0.72316 l -2.025044,0.1058 -2.025044,0.1058 -0.11749,0.61736 -0.11749,0.61736 h 2.142534 2.142534 z m 9.172222,7.77871 v -0.75729 l 0.617361,0.1189 0.617361,0.11889 v 0.5195 0.51951 l -0.617361,0.11889 -0.617361,0.11889 z m -22.055536,-16.23898 -0.2490978,-0.40305 0.368882,-0.36888 0.3688821,-0.36888 0.5822157,0.22341 0.582216,0.22342 -0.146764,0.44079 -0.146765,0.44079 -0.5552354,0.10772 -0.5552358,0.10773 z"
           id="path3303" />
        <path
           style="fill:#d0d0d0;stroke-width:0.352778"
           d="m 12.483801,218.1439 -2.204687,-0.50103 -2.2201775,-1.09299 -2.2201779,-1.09299 -2.0009297,-1.57046 -2.0009298,-1.57046 -1.77628931,-2.52934 -1.77628929,-2.52935 v -0.43881 -0.43881 l 0.84202077,-1.81742 0.84202066,-1.81741 0.30450719,0.0371 0.30450683,0.0371 0.12919533,-0.63599 0.12919569,-0.636 -0.68614006,0.61736 -0.68614006,0.61736 h -0.76597215 -0.765972 v -0.38651 -0.38651 l 0.6803589,-0.95548 0.68035889,-0.95548 1.24599205,-0.67101 1.24599206,-0.67101 0.2630388,0.26304 0.2630385,0.26304 -0.6626933,1.23055 -0.66269344,1.23054 0.40770174,0.40771 0.4077021,0.4077 0.2484892,-0.24849 0.2484893,-0.24849 0.1494296,-2.06584 0.1494296,-2.06585 -1.86833221,-1.01354 -1.86833189,-1.01353 -0.1406053,-0.44098 -0.1406054,-0.44097 1.52870381,0.002 1.52870349,0.002 1.3068702,0.36297 1.3068702,0.36296 0.6475892,0.7816 0.6475889,0.78159 0.6677977,0.37636 0.6677977,0.37635 0.2333286,0.50559 0.233329,0.50558 0.4076086,0.78896 0.4076086,0.78896 v 0.18118 0.18117 H 7.1296028 6.0971076 l -0.5175842,1.03753 -0.5175843,1.03752 0.5832115,0.5278 0.5832115,0.5278 1.4516929,-0.19472 1.4516925,-0.19471 0.2176646,-1.81158 0.2176642,-1.81158 0.00307,-2.02847 0.00307,-2.02847 H 9.0440424 8.5148757 v -0.88195 -0.88194 H 9.0440424 9.573209 v -0.52917 -0.52917 H 8.5148757 7.4565424 v -0.35277 -0.35278 H 6.3982091 5.3398758 v -0.70556 -0.70555 h 1.5875 1.5874999 v 0.35277 0.35278 h 0.4523295 0.4523296 l 0.027182,-1.88039 0.027181,-1.88039 -1.6207789,-0.43349 -1.6207792,-0.43349 -1.4920824,-1.60225 -1.4920827,-1.60225 -0.2210816,-0.69656 -0.2210813,-0.69657 0.1912141,-0.19121 0.191214,-0.19122 3.104191,0.62811 3.1041911,0.62811 7.4083331,-0.0117 7.408333,-0.0117 3.126744,-0.59382 3.126743,-0.59383 0.193756,0.19375 0.193757,0.19376 -0.366692,0.8048 -0.366691,0.8048 -0.998937,1.18717 -0.998936,1.18717 -1.425705,0.64761 -1.425707,0.6476 -0.79375,0.008 -0.79375,0.008 v 0.70555 0.70556 h 0.352777 0.352778 v 0.70555 0.70556 H 24.037097 23.68432 v 0.52917 0.52916 h 0.529166 0.529167 v -0.3721 -0.37211 l 1.675694,0.10752 1.675695,0.10753 v 0.52916 0.52917 l -1.146528,0.11054 -1.146528,0.11055 v 0.33043 0.33042 H 24.742653 23.68432 v 0.52917 0.52917 h 0.529166 0.529167 v 0.88194 0.88195 H 24.213486 23.68432 v 2.64583 2.64583 h 0.306267 0.306267 l 0.06203,2.91042 0.06203,2.91041 0.190259,0.75848 0.190259,0.75847 h 1.20435 1.204349 l -0.169447,-0.27417 -0.169448,-0.27417 0.803944,-1.18986 0.803943,-1.18986 1.409532,-0.0306 1.409533,-0.0306 0.939528,-0.93953 0.939532,-0.93953 h 0.88138 0.88138 l 0.898546,0.4094 0.898543,0.4094 v 0.33276 0.33276 l -1.269111,2.41512 -1.269111,2.41512 -2.032533,2.04619 -2.032533,2.04619 -2.254606,1.33226 -2.254606,1.33225 -2.293055,0.73183 -2.293056,0.73182 -3.174999,0.13483 -3.175,0.13484 z m 9.083852,-13.0482 v -3.68335 l 0.352778,-0.21803 0.352778,-0.21803 v -2.40748 -2.40747 l -0.705556,-0.18451 -0.705555,-0.18451 v -0.59522 -0.59522 l 0.705555,-0.18451 0.705556,-0.1845 v -0.29082 -0.29081 l -0.420153,-0.25967 -0.420152,-0.25967 -0.138412,0.41524 -0.138413,0.41524 h -0.655337 -0.655338 l -0.218029,-0.35278 -0.218028,-0.35278 H 17.541638 15.67393 l -2.168416,0.22665 -2.168416,0.22664 v 0.30252 0.30253 h 0.529166 0.529167 v 0.88194 0.88195 h -0.529167 -0.529166 l -0.0059,1.4993 -0.0059,1.49931 0.428034,4.85069 0.428034,4.85069 h 4.693153 4.693152 z m -16.6803502,-3.24392 0.1318589,-0.40087 -1.0743653,-0.37453 -1.074365,-0.37452 v 0.62841 0.6284 l 0.2500662,0.25007 0.2500662,0.25007 0.6924403,-0.10308 0.6924403,-0.10307 z M 3.5426184,198.4603 4.0151561,197.84293 H 3.442794 2.8704314 v 0.76436 0.76435 l 0.099825,-0.14699 0.099824,-0.14699 z m 9.5583686,-7.14375 v -0.52917 h -0.881945 -0.881944 v 0.52917 0.52916 h 0.881944 0.881945 z m 2.822222,-0.17639 v -0.35278 h -0.684736 -0.684735 l -0.218029,0.35278 -0.218029,0.35277 h 0.902764 0.902765 z m 3.175,0 v -0.35278 H 18.216264 17.33432 v 0.35278 0.35277 h 0.881944 0.881945 z m 2.822222,0 v -0.35278 h -0.881945 -0.881944 v 0.35278 0.35277 h 0.881944 0.881945 z m -5.997222,-2.46945 v -0.70555 h -2.293056 -2.293055 v 0.70555 0.70556 h 2.293055 2.293056 z m 6.099439,0 0.184507,-0.70555 h -2.260029 -2.260028 v 0.70555 0.70556 h 2.075521 2.075522 z M 8.1620979,202.82515 v -0.42703 l -0.5807625,0.10365 -0.5807628,0.10366 -0.1541911,-0.44097 -0.154191,-0.44097 h 0.7460254 0.7460259 l 0.2088984,0.54438 0.2088988,0.54438 -0.2199704,0.21997 -0.2199707,0.21997 z m 23.1657411,-5.92296 -0.235186,-0.23518 v -0.47037 -0.47037 h 0.529166 0.529167 v 0.70555 0.70556 h -0.29398 -0.293984 z m -22.2276274,-16.60726 -0.1860035,-0.30096 0.2938964,-0.47553 0.2938963,-0.47554 0.5941072,0.22798 0.594107,0.22798 -0.146764,0.44079 -0.146765,0.44079 -0.5552354,0.10772 -0.5552358,0.10773 z"
           id="path3301" />
        <path
           style="fill:#cfcfcf;stroke-width:0.352778"
           d="m 12.527557,218.15283 -2.160931,-0.49211 -1.9729944,-0.93337 -1.9729947,-0.93338 -2.1009129,-1.5466 -2.1009126,-1.54661 -1.38814454,-1.87266 -1.38814418,-1.87267 -0.61719708,-1.08225 -0.6171968,-1.08226 0.7872939,-1.73997 0.78729381,-1.73996 0.48552416,-0.28211 0.48552416,-0.28212 v -0.55221 -0.55221 l -0.86953263,0.56974 -0.86953243,0.56974 H -1.5268788 -2.0684573 v -0.48423 -0.48424 l 1.57961784,-1.45604 1.57961786,-1.45604 h 0.5370487 0.5370488 v 0.46174 0.46174 l -0.5179473,0.68479 -0.5179469,0.68478 -0.01122,0.64323 -0.011219,0.64323 0.6173611,-0.11771 0.6173611,-0.11771 0.091938,-2.28941 0.091937,-2.2894 -1.76763184,-0.77127 -1.76763216,-0.77127 v -0.55165 -0.55165 l 1.49930551,0.008 1.49930549,0.008 1.4993055,0.68056 1.4993055,0.68056 v 0.33518 0.33518 l 1.2692204,0.74885 1.2692203,0.74886 -0.2193925,0.57173 -0.2193929,0.57173 0.5923485,0.65454 0.5923484,0.65453 H 7.3523594 6.4332682 l -0.3969438,-0.61736 -0.3969442,-0.61736 0.1919538,0.61736 0.1919535,0.61736 H 5.6607618 5.298236 l 0.2135227,0.34549 0.2135229,0.34549 -0.3357439,0.62734 -0.3357435,0.62734 0.6147558,0.7592 0.6147559,0.75919 0.4984238,-0.31551 0.4984238,-0.31551 0.9210001,-0.005 0.9210001,-0.005 0.2224613,-1.85209 0.2224613,-1.85208 0.00307,-2.02847 0.00307,-2.02847 H 9.0440424 8.5148757 v -0.88195 -0.88194 H 9.0440424 9.573209 v -0.52917 -0.52917 H 8.5148757 7.4565424 v -0.35277 -0.35278 H 6.3982091 5.3398758 v -0.70556 -0.70555 h 1.5875 1.5874999 v 0.35277 0.35278 h 0.4523295 0.4523296 l 0.027182,-1.88039 0.027181,-1.88039 -1.6207789,-0.43349 -1.6207792,-0.43349 -1.4920824,-1.60225 -1.4920827,-1.60225 -0.2210816,-0.69656 -0.2210813,-0.69657 0.1686617,-0.16866 0.1686616,-0.16866 3.1267435,0.60954 3.1267434,0.60954 7.4083331,-0.008 7.408333,-0.008 2.116667,-0.38492 2.116666,-0.38491 1.146528,-0.24188 1.146526,-0.24189 v 0.52033 0.52034 l -1.069002,1.47571 -1.069003,1.47572 -1.135858,0.69822 -1.135859,0.69823 -1.322917,0.21713 -1.322916,0.21713 v 0.66047 0.66047 h 0.352777 0.352778 v 0.70555 0.70556 H 24.037097 23.68432 v 0.52917 0.52916 h 0.529166 0.529167 v -0.3721 -0.37211 l 1.675694,0.10752 1.675695,0.10753 v 0.52916 0.52917 l -1.146528,0.11054 -1.146528,0.11055 v 0.33043 0.33042 H 24.742653 23.68432 v 0.52917 0.52917 h 0.529166 0.529167 v 0.88194 0.88195 h -0.565367 -0.565368 l 0.201835,2.91041 0.201835,2.91042 0.202367,2.64583 0.202367,2.64583 0.159033,0.75848 0.159032,0.75847 h 1.235872 1.235872 l -0.169447,-0.27417 -0.169448,-0.27417 0.803944,-1.18986 0.803943,-1.18986 1.409532,-0.0306 1.409533,-0.0306 0.939528,-0.93953 0.939532,-0.93953 h 0.88138 0.88138 l 0.898546,0.4094 0.898543,0.4094 v 0.33276 0.33276 l -1.269111,2.41512 -1.269111,2.41512 -2.032533,2.04619 -2.032533,2.04619 -2.254606,1.33226 -2.254606,1.33225 -2.293055,0.73183 -2.293056,0.73182 -3.174999,0.13483 -3.175,0.13484 z m 9.040096,-13.05713 v -3.68335 l 0.352778,-0.21803 0.352778,-0.21803 v -2.40748 -2.40747 l -0.705556,-0.18451 -0.705555,-0.18451 v -0.59522 -0.59522 l 0.705555,-0.18451 0.705556,-0.1845 v -0.29082 -0.29081 l -0.420153,-0.25967 -0.420152,-0.25967 -0.138412,0.41524 -0.138413,0.41524 h -0.655337 -0.655338 l -0.218029,-0.35278 -0.218028,-0.35278 H 17.541638 15.67393 l -2.168416,0.22665 -2.168416,0.22664 v 0.30252 0.30253 h 0.529166 0.529167 v 0.88194 0.88195 h -0.582098 -0.582097 l 0.244089,4.32152 0.244088,4.32153 0.211876,2.02847 0.211875,2.02847 h 4.712245 4.712244 z M 4.987098,201.87033 v -0.51708 L 4.0821878,201.0092 3.1772779,200.66516 H 3.0238545 2.8704314 v 0.8574 0.85741 l 0.79375,0.13082 0.79375,0.13082 0.2645833,-0.1271 0.2645833,-0.1271 z m -1.411111,-3.32184 0.377602,-0.70556 H 3.4120102 2.8704314 v 0.70556 0.70556 h 0.1639768 0.1639767 z m 9.525,-7.23194 v -0.52917 h -0.881945 -0.881944 v 0.52917 0.52916 h 0.881944 0.881945 z m 2.822222,-0.17639 v -0.35278 h -0.684736 -0.684735 l -0.218029,0.35278 -0.218029,0.35277 h 0.902764 0.902765 z m 3.175,0 v -0.35278 H 18.216264 17.33432 v 0.35278 0.35277 h 0.881944 0.881945 z m 2.822222,0 v -0.35278 h -0.881945 -0.881944 v 0.35278 0.35277 h 0.881944 0.881945 z m -5.997222,-2.46945 v -0.70555 h -2.293056 -2.293055 v 0.70555 0.70556 h 2.293055 2.293056 z m 6.099439,0 0.184507,-0.70555 h -2.260029 -2.260028 v 0.70555 0.70556 h 2.075521 2.075522 z M 6.7509869,202.07627 v -0.35278 h 0.7055555 0.7055555 v 0.35278 0.35278 H 7.4565424 6.7509869 Z m 24.5768521,-5.17408 -0.235186,-0.23518 v -0.47037 -0.47037 h 0.529166 0.529167 v 0.70555 0.70556 h -0.29398 -0.293984 z m -22.2276274,-16.60726 -0.1860035,-0.30096 0.2938964,-0.47553 0.2938963,-0.47554 0.5941072,0.22798 0.594107,0.22798 -0.146764,0.44079 -0.146765,0.44079 -0.5552354,0.10772 -0.5552358,0.10773 z"
           id="path3299" />
        <path
           style="fill:#c4c4c4;stroke-width:0.352778"
           d="m 14.335709,218.43325 -1.058333,-0.16288 -1.925211,-0.54344 -1.9252099,-0.54345 -1.7789563,-0.89023 -1.7789564,-0.89023 -1.8278657,-1.39593 -1.8278658,-1.39593 -1.38477552,-1.82786 -1.38477586,-1.82787 -0.61781532,-1.08225 -0.6178154,-1.08226 0.7872939,-1.73997 0.78729381,-1.73996 0.48552416,-0.28211 0.48552416,-0.28212 v -0.55221 -0.55221 l -0.86953263,0.56974 -0.86953243,0.56974 H -1.5268788 -2.0684573 v -0.48423 -0.48424 l 1.57961784,-1.45604 1.57961786,-1.45604 h 0.5370487 0.5370488 v 0.46174 0.46174 l -0.5179473,0.68479 -0.5179469,0.68478 -0.01122,0.64323 -0.011219,0.64323 0.6173611,-0.11771 0.6173611,-0.11771 0.091938,-2.28941 0.091937,-2.2894 -1.76763184,-0.77127 -1.76763216,-0.77127 v -0.55165 -0.55165 l 1.49930551,0.008 1.49930549,0.008 1.4993055,0.68056 1.4993055,0.68056 v 0.33518 0.33518 l 1.2692204,0.74885 1.2692203,0.74886 -0.2193925,0.57173 -0.2193929,0.57173 0.5923485,0.65454 0.5923484,0.65453 H 7.3523594 6.4332682 l -0.3969438,-0.61736 -0.3969442,-0.61736 0.1919538,0.61736 0.1919535,0.61736 H 5.6607618 5.298236 l 0.2135227,0.34549 0.2135229,0.34549 -0.3357439,0.62734 -0.3357435,0.62734 0.609099,0.75221 0.6090991,0.7522 0.5628393,-0.31498 0.5628389,-0.31498 0.8144577,0.0892 0.8144573,0.0893 0.2471628,-1.5875 0.2471628,-1.5875 0.026149,-2.34351 0.026149,-2.34351 -0.5291666,-0.20306 -0.5291667,-0.20306 v -0.71663 -0.71662 H 9.0440424 9.573209 v -0.52917 -0.52917 H 8.6912646 7.8093202 v -0.35277 -0.35278 H 6.574598 5.3398758 v -0.70556 -0.70555 h 1.5875 1.5874999 v 0.35277 0.35278 h 0.5083468 0.5083467 l 0.2424049,-0.39222 0.2424049,-0.39222 -0.4236247,-0.26181 -0.4236251,-0.26182 0.2320276,-1.23681 0.2320276,-1.23681 -1.6242763,-0.409 -1.6242764,-0.409 -1.3161281,-1.32684 -1.3161277,-1.32685 -0.5003,-0.95889 -0.5003002,-0.95889 0.195779,-0.19578 0.1957786,-0.19577 3.1267434,0.60954 3.1267434,0.60954 7.4083329,-0.008 7.408333,-0.008 2.116667,-0.38492 2.116667,-0.38491 1.146527,-0.24188 1.146528,-0.24189 v 0.50376 0.50377 l -1.075491,1.46244 -1.075491,1.46244 -1.12937,0.69411 -1.12937,0.6941 -1.322917,0.24527 -1.322916,0.24527 v 0.66629 0.6663 h 0.352777 0.352778 v 0.70555 0.70556 H 24.037097 23.68432 v 0.52917 0.52916 h 0.508346 0.508347 l 0.218029,-0.35278 0.218029,-0.35277 h 1.390291 1.390291 v 0.70555 0.70556 h -1.037514 -1.037513 l -0.218029,0.35278 -0.218028,0.35277 H 24.545444 23.68432 v 0.52917 0.52917 h 0.529166 0.529167 v 0.91968 0.91969 l -0.564358,-0.21656 -0.564358,-0.21657 0.199208,3.08924 0.199209,3.08924 0.203984,2.64583 0.203984,2.64583 0.167887,0.79375 0.167886,0.79375 h 1.199971 1.199971 l 0.235075,-1.07028 0.235074,-1.07029 0.83289,-0.54573 0.83289,-0.54573 1.054775,0.11064 1.054776,0.11064 0.913546,-0.85823 0.913546,-0.85824 h 1.230119 1.230115 l 0.563904,0.56391 0.563905,0.5639 -1.186303,2.23501 -1.186307,2.23501 -2.170434,2.29872 -2.170432,2.29873 -1.944747,1.17143 -1.944747,1.17143 -2.535258,0.85774 -2.535259,0.85774 -2.874561,0.14535 -2.874562,0.14535 z m 7.231944,-13.35837 v -3.70417 h 0.352778 0.352778 v -2.60469 -2.60468 l -0.705556,-0.18451 -0.705555,-0.18451 v -0.59522 -0.59522 l 0.705555,-0.18451 0.705556,-0.1845 v -0.43395 -0.43394 l -5.468056,-0.02 -5.468055,-0.02 v 0.49508 0.49509 h 0.529166 0.529167 v 0.70555 0.70556 H 11.8125 11.229569 l 0.235931,4.41325 0.235931,4.41325 0.220867,2.11314 0.220866,2.11313 h 4.712245 4.712244 z M 4.987098,201.87033 v -0.51708 L 4.0821878,201.0092 3.1772779,200.66516 H 3.0238545 2.8704314 v 0.8574 0.85741 l 0.79375,0.13082 0.79375,0.13082 0.2645833,-0.1271 0.2645833,-0.1271 z m -1.411111,-3.32184 0.377602,-0.70556 H 3.4120102 2.8704314 v 0.70556 0.70556 h 0.1639768 0.1639767 z m 9.791775,-7.32014 0.144799,-0.44097 h -1.087732 -1.087731 v 0.5526 0.5526 l 0.942933,-0.11163 0.942933,-0.11163 z m 2.654609,0.0882 -0.07723,-0.35278 -0.892912,-0.11163 -0.892912,-0.11163 v 0.31742 0.31741 l 0.250066,0.25007 0.250066,0.25006 0.720073,-0.10307 0.720073,-0.10308 z m 3.075838,0 v -0.52917 H 18.216264 17.33432 v 0.29398 0.29398 l 0.235185,0.23519 0.235185,0.23518 h 0.64676 0.646759 z m 3.175,0 v -0.52917 h -1.058334 -1.058333 v 0.52917 0.52916 h 1.058333 1.058334 z m -6.35,-2.64584 v -0.70555 h -2.293056 -2.293055 v 0.70555 0.70556 h 2.293055 2.293056 z m 6.35,0 v -0.70555 H 19.803764 17.33432 v 0.70555 0.70556 h 2.469444 2.469445 z M 6.7509869,202.07627 v -0.35278 h 0.7055555 0.7055555 v 0.35278 0.35278 H 7.4565424 6.7509869 Z m 24.5216111,-5.28591 -0.221585,-0.35854 0.218029,-0.35277 0.218027,-0.35278 h 0.33196 0.331957 v 0.50834 0.50835 l -0.328401,0.20296 -0.328401,0.20297 z m -21.9898394,-16.78134 0.1140615,-0.5478 0.3479465,-0.0696 0.3479464,-0.0696 0.118893,0.61736 0.118893,0.61736 H 9.7495979 9.1686971 Z"
           id="path3297" />
        <path
           style="fill:#bbbbbb;stroke-width:0.352778"
           d="m 14.335709,218.43325 -1.058333,-0.16288 -1.940278,-0.54397 -1.9402779,-0.54397 -2.4104179,-1.26211 -2.410418,-1.2621 -2.0050604,-1.97418 -2.0050604,-1.97416 -0.96438258,-1.6456 -0.96438262,-1.6456 v -0.66466 -0.66467 l 0.67781443,-1.40292 0.67781425,-1.40291 0.89917056,-0.48122 0.89917016,-0.48122 1.157043,0.0813 1.157043,0.0813 0.5921625,0.0483 0.5921629,0.0483 -0.04975,0.18898 -0.04975,0.18899 0.4425382,0.79824 0.4425385,0.79823 0.6835045,-0.3658 0.6835045,-0.3658 0.8363172,0.2099 0.8363175,0.2099 0.2292548,-2.19339 0.2292547,-2.19339 v -1.85078 -1.85079 l -0.5291666,-0.20306 -0.5291667,-0.20306 v -0.71663 -0.71662 H 9.0440424 9.573209 v -0.52917 -0.52917 H 8.6912646 7.8093202 v -0.35277 -0.35278 H 6.574598 5.3398758 v -0.70556 -0.70555 h 1.5875 1.5874999 v 0.35277 0.35278 h 0.5083468 0.5083467 l 0.2424049,-0.39222 0.2424049,-0.39222 -0.4236247,-0.26181 -0.4236251,-0.26182 0.2320276,-1.23681 0.2320276,-1.23681 -1.6242763,-0.409 -1.6242764,-0.409 -1.3161281,-1.32684 -1.3161277,-1.32685 -0.5003,-0.95889 -0.5003002,-0.95889 0.1957557,-0.19575 0.1957553,-0.19576 2.9503778,0.63258 2.9503779,0.63257 8.1138886,-0.0228 8.113889,-0.0228 2.40314,-0.59094 2.403141,-0.59094 h 0.330887 0.330887 v 0.45967 0.45967 l -1.075491,1.46244 -1.075491,1.46244 -1.12937,0.69411 -1.12937,0.6941 -1.322917,0.24527 -1.322916,0.24527 v 0.66629 0.6663 h 0.352777 0.352778 v 0.70555 0.70556 H 24.037097 23.68432 v 0.52917 0.52916 h 0.508346 0.508347 l 0.218029,-0.35278 0.218029,-0.35277 h 1.390291 1.390291 v 0.70555 0.70556 h -1.037514 -1.037513 l -0.218029,0.35278 -0.218028,0.35277 H 24.545444 23.68432 v 0.52917 0.52917 h 0.529166 0.529167 v 0.91968 0.91969 l -0.580266,-0.22267 -0.580266,-0.22267 0.263314,3.8009 0.263314,3.8009 0.228757,2.64583 0.228758,2.64584 1.290632,0.10756 1.290632,0.10757 0.239329,-1.08966 0.239329,-1.08966 0.83289,-0.54573 0.83289,-0.54573 1.054775,0.11064 1.054776,0.11064 0.913546,-0.85823 0.913546,-0.85824 h 1.230119 1.230115 l 0.563904,0.56391 0.563905,0.5639 -1.186303,2.23501 -1.186307,2.23501 -2.170434,2.29872 -2.170432,2.29873 -1.944747,1.17143 -1.944747,1.17143 -2.535258,0.85774 -2.535259,0.85774 -2.874561,0.14535 -2.874562,0.14535 z m 7.296568,-12.56462 0.06462,-2.91042 -0.04284,-0.79375 -0.04284,-0.79375 h 0.330998 0.330999 v -2.60469 -2.60468 l -0.705556,-0.18451 -0.705555,-0.18451 v -0.59522 -0.59522 l 0.705555,-0.18451 0.705556,-0.1845 v -0.43395 -0.43394 l -5.468056,-0.02 -5.468055,-0.02 v 0.49508 0.49509 h 0.529166 0.529167 v 0.70555 0.70556 h -0.57868 -0.578681 l 0.236532,5.02708 0.236532,5.02708 0.205815,1.49931 0.205816,1.4993 h 4.722444 4.722444 z m -8.264515,-14.64028 0.144799,-0.44097 h -1.087732 -1.087731 v 0.5526 0.5526 l 0.942933,-0.11163 0.942933,-0.11163 z m 2.654609,0.0882 -0.07723,-0.35278 -0.892912,-0.11163 -0.892912,-0.11163 v 0.31742 0.31741 l 0.250066,0.25007 0.250066,0.25006 0.720073,-0.10307 0.720073,-0.10308 z m 3.075838,0 v -0.52917 H 18.216264 17.33432 v 0.29398 0.29398 l 0.235185,0.23519 0.235185,0.23518 h 0.64676 0.646759 z m 3.175,0 v -0.52917 h -1.058334 -1.058333 v 0.52917 0.52916 h 1.058333 1.058334 z m -6.35,-2.64584 v -0.70555 h -2.293056 -2.293055 v 0.70555 0.70556 h 2.293055 2.293056 z m 6.35,0 v -0.70555 H 19.803764 17.33432 v 0.70555 0.70556 h 2.469444 2.469445 z m -24.1563387,13.7728 -0.1900455,-0.3075 0.9263248,-1.10088 0.92632489,-1.10087 1.04909546,-0.54251 1.04909585,-0.54251 0.1913918,0.19139 0.1913918,0.1914 -0.5769536,0.88054 -0.5769532,0.88054 v 0.5624 0.5624 l -0.3682312,-0.22758 -0.36823119,-0.22758 -0.42551878,0.32838 -0.42551878,0.32839 -0.60606335,0.21574 -0.6060634,0.21575 z m 8.8105055,-0.36724 0.2180286,-0.35278 h 0.5083468 0.5083467 v 0.35278 0.35278 H 7.4357225 6.7093471 Z m -4.3745572,-1.35457 -0.035165,-1.17817 0.7937499,-0.66674 0.79375,-0.66674 -0.5291666,-0.34864 -0.5291667,-0.34864 -0.1141476,0.33113 -0.1141476,0.33114 -0.415019,-0.36899 -0.4150191,-0.369 -1.3836854,-0.7672 -1.38368517,-0.76719 -0.16327945,-0.49576 -0.16327948,-0.49575 1.81135232,0.21452 1.81135228,0.21453 1.234918,0.58601 1.2349179,0.58601 v 0.44617 0.44617 l 1.0583333,0.43837 1.0583333,0.43838 v 0.76859 0.76859 l 0.4174536,0.41745 0.4174539,0.41746 -0.2144793,0.21448 -0.2144794,0.21448 -0.7321408,-0.23238 -0.7321413,-0.23237 -0.022361,-0.59359 -0.022362,-0.59359 -0.3190483,0.79375 -0.3190487,0.79375 H 4.4901192 3.6176267 l -0.2703378,-0.43741 -0.2703378,-0.43742 -0.2444838,0.87839 -0.2444839,0.87839 z m 28.7197794,-3.93134 -0.221585,-0.35854 0.218029,-0.35277 0.218027,-0.35278 h 0.33196 0.331957 v 0.50834 0.50835 l -0.328401,0.20296 -0.328401,0.20297 z m -21.9898394,-16.78134 0.1140615,-0.5478 0.3479465,-0.0696 0.3479464,-0.0696 0.118893,0.61736 0.118893,0.61736 H 9.7495979 9.1686971 Z"
           id="path3295" />
        <path
           style="fill:#afafaf;stroke-width:0.352778"
           d="m 14.323064,218.29244 -2.129312,-0.28187 -2.044907,-0.71873 -2.0449064,-0.71872 -1.6466145,-0.96192 -1.646615,-0.96192 -2.022501,-1.92479 -2.02250103,-1.92479 -1.06430442,-1.65857 -1.06430445,-1.65858 v -0.6966 -0.6966 l 0.67781443,-1.40292 0.67781425,-1.40291 0.89917056,-0.48122 0.89917016,-0.48122 1.157043,0.0813 1.157043,0.0813 0.5921625,0.0483 0.5921629,0.0483 -0.04975,0.18898 -0.04975,0.18899 0.4341566,0.78258 0.4341569,0.78257 0.8376531,-0.31848 0.8376532,-0.31847 0.6903116,0.18052 0.6903117,0.18052 0.2294936,-2.19567 0.2294932,-2.19568 v -2.06492 -2.06491 H 9.0440424 8.5148757 v -0.52917 -0.52917 H 9.0440424 9.573209 v -0.70555 -0.70556 H 8.6912646 7.8093202 v -0.33042 -0.33043 l -1.1465278,-0.11055 -1.1465277,-0.11054 v -0.52917 -0.52916 l 1.4993055,-0.10848 1.4993055,-0.10848 v 0.37306 0.37306 h 0.7055555 0.7055556 v -0.49977 -0.49976 l -0.4310296,-0.14368 -0.4310295,-0.14368 0.3814413,-1.24285 0.3814414,-1.24285 -1.7423246,-0.44654 -1.7423246,-0.44654 -1.2005299,-1.20053 -1.2005303,-1.20054 -0.5613474,-1.08552 -0.5613474,-1.08553 0.1624404,-0.16244 0.1624401,-0.16244 2.9503778,0.63071 2.9503779,0.63071 7.9374996,-0.004 7.9375,-0.004 2.76244,-0.63847 2.762439,-0.63848 0.207305,0.20731 0.207305,0.2073 -0.500301,0.95889 -0.500299,0.95889 -1.276626,1.28734 -1.276625,1.28735 -1.81018,0.43425 -1.81018,0.43426 v 0.67037 0.67037 h 0.352777 0.352778 v 0.70555 0.70556 H 24.037097 23.68432 v 0.52917 0.52916 h 0.705555 0.705556 v -0.35278 -0.35277 h 1.411111 1.411111 v 0.70555 0.70556 h -1.234722 -1.234723 v 0.35278 0.35277 H 24.566264 23.68432 v 0.70556 0.70555 h 0.529166 0.529167 v 0.52917 0.52917 h -0.57983 -0.57983 l 0.249323,3.61597 0.249324,3.61597 0.242312,2.88172 0.242312,2.88171 0.176389,0.16328 0.176389,0.16328 1.086977,-0.16588 1.086977,-0.16587 0.435077,-1.20319 0.435078,-1.20319 0.723319,-0.3871 0.72332,-0.38711 1.079509,0.15844 1.079509,0.15843 0.774537,-0.90045 0.774541,-0.90046 h 1.285477 1.28548 l 0.563904,0.56391 0.563905,0.5639 -1.186303,2.24068 -1.186307,2.24068 -2.469445,2.51242 -2.469444,2.51243 -2.490514,1.25056 -2.490514,1.25057 -1.919208,0.52952 -1.919208,0.52953 -2.116667,0.16415 -2.116667,0.16415 z m 7.309213,-12.42381 0.06462,-2.91042 -0.04284,-0.79375 -0.04284,-0.79375 h 0.330998 0.330999 v -2.82222 -2.82222 H 21.744047 21.21488 v -0.49143 -0.49142 l 0.529167,-0.20306 0.529167,-0.20306 v -0.5492 -0.54919 l -5.527242,0.0971 -5.527241,0.0971 -0.154371,0.46428 -0.154369,0.46428 0.742722,0.19423 0.742723,0.19422 v 0.44688 0.44688 l -0.705555,0.1845 -0.705556,0.18451 v 2.48165 2.48165 l 0.352778,0.21803 0.352778,0.21803 0.0039,2.36043 0.0039,2.36043 0.218665,1.32292 0.218665,1.32291 h 4.716341 4.716342 z m -8.178513,-14.55208 v -0.52917 h -1.058333 -1.058333 v 0.52917 0.52916 h 1.058333 1.058333 z m 2.822223,0 v -0.52917 H 15.217653 14.15932 v 0.52917 0.52916 h 1.058333 1.058334 z m 3.174999,0 v -0.52917 H 18.392653 17.33432 v 0.52917 0.52916 h 1.058333 1.058333 z m 2.822223,0 v -0.52917 h -1.058334 -1.058333 v 0.52917 0.52916 h 1.058333 1.058334 z m -5.997222,-2.64584 v -0.70555 h -2.469445 -2.469444 v 0.70555 0.70556 h 2.469444 2.469445 z m 5.997222,0 v -0.70555 H 19.803764 17.33432 v 0.70555 0.70556 h 2.469444 2.469445 z m -24.1563387,13.7728 -0.1900455,-0.3075 0.9263248,-1.10088 0.92632489,-1.10087 1.04909546,-0.54251 1.04909585,-0.54251 0.1913918,0.19139 0.1913918,0.1914 -0.5769536,0.88054 -0.5769532,0.88054 v 0.5624 0.5624 l -0.3682312,-0.22758 -0.36823119,-0.22758 -0.42551878,0.32838 -0.42551878,0.32839 -0.60606335,0.21574 -0.6060634,0.21575 z m 8.8105055,-0.36724 0.2180286,-0.35278 h 0.5083468 0.5083467 v 0.35278 0.35278 H 7.4357225 6.7093471 Z m -4.3745572,-1.35457 -0.035165,-1.17817 0.7937499,-0.66674 0.79375,-0.66674 -0.5291666,-0.34864 -0.5291667,-0.34864 -0.1141476,0.33113 -0.1141476,0.33114 -0.415019,-0.36899 -0.4150191,-0.369 -1.3836854,-0.7672 -1.38368517,-0.76719 -0.16327945,-0.49576 -0.16327948,-0.49575 1.81135232,0.21452 1.81135228,0.21453 1.234918,0.58601 1.2349179,0.58601 v 0.44617 0.44617 l 1.0583333,0.43837 1.0583333,0.43838 v 0.76859 0.76859 l 0.4174536,0.41745 0.4174539,0.41746 -0.2144793,0.21448 -0.2144794,0.21448 -0.7321408,-0.23238 -0.7321413,-0.23237 -0.022361,-0.59359 -0.022362,-0.59359 -0.3190483,0.79375 -0.3190487,0.79375 H 4.4901192 3.6176267 l -0.2703378,-0.43741 -0.2703378,-0.43742 -0.2444838,0.87839 -0.2444839,0.87839 z m 28.6074514,-4.31634 0.126411,-0.37923 h 0.335138 0.335139 l 0.126411,0.37923 0.126415,0.37924 H 31.621819 31.033856 Z M 9.2204312,180.02766 v -0.52917 h 0.5291667 0.5291671 v 0.52917 0.52916 H 9.7495979 9.2204312 Z"
           id="path3293" />
        <path
           style="fill:#acacac;stroke-width:0.352778"
           d="m 11.513487,217.64448 -2.1166669,-0.60929 -2.2930555,-1.20824 -2.2930555,-1.20823 -2.3812499,-2.35418 -2.3812499,-2.35417 v -0.37167 -0.37167 l 2.0284722,-0.12729 2.0284721,-0.12729 -2.3688378,-0.0667 -2.36883777,-0.0667 -0.36518997,-0.68236 -0.36518986,-0.68236 v -0.66249 -0.66248 l 0.67781443,-1.40292 0.67781425,-1.40291 0.89917056,-0.48122 0.89917016,-0.48122 1.157043,0.0813 1.157043,0.0813 0.5921625,0.0483 0.5921629,0.0483 -0.04975,0.18898 -0.04975,0.18899 0.4341566,0.78258 0.4341569,0.78257 0.8376531,-0.31848 0.8376532,-0.31847 0.743416,0.19441 0.7434163,0.1944 v -1.43143 -1.43144 l 0.3527778,-0.21803 0.3527778,-0.21803 v -2.48165 -2.48165 l -0.7055556,-0.18451 -0.7055555,-0.1845 v -0.44688 -0.44688 l 0.7055555,-0.1845 0.7055556,-0.18451 v -0.56219 -0.5622 H 8.8676535 7.8093202 v -0.33042 -0.33043 l -1.1193597,-0.11055 -1.1193599,-0.11054 -0.1307134,-0.39883 -0.1307136,-0.39883 1.2960229,-0.24314 1.2960233,-0.24313 0.3773837,0.37738 0.3773833,0.37738 h 0.635 0.635 v -0.52916 -0.52917 H 9.573209 9.2204312 v -0.70556 -0.70555 H 9.573209 9.9259868 v -0.67753 -0.67752 L 8.779459,187.77375 7.6329313,187.52628 6.3530535,186.87856 5.0731762,186.23084 3.9718036,184.56807 2.8704314,182.9053 v -0.29229 -0.2923 l 0.2645834,2.9e-4 0.2645833,2.9e-4 2.6458332,0.59615 2.6458333,0.59615 8.2902774,-0.003 8.290278,-0.003 2.40314,-0.59311 2.403141,-0.59313 h 0.330887 0.330887 v 0.36034 0.36035 l -0.942447,1.42413 -0.942447,1.42413 -1.438803,0.82677 -1.438803,0.82678 -1.146528,0.239 -1.146527,0.23901 v 0.67752 0.67753 h 0.352777 0.352778 v 0.70555 0.70556 H 24.037097 23.68432 v 0.52917 0.52916 h 0.705555 0.705556 v -0.35278 -0.35277 h 1.411111 1.411111 v 0.49142 0.49142 l -0.558019,0.21414 -0.55802,0.21413 h -0.676703 -0.676703 v 0.35278 0.35277 H 24.566264 23.68432 v 0.70556 0.70555 h 0.529166 0.529167 v 0.52917 0.52917 h -0.576332 -0.576332 l 0.227467,3.43958 0.227467,3.43958 0.188674,2.46945 0.188674,2.46944 0.166912,0.79375 0.166912,0.79375 1.668973,-0.005 1.668974,-0.005 -0.516253,-0.32653 -0.516253,-0.32652 0.594323,-1.24631 0.594323,-1.24631 0.897729,-0.22532 0.89773,-0.22531 0.7369,0.1927 0.736902,0.19271 0.799222,-0.92915 0.799221,-0.92916 h 1.285477 1.28548 l 0.554411,0.55442 0.554415,0.55441 -0.785834,1.54461 -0.78583,1.54462 -1.544126,2.01028 -1.544129,2.01027 -1.492687,1.21028 -1.492688,1.21028 -1.940278,1.07104 -1.940277,1.07105 -2.41841,0.73548 -2.41841,0.73548 -3.402423,-0.0251 -3.402424,-0.0251 z m -3.6159724,-8.76786 -1.1465277,-0.14228 -1.1465278,0.14228 -1.1465277,0.14229 h 2.2930555 2.2930555 z m 13.7347624,-2.8316 0.06462,-3.08681 -0.04284,-0.79375 -0.04284,-0.79375 h 0.330998 0.330999 v -2.82222 -2.82222 H 21.744047 21.21488 v -0.52917 -0.52917 h 0.529167 0.529167 v -0.70555 -0.70556 h -5.64445 -5.644444 v 0.5622 0.56219 l 0.705556,0.18451 0.705555,0.1845 v 0.48803 0.48802 H 11.689876 10.98432 v 2.82222 2.82222 h 0.352778 0.352778 v 2.24382 2.24382 l 0.224339,1.63674 0.22434,1.63673 h 4.714549 4.714549 z m -8.178513,-14.72847 v -0.52917 H 12.219042 10.98432 v 0.52917 0.52916 h 1.234722 1.234722 z m 2.822223,0 v -0.52917 H 15.217653 14.15932 v 0.52917 0.52916 h 1.058333 1.058334 z m 3.174999,0 v -0.52917 H 18.392653 17.33432 v 0.52917 0.52916 h 1.058333 1.058333 z m 2.822223,0 v -0.52917 h -1.058334 -1.058333 v 0.52917 0.52916 h 1.058333 1.058334 z m -5.997222,-2.64584 v -0.70555 H 13.630153 10.98432 v 0.70555 0.70556 h 2.645833 2.645834 z m 5.997222,0 v -0.70555 H 19.803764 17.33432 v 0.70555 0.70556 h 2.469444 2.469445 z m -24.1563387,13.7728 -0.1900455,-0.3075 0.9263248,-1.10088 0.92632489,-1.10087 1.04909546,-0.54251 1.04909585,-0.54251 0.1913918,0.19139 0.1913918,0.1914 -0.5769536,0.88054 -0.5769532,0.88054 v 0.5624 0.5624 l -0.3682312,-0.22758 -0.36823119,-0.22758 -0.42551878,0.32838 -0.42551878,0.32839 -0.60606335,0.21574 -0.6060634,0.21575 z m 8.8105055,-0.36724 0.2180286,-0.35278 h 0.5083468 0.5083467 v 0.35278 0.35278 H 7.4357225 6.7093471 Z m -4.3745572,-1.35457 -0.035165,-1.17817 0.7937499,-0.66674 0.79375,-0.66674 -0.5291666,-0.34864 -0.5291667,-0.34864 -0.1141476,0.33113 -0.1141476,0.33114 -0.415019,-0.36899 -0.4150191,-0.369 -1.3836854,-0.7672 -1.38368517,-0.76719 -0.16327945,-0.49576 -0.16327948,-0.49575 1.81135232,0.21452 1.81135228,0.21453 1.234918,0.58601 1.2349179,0.58601 v 0.44617 0.44617 l 1.0583333,0.43837 1.0583333,0.43838 v 0.76859 0.76859 l 0.4174536,0.41745 0.4174539,0.41746 -0.2144793,0.21448 -0.2144794,0.21448 -0.7321408,-0.23238 -0.7321413,-0.23237 -0.022361,-0.59359 -0.022362,-0.59359 -0.3190483,0.79375 -0.3190487,0.79375 H 4.4901192 3.6176267 l -0.2703378,-0.43741 -0.2703378,-0.43742 -0.2444838,0.87839 -0.2444839,0.87839 z m 28.6074514,-4.31634 0.126411,-0.37923 h 0.335138 0.335139 l 0.126411,0.37923 0.126415,0.37924 H 31.621819 31.033856 Z M 9.4460256,180.31205 9.2204312,180.08645 v -0.29398 -0.29398 h 0.5291667 0.5291671 v 0.33196 0.33196 l -0.3035728,0.18761 -0.3035723,0.18762 z"
           id="path3291" />
        <path
           style="fill:#ababab;stroke-width:0.352778"
           d="m 11.513487,217.64448 -2.1166669,-0.60929 -2.2930555,-1.20824 -2.2930555,-1.20823 -2.3812499,-2.35418 -2.3812499,-2.35417 v -0.38928 -0.38927 l 2.0284722,-0.0391 2.0284721,-0.0391 2.3812499,0.0708 2.38125,0.0708 v -0.36067 -0.36067 l -0.6497578,-0.20622 -0.6497573,-0.20623 -0.7226244,-0.78768 -0.722624,-0.78769 0.1776995,-1.14653 0.1776998,-1.14653 0.5773208,-0.0549 0.5773212,-0.0549 0.79375,0.0682 0.7937499,0.0682 v -1.40364 -1.40365 l 0.3527778,-0.21803 0.3527778,-0.21803 v -2.48165 -2.48165 l -0.7055556,-0.18451 -0.7055555,-0.1845 v -0.44688 -0.44688 l 0.7055555,-0.1845 0.7055556,-0.18451 v -0.56219 -0.5622 H 8.8676535 7.8093202 v -0.33042 -0.33043 l -1.1193597,-0.11055 -1.1193599,-0.11054 -0.1307134,-0.39883 -0.1307136,-0.39883 1.2960229,-0.24314 1.2960233,-0.24313 0.3773837,0.37738 0.3773833,0.37738 h 0.635 0.635 v -0.52916 -0.52917 H 9.573209 9.2204312 v -0.70556 -0.70555 H 9.573209 9.9259868 v -0.67753 -0.67752 L 8.779459,187.77375 7.6329313,187.52628 6.3530535,186.87856 5.0731762,186.23084 3.9718036,184.56807 2.8704314,182.9053 v -0.29229 -0.2923 h 0.3308869 0.3308868 l 2.4031409,0.60347 2.4031408,0.60347 8.4666662,-0.0136 8.466667,-0.0136 2.580702,-0.5899 2.580702,-0.58991 h 0.153325 0.153326 v 0.36034 0.36035 l -0.942447,1.42413 -0.942447,1.42413 -1.438803,0.82677 -1.438803,0.82678 -1.146528,0.239 -1.146527,0.23901 v 0.67752 0.67753 h 0.352777 0.352778 v 0.70555 0.70556 H 24.037097 23.68432 v 0.52917 0.52916 h 0.705555 0.705556 v -0.35278 -0.35277 h 1.411111 1.411111 v 0.49142 0.49142 l -0.558019,0.21414 -0.55802,0.21413 h -0.676703 -0.676703 v 0.35278 0.35277 H 24.566264 23.68432 v 0.70556 0.70555 h 0.529166 0.529167 v 0.52917 0.52917 h -0.582017 -0.582017 l 0.271885,3.96875 0.271886,3.96875 0.221937,2.64583 0.221937,2.64583 1.763889,0.0961 1.763889,0.0961 -0.516253,-0.33982 -0.516253,-0.33982 0.594323,-1.2463 0.594323,-1.24631 0.897729,-0.22532 0.89773,-0.22531 0.7369,0.1927 0.736902,0.1927 0.799222,-0.92915 0.799221,-0.92915 h 1.285477 1.28548 l 0.554411,0.55441 0.554415,0.55442 -0.785834,1.54461 -0.78583,1.54462 -1.544126,2.01027 -1.544129,2.01028 -1.492687,1.21028 -1.492688,1.21028 -1.940278,1.07104 -1.940277,1.07105 -2.41841,0.73548 -2.41841,0.73548 -3.402423,-0.0251 -3.402424,-0.0251 z m 10.190978,-11.77585 0.234675,-3.2632 0.2142,-3.43958 0.214199,-3.43958 h -0.576332 -0.576332 v -0.52917 -0.52917 h 0.529167 0.529167 v -0.70555 -0.70556 H 16.628764 10.98432 v 0.5622 0.56219 l 0.705556,0.18451 0.705555,0.1845 v 0.48803 0.48802 H 11.689876 10.98432 v 2.82222 2.82222 h 0.352778 0.352778 l 0.0048,3.08681 0.0048,3.0868 0.212717,0.79375 0.212717,0.79375 h 4.672423 4.672422 l 0.234676,-3.26319 z m -8.250701,-14.55208 v -0.52917 H 12.219042 10.98432 v 0.52917 0.52916 h 1.234722 1.234722 z m 2.822223,0 v -0.52917 H 15.217653 14.15932 v 0.52917 0.52916 h 1.058333 1.058334 z m 3.174999,0 v -0.52917 H 18.392653 17.33432 v 0.52917 0.52916 h 1.058333 1.058333 z m 2.822223,0 v -0.52917 h -1.058334 -1.058333 v 0.52917 0.52916 h 1.058333 1.058334 z m -5.997222,-2.64584 v -0.70555 H 13.630153 10.98432 v 0.70555 0.70556 h 2.645833 2.645834 z m 5.997222,0 v -0.70555 H 19.803764 17.33432 v 0.70555 0.70556 h 2.469444 2.469445 z m -23.6287265,12.76546 0.73406252,-0.99287 1.06481171,-0.629 1.06481167,-0.629 0.200835,0.20084 0.2008353,0.20083 -0.5700042,1.15645 -0.57000417,1.15646 -0.008033,-0.30516 -0.008033,-0.30515 -0.86953263,0.56974 -0.86953243,0.56974 H -1.53744 -2.0895798 Z m 8.2828933,0.6401 0.2180286,-0.35278 h 0.5083468 0.5083467 v 0.35278 0.35278 H 7.4357225 6.7093471 Z m -3.8805555,-1.76389 -0.2180286,-0.35278 0.2286158,-0.36991 0.2286155,-0.36991 0.4938755,0.40989 0.4938755,0.40988 -0.1933244,0.3128 -0.1933246,0.31281 H 3.575987 3.264849 Z m -1.4111111,-3.20738 -1.05833325,-0.32152 -0.87667392,-0.68087 -0.87667353,-0.68086 0.24301587,-0.24302 0.24301594,-0.24302 1.6106245,0.24153 1.61062449,0.24153 -0.2040367,0.33014 -0.2040365,0.33014 h 0.411341 0.411341 l -0.1943142,0.50637 -0.1943142,0.50637 0.4211542,0.17133 0.4211542,0.17133 -0.3527778,-0.004 -0.3527778,-0.004 -1.0583333,-0.32152 z m 29.5245608,-0.69964 0.126411,-0.37923 h 0.335138 0.335139 l 0.126411,0.37923 0.126415,0.37924 H 31.621819 31.033856 Z M 9.4460256,180.31205 9.2204312,180.08645 v -0.29398 -0.29398 h 0.5291667 0.5291671 v 0.33196 0.33196 l -0.3035728,0.18761 -0.3035723,0.18762 z"
           id="path3289" />
        <path
           style="fill:#aaaaaa;stroke-width:0.352778"
           d="m 11.513487,217.64448 -2.1166669,-0.60929 -2.2930555,-1.20824 -2.2930555,-1.20823 -2.3812499,-2.35418 -2.3812499,-2.35417 v -0.38928 -0.38927 l 2.0284722,-0.0391 2.0284721,-0.0391 2.3275113,0.0683 2.3275116,0.0683 0.2276193,-2.41043 0.2276196,-2.41044 0.00251,-1.47848 0.00251,-1.47849 0.3527778,-0.21803 0.3527778,-0.21803 v -2.48165 -2.48165 l -0.7055556,-0.18451 -0.7055555,-0.1845 v -0.44688 -0.44688 l 0.7055555,-0.1845 0.7055556,-0.18451 v -0.56219 -0.5622 H 8.8676535 7.8093202 v -0.33042 -0.33043 l -1.1193597,-0.11055 -1.1193599,-0.11054 -0.1307134,-0.39883 -0.1307136,-0.39883 1.2960229,-0.24314 1.2960233,-0.24313 0.3773837,0.37738 0.3773833,0.37738 h 0.635 0.635 v -0.52916 -0.52917 H 9.573209 9.2204312 v -0.70556 -0.70555 H 9.573209 9.9259868 v -0.67753 -0.67752 L 8.779459,187.77431 7.6329313,187.5274 6.674082,187.0375 l -0.9588492,-0.4899 -0.9163241,-0.96691 -0.9163243,-0.96692 -0.504783,-0.95012 -0.5047827,-0.95012 0.3210154,-0.1984 0.3210158,-0.1984 2.4117183,0.60546 2.4117186,0.60546 8.4666662,-0.0139 8.466667,-0.0139 2.469444,-0.56738 2.469444,-0.56738 0.268598,0.26403 0.268597,0.26403 -1.046761,1.58032 -1.046761,1.58032 -1.338503,0.74093 -1.338503,0.74092 -1.146528,0.24277 -1.146527,0.24278 v 0.67752 0.67753 h 0.352777 0.352778 v 0.70555 0.70556 H 24.037097 23.68432 v 0.52917 0.52916 h 0.705555 0.705556 v -0.35278 -0.35277 h 1.411111 1.411111 v 0.49142 0.49142 l -0.558019,0.21414 -0.55802,0.21413 h -0.676703 -0.676703 v 0.35278 0.35277 H 24.566264 23.68432 v 0.70556 0.70555 h 0.529166 0.529167 v 0.52917 0.52917 h -0.582017 -0.582017 l 0.271885,3.96875 0.271886,3.96875 0.221937,2.64583 0.221937,2.64583 5.064668,-0.13523 5.064668,-0.13523 -0.449562,0.84002 -0.449559,0.84001 -1.969272,1.96528 -1.969276,1.96528 -2.293056,1.26749 -2.293055,1.26748 -2.41841,0.73676 -2.41841,0.73675 -3.402423,-0.0251 -3.402424,-0.0251 z m 10.190978,-11.77585 0.234675,-3.2632 0.2142,-3.43958 0.214199,-3.43958 h -0.576332 -0.576332 v -0.52917 -0.52917 h 0.529167 0.529167 v -0.70555 -0.70556 H 16.628764 10.98432 v 0.5622 0.56219 l 0.705556,0.18451 0.705555,0.1845 v 0.48803 0.48802 H 11.689876 10.98432 v 2.82222 2.82222 h 0.352778 0.352778 l 0.0048,3.08681 0.0048,3.0868 0.212717,0.79375 0.212717,0.79375 h 4.672423 4.672422 l 0.234676,-3.26319 z m -8.250701,-14.55208 v -0.52917 H 12.219042 10.98432 v 0.52917 0.52916 h 1.234722 1.234722 z m 2.822223,0 v -0.52917 H 15.217653 14.15932 v 0.52917 0.52916 h 1.058333 1.058334 z m 3.174999,0 v -0.52917 H 18.392653 17.33432 v 0.52917 0.52916 h 1.058333 1.058333 z m 2.822223,0 v -0.52917 h -1.058334 -1.058333 v 0.52917 0.52916 h 1.058333 1.058334 z m -5.997222,-2.64584 v -0.70555 H 13.630153 10.98432 v 0.70555 0.70556 h 2.645833 2.645834 z m 5.997222,0 v -0.70555 H 19.803764 17.33432 v 0.70555 0.70556 h 2.469444 2.469445 z m -23.6287265,12.76546 0.73406252,-0.99287 1.06481171,-0.629 1.06481167,-0.629 0.200835,0.20084 0.2008353,0.20083 -0.5700042,1.15645 -0.57000417,1.15646 -0.008033,-0.30516 -0.008033,-0.30515 -0.86953263,0.56974 -0.86953243,0.56974 H -1.53744 -2.0895798 Z m 8.2828933,0.6401 0.2180286,-0.35278 h 0.5083468 0.5083467 v 0.35278 0.35278 H 7.4357225 6.7093471 Z m -3.8805555,-1.76389 -0.2180286,-0.35278 0.2286158,-0.36991 0.2286155,-0.36991 0.4938755,0.40989 0.4938755,0.40988 -0.1933244,0.3128 -0.1933246,0.31281 H 3.575987 3.264849 Z m -1.4111111,-3.20738 -1.05833325,-0.32152 -0.87667392,-0.68087 -0.87667353,-0.68086 0.24301587,-0.24302 0.24301594,-0.24302 1.6106245,0.24153 1.61062449,0.24153 -0.2040367,0.33014 -0.2040365,0.33014 h 0.411341 0.411341 l -0.1943142,0.50637 -0.1943142,0.50637 0.4211542,0.17133 0.4211542,0.17133 -0.3527778,-0.004 -0.3527778,-0.004 -1.0583333,-0.32152 z m 29.5245608,-0.69964 0.126411,-0.37923 h 0.335138 0.335139 l 0.126411,0.37923 0.126415,0.37924 H 31.621819 31.033856 Z M 9.4460256,180.31205 9.2204312,180.08645 v -0.29398 -0.29398 h 0.5291667 0.5291671 v 0.33196 0.33196 l -0.3035728,0.18761 -0.3035723,0.18762 z"
           id="path3287" />
        <path
           style="fill:#a1a1a1;stroke-width:0.352778"
           d="m 11.513487,217.64448 -2.1166669,-0.60929 -2.2930555,-1.20824 -2.2930555,-1.20823 -2.3812499,-2.35418 -2.3812499,-2.35417 v -0.38928 -0.38927 l 2.0284722,-0.0391 2.0284721,-0.0391 2.3275113,0.0683 2.3275116,0.0683 0.2276193,-2.41043 0.2276196,-2.41044 0.00251,-1.47848 0.00251,-1.47849 0.3527778,-0.21803 0.3527778,-0.21803 v -2.48165 -2.48165 l -0.7055556,-0.18451 -0.7055555,-0.1845 v -0.44688 -0.44688 l 0.7055555,-0.1845 0.7055556,-0.18451 v -0.56219 -0.5622 H 8.8676535 7.8093202 v -0.33042 -0.33043 l -1.1193597,-0.11055 -1.1193599,-0.11054 -0.1307134,-0.39883 -0.1307136,-0.39883 1.2960229,-0.24314 1.2960233,-0.24313 0.3773837,0.37738 0.3773833,0.37738 h 0.635 0.635 v -0.52916 -0.52917 H 9.573209 9.2204312 v -0.70556 -0.70555 H 9.573209 9.9259868 v -0.67753 -0.67752 L 8.779459,187.77431 7.6329313,187.5274 6.674082,187.0375 l -0.9588492,-0.4899 -0.9163241,-0.96691 -0.9163243,-0.96692 -0.504783,-0.95012 -0.5047827,-0.95012 0.2713401,-0.1677 0.2713401,-0.16769 2.2850051,0.57749 2.285005,0.57749 h 8.819444 8.819444 l 2.293056,-0.58253 2.293055,-0.58253 0.268598,0.26256 0.268597,0.26257 -1.046761,1.58032 -1.046761,1.58032 -1.338503,0.74092 -1.338503,0.74092 -1.146528,0.24277 -1.146527,0.24278 v 0.67752 0.67753 h 0.352777 0.352778 v 0.70555 0.70556 H 24.037097 23.68432 v 0.52917 0.52916 h 0.705555 0.705556 v -0.35278 -0.35277 h 1.411111 1.411111 v 0.49142 0.49142 l -0.558019,0.21414 -0.55802,0.21413 h -0.676703 -0.676703 v 0.35278 0.35277 H 24.566264 23.68432 v 0.70556 0.70555 h 0.529166 0.529167 v 0.52917 0.52917 h -0.58338 -0.583381 l 0.270623,4.14514 0.270622,4.14514 0.224564,2.46944 0.224563,2.46944 5.064668,-0.13523 5.064668,-0.13523 -0.449562,0.84002 -0.449559,0.84001 -1.969272,1.96528 -1.969276,1.96528 -2.293056,1.26749 -2.293055,1.26748 -2.41841,0.73676 -2.41841,0.73675 -3.402423,-0.0251 -3.402424,-0.0251 z m 10.351765,-13.38178 0.407957,-4.86912 v -1.83366 -1.83365 h -0.529167 -0.529167 v -0.52917 -0.52917 h 0.529167 0.529167 v -0.70555 -0.70556 H 16.628764 10.98432 v 0.5622 0.56219 l 0.705556,0.18451 0.705555,0.1845 v 0.48803 0.48802 H 11.689876 10.98432 v 2.82222 2.82222 h 0.352778 0.352778 v 3.64537 3.64537 l 0.235185,0.23519 0.235185,0.23518 h 4.648525 4.648524 z m -8.411488,-12.94615 v -0.52917 H 12.219042 10.98432 v 0.52917 0.52916 h 1.234722 1.234722 z m 2.822223,0 v -0.52917 H 15.217653 14.15932 v 0.52917 0.52916 h 1.058333 1.058334 z m 3.174999,0 v -0.52917 H 18.392653 17.33432 v 0.52917 0.52916 h 1.058333 1.058333 z m 2.822223,0 v -0.52917 h -1.058334 -1.058333 v 0.52917 0.52916 h 1.058333 1.058334 z m -5.997222,-2.64584 v -0.70555 H 13.630153 10.98432 v 0.70555 0.70556 h 2.645833 2.645834 z m 5.997222,0 v -0.70555 H 19.803764 17.33432 v 0.70555 0.70556 h 2.469444 2.469445 z m 8.887061,7.73465 0.126411,-0.37923 h 0.335138 0.335139 l 0.126411,0.37923 0.126415,0.37924 H 31.621819 31.033856 Z M 9.4460256,180.31205 9.2204312,180.08645 v -0.29398 -0.29398 h 0.5291667 0.5291671 v 0.33196 0.33196 l -0.3035728,0.18761 -0.3035723,0.18762 z"
           id="path3285" />
        <path
           style="fill:#a0a0a0;stroke-width:0.352778"
           d="m 28.304966,214.2471 0.563702,-0.70556 0.24837,-0.43693 0.248371,-0.43693 -0.605361,0.2323 -0.60536,0.2323 0.25508,-0.41273 0.25508,-0.41273 h -5.115277 -5.115278 l -0.218029,-0.35278 -0.218028,-0.35277 H 17.3135 16.628764 v 0.35277 0.35278 l -0.617361,0.005 -0.617361,0.005 0.529167,0.34198 0.529166,0.34197 -1.234722,-0.0194 -1.234722,-0.0194 0.705556,-0.28126 0.705555,-0.28126 -5.9035587,-0.26569 -5.9035588,-0.26569 -0.6989642,0.18279 -0.6989639,0.18278 0.076134,-0.38876 0.076134,-0.38875 -0.4341788,-0.0161 -0.4341784,-0.0161 -0.5969476,-0.85227 -0.59694796,-0.85226 0.37620185,0.23251 0.37620151,0.2325 1.3604804,-0.47592 1.3604801,-0.47592 0.5291666,0.0808 0.5291667,0.0808 1.8041658,0.2476 1.8041658,0.2476 0.2131603,-0.55548 0.2131607,-0.55549 0.2394927,-3.70431 0.2394927,-3.70436 h 0.3008196 0.30082 v -2.82222 -2.82222 H 9.2204312 8.5148757 v -0.48802 -0.48803 l 0.7055555,-0.1845 0.7055556,-0.18451 v -0.56219 -0.5622 h -1.02059 -1.02059 L 7.6817466,192.72766 7.4786863,192.19849 H 6.5856699 5.6926536 v -0.39834 -0.39835 l 2.1166666,0.23947 2.1166666,0.23948 v -0.54669 -0.54668 H 9.573209 9.2204312 v -0.70556 -0.70555 H 9.573209 9.9259868 v -0.69884 -0.69883 l -0.9701389,-0.21179 -0.9701389,-0.21178 -0.9701124,-0.36689 -0.9701127,-0.36689 -1.0886955,-1.10374 -1.0886958,-1.10374 -0.4975369,-0.95012 -0.497537,-0.95012 0.2713401,-0.1677 0.2713401,-0.16769 2.2850051,0.57749 2.285005,0.57749 h 8.819444 8.819444 l 2.293056,-0.58253 2.293055,-0.58253 0.268598,0.26256 0.268597,0.26257 -1.06354,1.60565 -1.063539,1.60565 -1.498113,0.73944 -1.498114,0.73944 -0.998796,0.20481 -0.998797,0.2048 0.236055,1.3972 0.236055,1.3972 h -0.383786 -0.383786 v 0.53899 0.53899 l 2.293055,-0.23493 2.293056,-0.23493 v 0.4015 0.40149 h -1.069405 -1.069406 l -0.20306,0.52917 -0.20306,0.52916 H 24.528521 23.68432 v 0.70556 0.70555 h 0.529166 0.529167 v 0.52917 0.52917 H 24.213486 23.68432 l -0.0029,1.85208 -0.0029,1.85208 0.388535,4.40973 0.388535,4.40972 0.239161,0.47996 0.23916,0.47996 4.738056,-0.0572 4.738056,-0.0572 -0.667318,0.81197 -0.667314,0.81196 -1.608706,1.49606 -1.608705,1.49604 -0.325,0.003 -0.325,0.003 -0.733333,0.61737 -0.733334,0.61736 0.563702,-0.70556 z m -7.349823,-2.54139 -0.7889,-0.15224 -0.974989,0.14743 -0.97499,0.14743 1.763889,0.005 1.763889,0.005 -0.788899,-0.15225 z m 4.056206,0.006 -0.613248,-0.16055 -0.797863,0.15343 -0.797863,0.15342 1.411111,0.007 1.411111,0.007 -0.613248,-0.16054 z m -3.8857,-2.31527 0.349944,-0.44098 0.399841,-4.7625 0.39984,-4.7625 -0.001,-1.85208 -10e-4,-1.85208 H 21.744107 21.21494 v -0.52917 -0.52917 h 0.529167 0.529167 v -0.70555 -0.70556 h -5.64451 -5.644444 v 0.70556 0.70555 h 0.705556 0.705555 v 0.52917 0.52917 H 11.689876 10.98432 v 2.82222 2.82222 h 0.352778 0.352778 l 0.0054,3.61597 0.0054,3.61598 0.298396,0.47073 0.298396,0.47074 3.375309,-0.11362 3.375308,-0.11362 0.260245,0.26024 0.260247,0.26025 h 0.603564 0.603563 z m -7.671885,-18.07986 v -0.52917 H 12.219042 10.98432 v 0.52917 0.52916 h 1.234722 1.234722 z m 2.822223,0 v -0.52917 H 15.217653 14.15932 v 0.52917 0.52916 h 1.058333 1.058334 z m 3.174999,0 v -0.52917 H 18.392653 17.33432 v 0.52917 0.52916 h 1.058333 1.058333 z m 2.822223,0 v -0.52917 h -1.058334 -1.058333 v 0.52917 0.52916 h 1.058333 1.058334 z m -5.997222,-2.64584 v -0.70555 H 13.630153 10.98432 v 0.70555 0.70556 h 2.645833 2.645834 z m 5.997222,0 v -0.70555 H 19.803764 17.33432 v 0.70555 0.70556 h 2.469444 2.469445 z m 8.887061,7.73465 0.126411,-0.37923 h 0.335138 0.335139 l 0.126411,0.37923 0.126415,0.37924 h -0.587965 -0.587963 z"
           id="path3283" />
        <path
           style="fill:#969696;stroke-width:0.352778"
           d="m 6.233882,211.22233 -4.5740491,-0.27415 -0.2766452,0.17097 -0.2766451,0.17098 v -0.3736 -0.3736 h 0.8611245 0.8611246 l 0.2319605,-0.37532 0.2319606,-0.37532 2.3464981,0.0493 2.3464981,0.0493 0.4100224,-0.0268 0.4100226,-0.0268 0.2526665,-4.23334 0.2526665,-4.23333 h 0.3074501 0.3074497 v -2.82222 -2.82222 H 9.3968201 8.8676535 v -0.52917 -0.52917 h 0.5291666 0.5291667 v -0.70555 -0.70556 h -1.02059 -1.02059 L 7.6817466,192.72766 7.4786863,192.19849 H 6.5856699 5.6926536 v -0.39834 -0.39835 l 2.1166666,0.23947 2.1166666,0.23948 v -0.54669 -0.54668 H 9.573209 9.2204312 v -0.70556 -0.70555 H 9.573209 9.9259868 v -0.69884 -0.69883 l -0.9701389,-0.21179 -0.9701389,-0.21178 -0.9701124,-0.36689 -0.9701127,-0.36689 -1.0886955,-1.10374 -1.0886958,-1.10374 -0.4975369,-0.95012 -0.497537,-0.95012 0.2713401,-0.1677 0.2713401,-0.16769 2.2850051,0.57749 2.285005,0.57749 h 8.819444 8.819444 l 2.293056,-0.58253 2.293055,-0.58253 0.268598,0.26256 0.268597,0.26257 -1.06354,1.60565 -1.063539,1.60565 -1.498113,0.73944 -1.498114,0.73944 -0.931227,0.18785 -0.931227,0.18785 -0.23549,0.61367 -0.235489,0.61368 0.372967,0.12432 0.372966,0.12432 v 0.67616 0.67616 H 23.68432 23.331542 v 0.53899 0.53899 l 2.293055,-0.23493 2.293056,-0.23493 v 0.4015 0.40149 h -1.015138 -1.015137 l -0.43917,0.52917 -0.439169,0.52916 h -0.66236 -0.662359 v 0.70556 0.70555 h 0.529166 0.529167 v 0.52917 0.52917 H 24.213486 23.68432 l -4.94e-4,2.02847 -4.94e-4,2.02847 0.375983,3.88056 0.375984,3.88055 0.169678,1.14653 0.169677,1.14653 h 1.550695 1.550695 l 0.218028,0.35278 0.218029,0.35277 1.654875,0.0107 1.654874,0.0107 -0.705555,0.41475 -0.705556,0.41476 -5.502854,0.14447 -5.502854,0.14448 -0.218713,-0.56996 -0.218743,-0.56995 h 1.004462 1.004462 l 0.372445,-0.97014 0.372445,-0.97013 0.37591,-4.50458 0.37591,-4.50458 v -1.93362 -1.93361 h -0.529167 -0.529167 v -0.52917 -0.52917 h 0.529167 0.529167 v -0.70555 -0.70556 H 16.628764 10.98432 v 0.70556 0.70555 h 0.705556 0.705555 v 0.52917 0.52917 H 11.689876 10.98432 v 2.82222 2.82222 h 0.352778 0.352778 v 3.55097 3.55097 l 0.365189,0.68236 0.36519,0.68237 h 1.621903 1.621903 l 0.658741,0.75953 0.65874,0.75954 v 0.12241 0.12241 l -3.086805,-0.0524 -3.086806,-0.0524 z m 7.219882,-19.90578 v -0.52917 H 12.219042 10.98432 v 0.52917 0.52916 h 1.234722 1.234722 z m 2.822223,0 v -0.52917 H 15.217653 14.15932 v 0.52917 0.52916 h 1.058333 1.058334 z m 3.174999,0 v -0.52917 H 18.392653 17.33432 v 0.52917 0.52916 h 1.058333 1.058333 z m 2.822223,0 v -0.52917 h -1.058334 -1.058333 v 0.52917 0.52916 h 1.058333 1.058334 z m -5.997222,-2.64584 v -0.70555 H 13.630153 10.98432 v 0.70555 0.70556 h 2.645833 2.645834 z m 5.997222,0 v -0.70555 H 19.803764 17.33432 v 0.70555 0.70556 h 2.469444 2.469445 z m 8.887061,7.73465 0.126411,-0.37923 h 0.335138 0.335139 l 0.126411,0.37923 0.126415,0.37924 h -0.587965 -0.587963 z"
           id="path3281" />
        <path
           style="fill:#8f8f8f;stroke-width:0.352778"
           d="m 8.6385243,210.024 0.1991353,-0.51894 0.2431581,-4.06718 0.243158,-4.06717 h 0.3010056 0.3010055 v -2.82222 -2.82222 H 9.3968201 8.8676535 v -0.52917 -0.52917 h 0.5291666 0.5291667 v -0.70555 -0.70556 h -1.02059 -1.02059 L 7.6817466,192.72766 7.4786863,192.19849 H 6.5856699 5.6926536 v -0.39834 -0.39835 l 2.1166666,0.23947 2.1166666,0.23948 v -0.54669 -0.54668 H 9.573209 9.2204312 v -0.70556 -0.70555 H 9.573209 9.9259868 v -0.69884 -0.69883 l -0.9701389,-0.21179 -0.9701389,-0.21178 -0.9663299,-0.36532 -0.9663299,-0.36533 -1.2094149,-1.33868 -1.2094154,-1.33867 -0.3828478,-0.71536 -0.3828478,-0.71536 0.2735879,-0.16909 0.2735877,-0.16908 2.2850051,0.57749 2.285005,0.57749 h 8.819444 8.819444 l 2.285005,-0.57749 2.285006,-0.57749 0.273587,0.16908 0.273588,0.16909 -0.382848,0.71536 -0.382848,0.71536 -1.209415,1.33867 -1.209415,1.33868 -0.96633,0.36533 -0.96633,0.36532 -0.931227,0.20202 -0.931227,0.20202 -0.23549,0.61367 -0.235489,0.61368 0.372967,0.12432 0.372966,0.12432 v 0.67616 0.67616 H 23.68432 23.331542 v 0.53899 0.53899 l 2.293055,-0.23493 2.293056,-0.23493 v 0.4015 0.40149 h -1.015138 -1.015137 l -0.43917,0.52917 -0.439169,0.52916 h -0.66236 -0.662359 v 0.70556 0.70555 h 0.529166 0.529167 v 0.52917 0.52917 h -0.583132 -0.583133 l 0.243731,3.96875 0.24373,3.96875 0.296771,2.82222 0.296772,2.82222 0.256762,0.61736 0.256763,0.61736 h -1.955842 -1.955841 l 0.150283,-1.14652 0.150282,-1.14653 0.356705,-4.29404 0.356705,-4.29405 v -1.96776 -1.96776 h -0.529167 -0.529167 v -0.52917 -0.52917 h 0.529167 0.529167 v -0.70555 -0.70556 H 16.628764 10.98432 v 0.70556 0.70555 h 0.705556 0.705555 v 0.52917 0.52917 H 11.689876 10.98432 v 2.82222 2.82222 h 0.32242 0.32242 l 0.137831,3.96875 0.13783,3.96875 0.283048,0.61736 0.283049,0.61736 H 10.455153 8.439389 Z m 4.8152397,-18.70745 v -0.52917 H 12.219042 10.98432 v 0.52917 0.52916 h 1.234722 1.234722 z m 2.822223,0 v -0.52917 H 15.217653 14.15932 v 0.52917 0.52916 h 1.058333 1.058334 z m 3.174999,0 v -0.52917 H 18.392653 17.33432 v 0.52917 0.52916 h 1.058333 1.058333 z m 2.822223,0 v -0.52917 h -1.058334 -1.058333 v 0.52917 0.52916 h 1.058333 1.058334 z m -5.997222,-2.64584 v -0.70555 H 13.630153 10.98432 v 0.70555 0.70556 h 2.645833 2.645834 z m 5.997222,0 v -0.70555 H 19.803764 17.33432 v 0.70555 0.70556 h 2.469444 2.469445 z m 8.995833,7.76111 -0.218029,-0.35277 h 0.549985 0.549988 v 0.35277 0.35278 h -0.331957 -0.33196 z"
           id="path3279" />
        <path
           style="fill:#898989;stroke-width:0.352778"
           d="m 8.6330143,210.03835 0.1936249,-0.50457 0.2478853,-3.99334 0.2478849,-3.99334 0.3899831,-0.25213 0.3899835,-0.25212 v -2.65671 -2.65672 l -0.6173614,-0.002 -0.6173611,-0.002 v -0.52917 -0.52917 h 0.4880218 0.4880215 l 0.1785492,-0.68277 0.178549,-0.68277 -0.5190349,-0.19917 -0.5190345,-0.19917 H 8.4970946 7.831464 l 0.1836713,-0.47864 0.1836716,-0.47864 0.8545625,0.0938 0.8545622,0.0938 -0.015787,-1.46725 -0.015787,-1.46725 0.1130088,-0.68731 0.1130096,-0.6873 -1.5869687,-0.2794 -1.586968,-0.27941 -0.8824764,-0.65357 -0.8824764,-0.65356 -1.1651904,-1.51843 -1.1651904,-1.51842 0.283246,-0.27721 0.283246,-0.27721 2.2930555,0.58253 2.2930554,0.58253 h 8.8194444 8.819444 l 2.293056,-0.58253 2.293055,-0.58253 0.283246,0.27721 0.283246,0.27721 -1.16519,1.51842 -1.16519,1.51843 -0.912487,0.67597 -0.912486,0.67597 -1.499228,0.20109 -1.499228,0.20109 -0.2016,0.52536 -0.2016,0.52536 0.437417,0.70042 0.437417,0.70042 -0.381742,0.38174 -0.381741,0.38174 v 0.45861 0.45861 h 0.684736 0.684735 l 0.218437,0.35344 0.218437,0.35344 -0.903173,0.34338 -0.903172,0.34339 v 0.56955 0.56954 l 0.79375,0.66217 0.79375,0.66217 -0.79375,0.0117 -0.79375,0.0117 v 2.79282 2.79283 l 0.312771,0.11759 0.312772,0.11759 0.348549,3.88056 0.34855,3.88055 0.258366,0.61736 0.258367,0.61736 h -1.955842 -1.955841 l 0.150283,-1.14652 0.150282,-1.14653 0.356705,-4.29404 0.356705,-4.29405 v -1.96776 -1.96776 h -0.529167 -0.529167 v -0.52917 -0.52917 h 0.529167 0.529167 v -0.88194 -0.88194 H 16.628764 10.98432 v 0.88194 0.88194 h 0.491423 0.491424 l 0.20306,0.52917 0.20306,0.52917 H 11.678804 10.98432 v 2.82222 2.82222 h 0.32242 0.32242 l 0.137831,3.96875 0.13783,3.96875 0.283048,0.61736 0.283049,0.61736 H 10.455153 8.439389 Z M 13.453764,191.14016 V 190.4346 H 12.219042 10.98432 v 0.70556 0.70555 h 1.234722 1.234722 z m 2.936457,0.21115 0.189721,-0.49441 -0.769339,-0.20633 -0.769339,-0.20633 -0.440972,-0.005 -0.440972,-0.005 v 0.70556 0.70555 h 1.02059 1.02059 z m 2.995422,-0.12296 -0.117078,-0.61736 -0.967123,-0.11163 -0.967122,-0.11162 v 0.72898 0.72899 h 1.0842 1.084201 z m 2.887566,-0.0882 V 190.4346 H 21.25602 20.238832 l -0.184507,0.70556 -0.184507,0.70555 h 1.201695 1.201696 z m -6.02879,-2.20486 0.298474,-0.79375 -0.485043,-0.28145 -0.485042,-0.28145 -2.20605,0.10506 -2.206049,0.10506 -0.111627,0.97014 -0.111627,0.97014 h 2.504245 2.504245 z m 6.10997,-0.0612 0.163433,-0.85494 -0.57557,-0.15051 -0.575571,-0.15052 -2.01618,0.1672 -2.016181,0.1672 v 0.83826 0.83826 h 2.428318 2.428319 z m -0.394938,-3.00116 3.390408,-0.30316 1.019314,-0.58866 1.019313,-0.58865 -0.705555,0.23277 -0.705556,0.23277 -6.702777,0.17755 -6.702778,0.17755 -2.8167357,-0.36395 -2.8167358,-0.36396 -0.1238951,0.1239 -0.1238949,0.12389 0.8227243,0.44031 0.8227243,0.44031 2.9998509,0.24187 2.999851,0.24186 2.116666,0.0394 2.116667,0.0394 z m 9.48598,10.55888 v -0.35277 h 0.352777 0.352778 v 0.35277 0.35278 h -0.352778 -0.352777 z"
           id="path3277" />
        <path
           style="fill:#787878;stroke-width:0.352778"
           d="m 8.6385243,210.024 0.1991353,-0.51894 0.2431581,-4.06718 0.243158,-4.06717 h 1.1525923 1.152592 l 0.137831,3.96875 0.13783,3.96875 0.283048,0.61736 0.283049,0.61736 H 10.455153 8.439389 Z m 12.7084157,-0.0984 0.179612,-0.61736 0.242325,-3.96875 0.242326,-3.96875 h 1.012947 1.012947 l 0.0222,1.14653 0.0222,1.14653 0.28795,2.82222 0.28795,2.82222 0.256763,0.61736 0.256763,0.61736 h -2.001794 -2.001794 l 0.179611,-0.61736 z m 10.098491,-13.49375 v -0.35277 h 0.352777 0.352778 v 0.35277 0.35278 H 31.798208 31.445431 Z M 6.867333,187.0709 5.8690424,186.64 4.9445717,185.6269 4.020101,184.6138 l -0.5940037,-0.93747 -0.5940036,-0.93748 0.2918026,-0.18034 0.2918026,-0.18034 2.2850051,0.57749 2.285005,0.57749 h 8.819444 8.819444 l 2.293056,-0.58253 2.293055,-0.58253 0.283246,0.27721 0.283246,0.27721 -1.16519,1.51842 -1.16519,1.51843 -0.995117,0.73766 -0.995116,0.73767 -9.295482,0.0335 -9.2954815,0.0336 z m 19.076013,-1.69463 1.377082,-0.59534 -0.157585,-0.15759 -0.157586,-0.15759 -3.159774,0.33234 -3.159774,0.33234 -3.880556,0.003 -3.880555,0.003 -3.1361946,-0.35929 -3.1361943,-0.35929 -0.157214,0.15722 -0.1572144,0.15721 0.7786945,0.41675 0.7786945,0.41674 1.6327698,0.29609 1.6327695,0.29609 6.702778,-0.0935 6.702777,-0.0935 1.377082,-0.59534 z"
           id="path3275" />
        <path
           style="fill:#737373;stroke-width:0.352778"
           d="m 8.6385243,210.024 0.1991353,-0.51894 0.2431581,-4.06718 0.243158,-4.06717 h 1.1525923 1.152592 l 0.137831,3.96875 0.13783,3.96875 0.283048,0.61736 0.283049,0.61736 H 10.455153 8.439389 Z m 12.7084157,-0.0984 0.179612,-0.61736 0.242325,-3.96875 0.242326,-3.96875 h 1.012947 1.012947 l 0.0222,1.14653 0.0222,1.14653 0.28795,2.82222 0.28795,2.82222 0.256763,0.61736 0.256763,0.61736 h -2.001794 -2.001794 l 0.179611,-0.61736 z m 6.836578,-24.09982 0.792468,-0.90468 v -0.20882 -0.20882 l -0.76072,0.19894 -0.76072,0.19893 0.218059,-0.35283 0.218058,-0.35282 -2.014977,0.3224 -2.014977,0.32241 -8.290278,-0.15249 -8.2902775,-0.15248 -0.8489145,-0.28101 -0.8489146,-0.28102 0.2841713,0.4598 0.2841714,0.4598 -1.0131774,-0.25429 -1.0131774,-0.2543 0.6624577,0.73201 0.6624581,0.73201 H 5.2203759 4.9915236 L 3.9235733,184.37426 2.8556232,182.9 l 0.2719875,-0.26596 0.2719874,-0.26595 2.2930555,0.58253 2.2930554,0.58253 h 8.819444 8.819444 l 2.285005,-0.57749 2.285006,-0.57749 0.278234,0.17196 0.278235,0.17195 -0.620178,1.04988 -0.620179,1.04988 -1.059835,0.95431 -1.059835,0.95431 z"
           id="path3273" />
        <path
           style="fill:#707070;stroke-width:0.352778"
           d="m 8.8963886,209.22002 0.3072105,-1.32292 0.013818,-2.82222 0.013818,-2.82222 0.2990768,-0.47184 0.2990769,-0.47184 0.8420482,0.11906 0.842049,0.11906 0.189379,3.88056 0.189379,3.88055 0.289336,0.61736 0.289337,0.61736 h -1.94087 -1.9408692 z m 12.5092734,0.70555 0.266273,-0.61736 0.212442,-3.88055 0.212443,-3.88056 h 0.881944 0.881945 l 0.356263,4.05694 0.356263,4.05695 0.281918,0.44097 0.281918,0.44097 H 23.13823 21.139389 Z m 6.952963,-24.25356 0.617361,-0.75094 v -0.20882 -0.20882 l -0.76072,0.19894 -0.76072,0.19893 0.218059,-0.35283 0.218058,-0.35282 -2.014977,0.3224 -2.014977,0.32241 -8.290278,-0.15249 -8.2902775,-0.15248 -0.8489145,-0.28101 -0.8489146,-0.28102 0.2841713,0.4598 0.2841714,0.4598 -1.0131774,-0.25429 -1.0131774,-0.2543 0.5195873,0.66322 0.5195873,0.66322 -0.9701388,-1.06441 -0.9701389,-1.06441 v -0.58438 -0.58437 l 2.0284722,0.52377 2.0284721,0.52377 7.9374995,0.17068 7.9375,0.17067 3.263351,-0.56437 3.263352,-0.56437 h 0.35262 0.352621 v 0.4838 0.48379 l -1.322916,1.39094 -1.322917,1.39094 z"
           id="path3271" />
        <path
           style="fill:#656565;stroke-width:0.352778"
           d="m 8.8963886,209.22002 0.3072105,-1.32292 0.013818,-2.82222 0.013818,-2.82222 0.2990768,-0.47184 0.2990769,-0.47184 0.8420482,0.11906 0.842049,0.11906 0.189379,3.88056 0.189379,3.88055 0.289336,0.61736 0.289337,0.61736 h -1.94087 -1.9408692 z m 2.1828404,-2.08349 -0.434259,-0.17569 -0.624075,0.16262 -0.6240749,0.16263 1.0583329,0.0131 1.058334,0.0131 -0.434258,-0.1757 z m 10.326433,2.78904 0.266273,-0.61736 0.212442,-3.88055 0.212443,-3.88056 h 0.881944 0.881945 l 0.356263,4.05694 0.356263,4.05695 0.281918,0.44097 0.281918,0.44097 H 23.13823 21.139389 Z m 2.373566,-2.78904 -0.434258,-0.17569 -0.624075,0.16262 -0.624075,0.16263 1.058333,0.0131 1.058333,0.0131 -0.434258,-0.1757 z m -16.4990745,-22.91455 -2.4694444,-0.50187 -0.6178479,0.14935 -0.6178479,0.14934 0.1976956,-0.31988 0.1976956,-0.31987 H 3.5968069 3.2232092 v -0.48286 -0.48285 l 2.0284722,0.52377 2.0284721,0.52377 7.9374995,0.17068 7.9375,0.17067 3.263351,-0.56437 3.263352,-0.56437 h 0.378488 0.378487 l -0.114061,0.57163 -0.114062,0.57163 -1.234722,0.10579 -1.234722,0.10578 -2.116667,0.37888 -2.116666,0.37887 -6.879167,-0.0311 -6.8791661,-0.0311 -2.4694444,-0.50187 z"
           id="path3269" />
        <path
           style="fill:#5e5e5e;stroke-width:0.352778"
           d="m 8.8963886,209.22002 0.3072105,-1.32292 0.013818,-2.82222 0.013818,-2.82222 0.2990768,-0.47184 0.2990769,-0.47184 0.8420482,0.11906 0.842049,0.11906 0.189379,3.88056 0.189379,3.88055 0.289336,0.61736 0.289337,0.61736 h -1.94087 -1.9408692 z m 2.1828404,-2.08349 -0.434259,-0.17569 -0.624075,0.16262 -0.6240749,0.16263 1.0583329,0.0131 1.058334,0.0131 -0.434258,-0.1757 z m 10.326433,2.78904 0.266273,-0.61736 0.212442,-3.88055 0.212443,-3.88056 h 0.881944 0.881945 l 0.356263,4.05694 0.356263,4.05695 0.281918,0.44097 0.281918,0.44097 H 23.13823 21.139389 Z m 2.014074,-1.73294 -0.440972,-0.17794 -0.440972,0.17794 -0.440972,0.17794 h 0.881944 0.881945 z m 0.359492,-1.0561 -0.434258,-0.17569 -0.624075,0.16262 -0.624075,0.16263 1.058333,0.0131 1.058333,0.0131 -0.434258,-0.1757 z M 6.8854474,183.92272 4.0212969,183.47787 3.6222531,183.23125 3.2232092,182.98463 v -0.28565 -0.28564 l 2.0284722,0.52377 2.0284721,0.52377 7.9374995,0.17068 7.9375,0.17067 3.263351,-0.56437 3.263352,-0.56437 h 0.423176 0.423176 l -0.371075,0.37108 -0.371074,0.37107 -3.139064,0.50953 -3.139064,0.50952 -6.879167,-0.0336 -6.8791661,-0.0336 z"
           id="path3267" />
        <path
           style="fill:#5a5a5a;stroke-width:0.352778"
           d="m 8.7924031,209.4846 0.1553306,-1.05833 h 1.1946823 1.194682 v -0.39282 -0.39282 l -1.058333,0.15533 -1.0583338,0.15533 v -0.29168 -0.29168 h 1.0583338 1.058333 v -0.29168 -0.29167 l -1.058333,0.15533 -1.0583338,0.15533 0.0054,-2.42129 0.0054,-2.42129 0.2990769,-0.47184 0.2990769,-0.47184 0.842049,0.11906 0.842049,0.11906 0.189379,3.88056 0.189379,3.88055 0.289336,0.61736 0.289337,0.61736 H 10.553995 8.637073 Z m 12.5611179,0.50031 0.214132,-0.55802 v -0.50031 -0.50031 h 1.234722 1.234722 v -0.39282 -0.39282 l -1.058333,0.15533 -1.058333,0.15533 v -0.29168 -0.29168 h 1.058333 1.058333 v -0.39687 -0.39688 l -1.073067,0.21462 -1.073066,0.21461 0.102928,-2.72815 0.102928,-2.72816 h 0.881944 0.881945 l 0.356263,4.05694 0.356263,4.05695 0.281918,0.44097 0.281918,0.44097 H 23.13823 21.139389 Z m -13.367812,-25.95 -2.4694443,-0.31321 -1.1465278,-0.37507 -1.1465277,-0.37508 v -0.2791 -0.27911 l 2.0284722,0.52299 2.0284721,0.52299 7.8529095,0.17459 7.85291,0.17459 3.555885,-0.59459 3.555886,-0.59459 0.168313,0.16832 0.168314,0.16831 -1.170165,0.37559 -1.170164,0.37559 -2.989356,0.36512 -2.989356,0.36513 -5.830089,-0.0446 -5.830088,-0.0446 z"
           id="path3265" />
        <path
           style="fill:#555555;stroke-width:0.352778"
           d="m 8.8676535,210.04262 v -0.50031 l 0.2141322,-0.55802 0.2141322,-0.55802 h 1.0205901 1.02059 v -0.39282 -0.39282 l -1.058333,0.15533 -1.0583338,0.15533 v -0.29168 -0.29168 h 1.0583338 1.058333 v -0.29168 -0.29167 l -1.113535,0.16343 -1.1135357,0.16343 0.2159011,-2.57526 0.2159007,-2.57527 0.424671,-0.26246 0.4246709,-0.26246 0.445411,0.17092 0.44541,0.17092 0.210603,2.70686 0.210602,2.70685 0.117943,1.6757 0.117943,1.67569 H 10.403368 8.8676535 Z m 12.3472215,0.34052 v -0.15978 l 0.409404,-0.89855 0.409404,-0.89854 h 1.001707 1.001707 v -0.39282 -0.39282 l -1.058333,0.15533 -1.058333,0.15533 v -0.29168 -0.29168 h 1.058333 1.058333 v -0.39687 -0.39688 l -1.058333,0.21167 -1.058333,0.21167 v -2.63702 -2.63701 h 1.008123 1.008124 l 0.247106,3.90514 0.247105,3.90515 0.193625,0.50457 0.193626,0.50458 H 23.016507 21.214875 Z M 7.8480227,184.0199 l -2.6071303,-0.32644 -1.0970362,-0.48121 -1.0970359,-0.4812 0.7055556,-0.0162 0.7055555,-0.0162 2.1166666,0.51108 2.1166666,0.51109 7.7611104,0.003 7.761111,0.003 1.940278,-0.32982 1.940278,-0.32982 1.234722,-0.20056 1.234722,-0.20055 -1.058333,0.49604 -1.058333,0.49605 -3.175,0.38816 -3.175,0.38815 -5.820833,-0.0445 -5.820834,-0.0445 z"
           id="path3263" />
        <path
           style="fill:#434343;stroke-width:0.352778"
           d="m 8.8676535,210.04262 v -0.50031 l 0.2141322,-0.55802 0.2141322,-0.55802 h 1.0205901 1.02059 v -0.33043 -0.33043 l -1.146528,-0.14228 -1.1465276,-0.14228 1.1465276,-0.0565 1.146528,-0.0565 v -0.35277 -0.35278 H 10.227751 9.1184044 l 0.2199929,-2.35585 0.2199926,-2.35585 0.4163906,-0.25735 0.4163905,-0.25734 0.445411,0.17092 0.44541,0.17092 0.210603,2.70686 0.210602,2.70685 0.117943,1.6757 0.117943,1.67569 H 10.403368 8.8676535 Z m 12.3472215,0.34052 v -0.15978 l 0.409404,-0.89855 0.409404,-0.89854 h 1.178096 1.178096 v 0.50031 0.50031 l 0.214132,0.55802 0.214133,0.55802 h -1.801633 -1.801632 z m 1.32703,-2.91193 0.797863,-0.15343 0.613248,0.16054 0.613248,0.16055 -1.411111,-0.007 -1.411111,-0.007 z m 0.525054,-0.73998 -1.146528,-0.11355 v -2.4471 -2.44709 h 1.029385 1.029384 l 0.125516,2.55764 0.125516,2.55764 -0.0084,0.003 -0.0084,0.003 -1.146528,-0.11355 z m -12.800333,-22.65045 -3.7163044,-0.2808 -1.5227772,-0.41004 -1.5227776,-0.41004 0.1871345,-0.18714 0.1871345,-0.18713 2.4757545,0.5631 2.4757548,0.56309 7.6914709,-0.002 7.69147,-0.002 1.940278,-0.31985 1.940278,-0.31985 1.058333,-0.22954 1.058333,-0.22954 -0.529987,0.34367 -0.529986,0.34368 -2.115847,0.35783 -2.115846,0.35782 -5.468056,0.16482 -5.468055,0.16481 z"
           id="path3261" />
        <path
           style="fill:#3e3e3e;stroke-width:0.352778"
           d="m 8.9980803,209.74918 0.2127169,-0.79375 0.00482,-0.26458 0.00482,-0.26458 h 1.2347218 1.234723 v 0.50031 0.50031 l 0.214132,0.55802 0.214132,0.55802 H 10.451752 8.7853635 Z m 12.7837987,0.5022 -0.180192,-0.29156 0.200517,-0.76678 0.200517,-0.76677 h 1.152451 1.152452 l 0.167009,0.87365 0.167009,0.87365 -0.184679,0.18468 -0.18468,0.18468 h -1.155107 -1.155105 z m 2.159675,-1.33269 -0.213137,-0.21314 -0.463021,0.18529 -0.463021,0.18528 0.676158,0.0279 0.676157,0.0279 z m -14.0996486,-1.44748 0.7978626,-0.15343 0.613248,0.16054 0.613248,0.16055 -1.411111,-0.007 -1.4111106,-0.007 z m 12.6999996,0 0.797863,-0.15343 0.613248,0.16054 0.613248,0.16055 -1.411111,-0.007 -1.411111,-0.007 z m 0.370713,-5.63593 0.463021,-0.18529 0.213137,0.21314 0.213136,0.21314 -0.676157,-0.0279 -0.676158,-0.0279 z m -3.538,-18.01117 1.863909,-0.12998 1.663869,0.13165 1.663868,0.13165 -3.527778,-0.002 -3.527777,-0.002 1.863909,-0.12998 z m -12.3590478,-0.32592 0.4409722,-0.17794 0.4409722,0.17794 0.4409722,0.17793 H 7.4565424 6.574598 Z m 18.8803248,-0.0108 0.624075,-0.16262 0.434258,0.17569 0.434258,0.1757 -1.058333,-0.0131 -1.058333,-0.0131 0.624075,-0.16263 z m 1.955612,-0.34929 0.463021,-0.18529 0.213137,0.21314 0.213136,0.21314 -0.676157,-0.0279 -0.676158,-0.0279 z"
           id="path3259" />
      </g>
    </g>
  </g>
</svg>
